<svg xmlns="http://www.w3.org/2000/svg" width="87" height="87" viewBox="0 0 87 87">
  <g id="Grupo_895183" data-name="Grupo 895183" transform="translate(-303 -4888)">
    <path id="Trazado_628421" data-name="Trazado 628421" d="M87,43.5A43.5,43.5,0,1,1,43.5,0,43.5,43.5,0,0,1,87,43.5Zm0,0" transform="translate(303 4888)" fill="#ffda00"/>
    <path id="Trazado_628422" data-name="Trazado 628422" d="M155.729,135.156l-13.082-13.081-3.886,6.934-18.8-18.8-30.278,3.516L82.8,151.619,109.583,178.4c.877.053,1.759.083,2.648.083A43.5,43.5,0,0,0,155.729,135.156Zm0,0" transform="translate(234.269 4796.516)" fill="#ffb600"/>
    <path id="Trazado_628423" data-name="Trazado 628423" d="M115.734,121.18H112v-6a4.973,4.973,0,0,1,4.968-4.968h8.144v3.738h-8.144a1.231,1.231,0,0,0-1.229,1.229Zm0,0" transform="translate(210.035 4796.516)" fill="#4b5568"/>
    <path id="Trazado_628424" data-name="Trazado 628424" d="M351.547,213.859h8.432v16.863h-8.432Zm0,0" transform="translate(11.188 4710.48)" fill="#323750"/>
    <path id="Trazado_628425" data-name="Trazado 628425" d="M351.547,255.309h8.432v9.82h-8.432Zm0,0" transform="translate(11.188 4676.074)" fill="#282d3f"/>
    <path id="Trazado_628426" data-name="Trazado 628426" d="M393.811,208.388l-8.432-5.749V185.776l8.432-5.749Zm0,0" transform="translate(-16.895 4738.563)" fill="#4b5568"/>
    <path id="Trazado_628427" data-name="Trazado 628427" d="M385.379,255.309v9.82l8.432,5.749V255.309Zm0,0" transform="translate(-16.895 4676.074)" fill="#323750"/>
    <path id="Trazado_628428" data-name="Trazado 628428" d="M115.347,196.306H80.284A7.284,7.284,0,0,1,73,189.022V168.14a7.284,7.284,0,0,1,7.284-7.284h35.063a7.284,7.284,0,0,1,7.284,7.284v20.882A7.284,7.284,0,0,1,115.347,196.306Zm0,0" transform="translate(242.404 4754.478)" fill="#4b5568"/>
    <path id="Trazado_628429" data-name="Trazado 628429" d="M73,255.309v12.117a7.284,7.284,0,0,0,7.284,7.284h35.063a7.284,7.284,0,0,0,7.284-7.284V255.309Zm0,0" transform="translate(242.404 4676.074)" fill="#323750"/>
    <path id="Trazado_628430" data-name="Trazado 628430" d="M107.395,198.82h37.942v16.224H107.395Zm0,0" transform="translate(213.854 4722.963)" fill="#626c7c"/>
    <path id="Trazado_628431" data-name="Trazado 628431" d="M107.395,255.309h37.942v6.626H107.395Zm0,0" transform="translate(213.854 4676.074)" fill="#4b5568"/>
    <path id="Trazado_628432" data-name="Trazado 628432" d="M183.39,107.431h-17a3.547,3.547,0,0,1,0-7.095h17a3.547,3.547,0,1,1,0,7.095Zm0,0" transform="translate(167.827 4804.713)" fill="#323750"/>
    <path id="Trazado_628433" data-name="Trazado 628433" d="M128.234,211.966a2.619,2.619,0,1,1-2.619-2.619A2.619,2.619,0,0,1,128.234,211.966Zm0,0" transform="translate(200.904 4714.225)" fill="#fa5d0f"/>
  </g>
</svg>
