<svg xmlns="http://www.w3.org/2000/svg" width="85" height="85" viewBox="0 0 85 85">
  <g id="Grupo_895182" data-name="Grupo 895182" transform="translate(-285 -845)">
    <circle id="Elipse_6783" data-name="Elipse 6783" cx="42.5" cy="42.5" r="42.5" transform="translate(285 845)" fill="#9ea257"/>
    <g id="cuantitativo" transform="translate(302.192 861.424)">
      <g id="Grupo_891845" data-name="Grupo 891845" transform="translate(0 0)">
        <path id="Trazado_628355" data-name="Trazado 628355" d="M72,10h40.92V64.708H72Z" transform="translate(-72 -10)" fill="#edeff1"/>
      </g>
      <g id="Grupo_891850" data-name="Grupo 891850" transform="translate(3.781 7.005)">
        <g id="Grupo_891846" data-name="Grupo 891846" transform="translate(8.451 2.475)">
          <path id="Trazado_628356" data-name="Trazado 628356" d="M187.976,107.211a8.451,8.451,0,0,0,0-11.951L182,101.236Z" transform="translate(-182 -95.26)" fill="#ffb0aa"/>
        </g>
        <g id="Grupo_891847" data-name="Grupo 891847" transform="translate(0 8.451)">
          <path id="Trazado_628357" data-name="Trazado 628357" d="M120.427,154.976,114.451,149H106a8.451,8.451,0,0,0,14.427,5.976Z" transform="translate(-106 -149)" fill="#80d6fb"/>
        </g>
        <g id="Grupo_891848" data-name="Grupo 891848" transform="translate(0 0)">
          <path id="Trazado_628358" data-name="Trazado 628358" d="M106,81.451h8.451V73A8.451,8.451,0,0,0,106,81.451Z" transform="translate(-106 -73)" fill="#ffe352"/>
        </g>
        <g id="Grupo_891849" data-name="Grupo 891849" transform="translate(8.451)">
          <path id="Trazado_628359" data-name="Trazado 628359" d="M182,73v8.451l5.976-5.976A8.424,8.424,0,0,0,182,73Z" transform="translate(-182 -73)" fill="#98ca69"/>
        </g>
      </g>
      <g id="Grupo_891857" data-name="Grupo 891857" transform="translate(3.781 27.688)">
        <g id="Grupo_891855" data-name="Grupo 891855" transform="translate(2.224)">
          <g id="Grupo_891851" data-name="Grupo 891851" transform="translate(0 11.12)">
            <path id="Trazado_628360" data-name="Trazado 628360" d="M126,359h5.56v8.9H126Z" transform="translate(-126 -359)" fill="#ffb0aa"/>
          </g>
          <g id="Grupo_891852" data-name="Grupo 891852" transform="translate(7.784 4.448)">
            <path id="Trazado_628361" data-name="Trazado 628361" d="M196,299h5.56v15.567H196Z" transform="translate(-196 -299)" fill="#ffe352"/>
          </g>
          <g id="Grupo_891853" data-name="Grupo 891853" transform="translate(15.567 8.896)">
            <path id="Trazado_628362" data-name="Trazado 628362" d="M266,339h5.56v11.12H266Z" transform="translate(-266 -339)" fill="#80d6fb"/>
          </g>
          <g id="Grupo_891854" data-name="Grupo 891854" transform="translate(23.351)">
            <path id="Trazado_628363" data-name="Trazado 628363" d="M336,259h5.56v20.015H336Z" transform="translate(-336 -259)" fill="#98ca69"/>
          </g>
        </g>
        <g id="Grupo_891856" data-name="Grupo 891856" transform="translate(0 20.015)">
          <path id="Trazado_628364" data-name="Trazado 628364" d="M106,439h33.359v2.224H106Z" transform="translate(-106 -439)" fill="#466089"/>
        </g>
      </g>
      <g id="Grupo_891863" data-name="Grupo 891863" transform="translate(22.955 29.835)">
        <g id="Grupo_891858" data-name="Grupo 891858" transform="translate(15.842 15.867)">
          <path id="Trazado_628365" data-name="Trazado 628365" d="M0,0H3.145V1.887H0Z" transform="translate(0 2.224) rotate(-45)" fill="#466089"/>
        </g>
        <g id="Grupo_891859" data-name="Grupo 891859" transform="translate(16.742 16.756)">
          <path id="Trazado_628366" data-name="Trazado 628366" d="M432.113,429,429,432.113l5,5h3.113V434Z" transform="translate(-429 -429)" fill="#6e83b7"/>
        </g>
        <g id="Grupo_891862" data-name="Grupo 891862" transform="translate(0 0)">
          <g id="Grupo_891860" data-name="Grupo 891860">
            <ellipse id="Elipse_6780" data-name="Elipse 6780" cx="9.987" cy="9.987" rx="9.987" ry="9.987" fill="#6e83b7"/>
          </g>
          <g id="Grupo_891861" data-name="Grupo 891861" transform="translate(2.385 2.385)">
            <ellipse id="Elipse_6781" data-name="Elipse 6781" cx="7.751" cy="7.751" rx="7.751" ry="7.751" transform="translate(0 0)" fill="#80d6fb"/>
          </g>
        </g>
      </g>
      <g id="Grupo_891872" data-name="Grupo 891872" transform="translate(26.242 7.005)">
        <g id="Grupo_891865" data-name="Grupo 891865">
          <g id="Grupo_891864" data-name="Grupo 891864">
            <path id="Trazado_628367" data-name="Trazado 628367" d="M308,73h11.787v2.224H308Z" transform="translate(-308 -73)" fill="#6e83b7"/>
          </g>
        </g>
        <g id="Grupo_891867" data-name="Grupo 891867" transform="translate(0 4.893)">
          <g id="Grupo_891866" data-name="Grupo 891866">
            <path id="Trazado_628368" data-name="Trazado 628368" d="M308,117h11.787v2.224H308Z" transform="translate(-308 -117)" fill="#6e83b7"/>
          </g>
        </g>
        <g id="Grupo_891869" data-name="Grupo 891869" transform="translate(0 9.785)">
          <g id="Grupo_891868" data-name="Grupo 891868">
            <path id="Trazado_628369" data-name="Trazado 628369" d="M308,161h11.787v2.224H308Z" transform="translate(-308 -161)" fill="#6e83b7"/>
          </g>
        </g>
        <g id="Grupo_891871" data-name="Grupo 891871" transform="translate(0 14.678)">
          <g id="Grupo_891870" data-name="Grupo 891870">
            <path id="Trazado_628370" data-name="Trazado 628370" d="M308,205h11.787v2.224H308Z" transform="translate(-308 -205)" fill="#6e83b7"/>
          </g>
        </g>
      </g>
    </g>
  </g>
</svg>
