<svg xmlns="http://www.w3.org/2000/svg" width="126.247" height="125.824" viewBox="0 0 126.247 125.824">
  <g id="Grupo_895161" data-name="Grupo 895161" transform="translate(-27.164 -31.545)">
    <g id="Grupo_895162" data-name="Grupo 895162" transform="translate(27.164 31.545)">
      <path id="Trazado_629639" data-name="Trazado 629639" d="M66.575,125.778l6.095-9.1c1.529-1.423,3.009-2.9,4.6-4.255a42.222,42.222,0,0,1,11.564-6.661,51.681,51.681,0,0,1,12.659-2.317l7.9.593,10.259,3.488a44.623,44.623,0,0,1,11.083,7.973,43.974,43.974,0,0,1,9.182,15.247,44.856,44.856,0,0,1,1.842,13.431,39.72,39.72,0,0,1-5.409,18.944q-.291.506-.573,1.017c-.023.041-.021.095-.361.472a7.921,7.921,0,0,1,1.358.893q10.395,10.351,20.75,20.742c4.047,4.079,3.573,10.261-.949,13.37a8.506,8.506,0,0,1-11.1-1.2q-10.4-10.345-20.749-20.744c-.379-.379-.7-.818-1.042-1.223-1.748.911-3.3,1.821-4.935,2.554a39.249,39.249,0,0,1-28.437,1.773c-.183-.056-.377-.079-.566-.118q-2.454-.96-4.909-1.919l-.306-.029.167.166c.436,2.184-.2,2.952-2.468,2.953q-20.536.005-41.072,0c-.293,0-.679.11-.863-.035-.639-.5-1.522-.993-1.727-1.667A1.671,1.671,0,0,1,40,178.085a6.548,6.548,0,0,1,1.6-.093q19.95-.006,39.9,0h1.536c-1.735-1.324-3.313-2.573-5.7-2.477-4.931.2-9.875.07-14.813.052-1.515-.005-2.44-.792-2.426-1.96.015-1.229.824-1.863,2.441-1.867,3.472-.01,6.943,0,10.415,0h1.8a3.961,3.961,0,0,0-3.975-2.277c-2.777.167-5.572.056-8.359.038-1.493-.009-2.3-.678-2.326-1.854s.9-1.952,2.392-1.98c.538-.01,1.076,0,1.614,0h5.371c-.423-1.688-1.3-2.254-2.819-2.121a33.549,33.549,0,0,1-4.544,0,1.94,1.94,0,0,1-2-2.067,1.836,1.836,0,0,1,2.105-1.759c1.3.024,2.594.005,3.917.005-.164-1.687-.828-2.522-2.475-2.249a10.452,10.452,0,0,1-1.465.012A1.827,1.827,0,0,1,60.1,155.7a1.96,1.96,0,0,1,2.025-2.049c.57-.046,1.147-.008,1.72-.008-.009-2.8-.094-2.9-2.507-2.9q-9.9,0-19.8,0c-.44,0-.882.005-1.319-.029a1.6,1.6,0,0,1-1.653-1.7,3.861,3.861,0,0,1,1.373-1.975c.28-.258.934-.14,1.419-.141q9.9-.01,19.8,0h1.631c-.05-.818-.084-1.386-.127-2.092H60.986c-6.6,0-13.2.035-19.8-.045a3.376,3.376,0,0,1-2.37-1.008c-.986-1.272.16-2.779,2.031-2.783q10.121-.022,20.243-.007h1.584l.291-2.88H50.356c-.343,0-.685,0-1.027,0a1.917,1.917,0,1,1,0-3.821c4.352-.027,8.7-.014,13.055-.012.689,0,1.254.063,1.548-.885.793-2.556,1.752-5.061,2.645-7.586m65.453,17.3a29.815,29.815,0,1,0-29.879,29.875,29.607,29.607,0,0,0,29.879-29.875" transform="translate(-34.037 -75.325)" fill="#344a5e"/>
      <path id="Trazado_629640" data-name="Trazado 629640" d="M59.7,160.543c-.893,2.525-1.852,5.03-2.645,7.586-.294.948-.859.885-1.548.885-4.352,0-8.7-.015-13.055.012a1.917,1.917,0,1,0,0,3.822c.342,0,.684,0,1.027,0H56.09c-.1.978-.185,1.824-.291,2.881H54.215q-10.121,0-20.243.006c-1.872,0-3.017,1.511-2.031,2.783a3.376,3.376,0,0,0,2.37,1.008c6.6.079,13.2.045,19.8.045h1.679c.043.706.077,1.274.127,2.092H54.288q-9.9,0-19.8,0c-.485,0-1.139-.117-1.419.141a3.865,3.865,0,0,0-1.373,1.975,1.6,1.6,0,0,0,1.653,1.7c.438.034.88.029,1.319.029q9.9,0,19.8,0c2.414,0,2.5.092,2.507,2.9-.573,0-1.15-.039-1.72.008a1.96,1.96,0,0,0-2.025,2.048,1.827,1.827,0,0,0,2.083,1.783,10.445,10.445,0,0,0,1.465-.012c1.646-.274,2.311.562,2.475,2.249-1.323,0-2.621.018-3.917-.005a1.836,1.836,0,0,0-2.1,1.759,1.939,1.939,0,0,0,2,2.066,33.554,33.554,0,0,0,4.544,0c1.522-.133,2.4.433,2.819,2.121H57.225c-.538,0-1.076-.008-1.613,0-1.489.028-2.418.8-2.392,1.98s.833,1.845,2.326,1.854c2.787.017,5.582.128,8.359-.038a3.961,3.961,0,0,1,3.975,2.278h-1.8c-3.472,0-6.943-.007-10.415,0-1.618,0-2.427.639-2.441,1.867-.014,1.168.911,1.955,2.426,1.96,4.938.018,9.882.145,14.813-.052,2.389-.1,3.968,1.153,5.7,2.478H74.625q-19.95,0-39.9,0a6.548,6.548,0,0,0-1.6.093A1.672,1.672,0,0,0,31.7,214.9c.205.674,1.088,1.168,1.727,1.667.184.144.57.034.863.034q20.536,0,41.072,0c2.272,0,2.9-.769,2.468-2.953q.072-.067.14-.138l4.909,1.92v20.357H27.164v-75.24ZM48.388,188.494H32.213V209.45H48.388Zm6.385,34.189q10.185,0,20.37-.009c.575,0,1.331.059,1.682-.26.543-.495,1.176-1.344,1.092-1.948s-.972-1.129-1.584-1.587c-.222-.167-.664-.044-1.006-.044q-20.517,0-41.033,0c-.342,0-.789-.121-1.005.047-.6.469-1.435,1-1.563,1.625-.112.548.478,1.425,1,1.86a3.134,3.134,0,0,0,1.82.306q10.111.028,20.223.011m.065,5.933q10.114,0,20.228,0c.439,0,1,.155,1.293-.057.607-.442,1.428-1.043,1.493-1.649s-.577-1.417-1.112-1.924c-.307-.291-1.018-.2-1.547-.2q-20.374-.014-40.748,0c-.528,0-1.242-.082-1.545.21-.531.512-1.164,1.326-1.094,1.936s.9,1.2,1.511,1.632c.295.21.854.055,1.293.056H54.838" transform="translate(-27.164 -110.089)" fill="#a8b3bb"/>
      <path id="Trazado_629641" data-name="Trazado 629641" d="M129.956,60.261l-7.9-.593c-1.062-1.907-2.072-3.846-3.2-5.713a2.656,2.656,0,0,0-4.684-.075c-1.675,2.554-3.217,5.2-4.815,7.8-.377-.5-.794-.969-1.124-1.495-1.789-2.842-3.549-5.7-5.336-8.547-1.774-2.823-4.271-2.8-6.071.035q-3.085,4.861-6.173,9.721a42.84,42.84,0,0,1-2.854-4.6c-1.623-3.493-4.368-3.818-6.333.111-2.7,5.4-5.81,10.6-8.743,15.892-.166-.349-.477-.7-.478-1.046q-.034-19.791-.011-39.583a3.715,3.715,0,0,1,.118-.626h57.609Zm-14.9-17.781a4.723,4.723,0,0,0-4.71-4.753,4.872,4.872,0,0,0-4.706,4.668,4.811,4.811,0,0,0,4.7,4.8,4.653,4.653,0,0,0,4.717-4.719" transform="translate(-54.599 -31.545)" fill="#4f7db8"/>
      <path id="Trazado_629642" data-name="Trazado 629642" d="M257.142,97.335a44.613,44.613,0,0,0-11.082-7.973q.05-6.956.1-13.913c0-.577,0-1.155,0-1.837h32.556v38.894h-4.478c0-2.2.068-4.4-.026-6.6a9.187,9.187,0,0,0-2.423-5.957,9.829,9.829,0,0,0-7.959-3.3c1.962-.8,3.535-2.037,3.734-4.276a20.431,20.431,0,0,0-.127-5.079,4.793,4.793,0,0,0-4.209-3.747,5.01,5.01,0,0,0-5.13,2.406,7.658,7.658,0,0,0,3.063,10.7l-4.018.68" transform="translate(-160.445 -57.159)" fill="#507eb9"/>
      <path id="Trazado_629643" data-name="Trazado 629643" d="M108.762,89.4l6.173-9.721c1.8-2.837,4.3-2.858,6.071-.036,1.787,2.844,3.546,5.705,5.335,8.548.331.526.748,1,1.125,1.494l.04.3a42.216,42.216,0,0,0-11.564,6.661c-1.588,1.354-3.068,2.833-4.6,4.255l-9.373-.095c.212-.433.392-.886.64-1.3q3.064-5.064,6.149-10.114" transform="translate(-72.714 -59.548)" fill="#fdcf60"/>
      <path id="Trazado_629644" data-name="Trazado 629644" d="M91.418,96.459q-3.077,5.055-6.149,10.114c-.249.411-.428.864-.64,1.3l-11.141-.006c2.933-5.288,6.039-10.489,8.743-15.892,1.966-3.928,4.711-3.6,6.333-.111a42.741,42.741,0,0,0,2.854,4.6" transform="translate(-55.369 -66.609)" fill="#f4a238"/>
      <path id="Trazado_629645" data-name="Trazado 629645" d="M281.084,132.521a9.83,9.83,0,0,1,7.959,3.3,9.187,9.187,0,0,1,2.423,5.957c.094,2.195.024,4.4.026,6.6l-7.914.076A43.973,43.973,0,0,0,274.4,133.2l4.016-.68h2.67" transform="translate(-177.699 -93.025)" fill="#48baac"/>
      <path id="Trazado_629646" data-name="Trazado 629646" d="M184.874,158.272a29.815,29.815,0,1,1-29.712-29.87,29.716,29.716,0,0,1,29.712,29.87m-52.353-.077-.388.1c.638,2.736,1.11,5.525,1.958,8.193a18.925,18.925,0,0,0,4.972,7.684,1.838,1.838,0,0,0,2.758.036,1.814,1.814,0,0,0,.083-2.64c-.207-.27-.47-.5-.7-.753a18.371,18.371,0,0,1-4.8-12.129,18.825,18.825,0,0,1,5.185-13.46,2.89,2.89,0,0,0,.55-2.326c-.133-.5-1.164-1.038-1.8-1.046a2.9,2.9,0,0,0-1.8,1.04,22.06,22.06,0,0,0-6.02,15.3" transform="translate(-86.883 -90.519)" fill="#48baac"/>
      <path id="Trazado_629647" data-name="Trazado 629647" d="M167.194,94.626c-.013-.1-.026-.2-.04-.3,1.6-2.6,3.14-5.246,4.815-7.8a2.657,2.657,0,0,1,4.685.075c1.127,1.868,2.137,3.806,3.2,5.714a51.662,51.662,0,0,0-12.659,2.317" transform="translate(-112.401 -64.186)" fill="#f2a139"/>
      <path id="Trazado_629648" data-name="Trazado 629648" d="M156.444,296.051l-.167-.166.306.029c-.045.046-.092.092-.14.137" transform="translate(-105.778 -192.496)" fill="#a8b3bb"/>
      <rect id="Rectángulo_329036" data-name="Rectángulo 329036" width="16.174" height="20.956" transform="translate(5.049 78.405)" fill="#4e7db8"/>
      <path id="Trazado_629649" data-name="Trazado 629649" d="M61.851,313.359q-10.111,0-20.223-.012a3.134,3.134,0,0,1-1.82-.305c-.526-.435-1.116-1.312-1-1.861.129-.629.959-1.155,1.563-1.624.217-.168.663-.047,1.005-.047H82.405c.342,0,.784-.122,1.006.044.612.458,1.5.988,1.584,1.588s-.548,1.453-1.092,1.948c-.351.32-1.107.259-1.682.26q-10.185.023-20.37.01" transform="translate(-34.243 -200.765)" fill="#364b5f"/>
      <path id="Trazado_629650" data-name="Trazado 629650" d="M62.056,328.6H41.828c-.44,0-1,.155-1.293-.056-.612-.436-1.44-1.027-1.511-1.632s.563-1.424,1.094-1.936c.3-.292,1.017-.21,1.545-.21q20.374-.014,40.748,0c.529,0,1.24-.087,1.547.2.535.506,1.177,1.314,1.112,1.924s-.886,1.207-1.493,1.649c-.291.212-.854.057-1.293.057q-10.114,0-20.228,0" transform="translate(-34.382 -210.072)" fill="#35495e"/>
      <path id="Trazado_629651" data-name="Trazado 629651" d="M167.073,52.1a4.653,4.653,0,0,1-4.717,4.719,4.811,4.811,0,0,1-4.7-4.8,4.872,4.872,0,0,1,4.706-4.668,4.723,4.723,0,0,1,4.71,4.753" transform="translate(-106.618 -41.169)" fill="#fccf61"/>
      <path id="Trazado_629652" data-name="Trazado 629652" d="M280.894,112.068h-2.67a7.659,7.659,0,0,1-3.062-10.7,5.01,5.01,0,0,1,5.13-2.406,4.793,4.793,0,0,1,4.209,3.747,20.431,20.431,0,0,1,.127,5.079c-.2,2.238-1.772,3.474-3.734,4.276" transform="translate(-177.509 -72.571)" fill="#f2a239"/>
      <path id="Trazado_629653" data-name="Trazado 629653" d="M143.243,179.143a22.06,22.06,0,0,1,6.02-15.3,2.9,2.9,0,0,1,1.8-1.04c.636.008,1.667.546,1.8,1.046a2.89,2.89,0,0,1-.55,2.326,18.825,18.825,0,0,0-5.185,13.46,18.371,18.371,0,0,0,4.8,12.129c.226.256.49.483.7.753a1.814,1.814,0,0,1-.083,2.64,1.838,1.838,0,0,1-2.758-.036,18.925,18.925,0,0,1-4.972-7.684c-.849-2.669-1.32-5.457-1.958-8.193l.388-.1" transform="translate(-97.606 -111.467)" fill="#fbfdfd"/>
    </g>
  </g>
</svg>
