<svg xmlns="http://www.w3.org/2000/svg" width="139.337" height="130.234" viewBox="0 0 139.337 130.234">
  <g id="Grupo_895164" data-name="Grupo 895164" transform="translate(-11.977 -23.702)">
    <g id="Grupo_895165" data-name="Grupo 895165" transform="translate(11.977 23.702)">
      <path id="Trazado_629655" data-name="Trazado 629655" d="M81.651,153.9c-15.878.785-30.447-3.088-43.245-12.654-14.027-10.486-22.8-24.383-25.52-41.758-3.307-21.12,2.421-39.644,16.971-55.319A63.63,63.63,0,0,1,63.934,25.137a72.146,72.146,0,0,1,17.719-1.208c2.8.382,5.63.587,8.381,1.177A64.465,64.465,0,0,1,119.98,40.062a65.807,65.807,0,0,1,13.411,16.4,64.9,64.9,0,0,1,8.577,28.385,63.734,63.734,0,0,1-1.655,19.08A65.226,65.226,0,0,1,103.231,148.5a57.131,57.131,0,0,1-14.2,4.327c-2.456.376-4.917.718-7.376,1.076m4.608-55.885V79.286c0-4.289,0-4.289-4.292-4.289q-9.144,0-18.289,0c-1.824,0-2.928.9-2.912,2.319s1.115,2.264,2.955,2.28c.484,0,.968,0,1.451,0,2.131.005,2.548.415,2.548,2.531q0,15.9,0,31.793c0,1.645.022,3.291-.007,4.936a2.352,2.352,0,0,1-2.615,2.6c-.725.019-1.457-.045-2.175.029a2.281,2.281,0,0,0-.041,4.551,5.981,5.981,0,0,0,1.014.024H90.023a8.29,8.29,0,0,0,1.015-.019,2.391,2.391,0,0,0,2.174-2.318,2.36,2.36,0,0,0-2.244-2.25c-.528-.05-1.064-.014-1.6-.015-2.377-.009-3.112-.739-3.113-3.121q-.005-10.162,0-20.325m-9.3-46.246a9.269,9.269,0,1,0,9.294,9.205,9.346,9.346,0,0,0-9.294-9.205" transform="translate(-11.977 -23.796)" fill="#ced371" opacity="0.7"/>
      <path id="Trazado_629656" data-name="Trazado 629656" d="M192,153.805c2.459-.358,4.92-.7,7.376-1.076a57.131,57.131,0,0,0,14.2-4.327,65.264,65.264,0,0,0,38.737-63.644,64.889,64.889,0,0,0-8.577-28.385,65.8,65.8,0,0,0-13.411-16.4,64.459,64.459,0,0,0-29.944-14.957c-2.751-.59-5.586-.795-8.381-1.177,37.87-2.372,69.725,27.378,69.66,65.056A65.238,65.238,0,0,1,192,153.805" transform="translate(-122.328 -23.702)" fill="#ced371"/>
      <path id="Trazado_629657" data-name="Trazado 629657" d="M163.531,179.009q0,10.162,0,20.325c0,2.382.736,3.112,3.113,3.121.532,0,1.068-.034,1.6.015a2.36,2.36,0,0,1,2.244,2.25,2.391,2.391,0,0,1-2.174,2.318,8.29,8.29,0,0,1-1.015.019H141.169a5.981,5.981,0,0,1-1.014-.024,2.281,2.281,0,0,1,.041-4.551c.718-.074,1.45-.01,2.175-.029a2.352,2.352,0,0,0,2.615-2.6c.029-1.644.007-3.29.007-4.936q0-15.9,0-31.793c0-2.116-.418-2.525-2.548-2.531-.484,0-.968,0-1.451,0-1.839-.016-2.939-.866-2.955-2.28S139.126,156,140.951,156q9.145-.011,18.288,0c4.292,0,4.292,0,4.292,4.289v18.728" transform="translate(-89.249 -104.792)" fill="#fff"/>
      <path id="Trazado_629658" data-name="Trazado 629658" d="M165.254,95.974a9.269,9.269,0,1,1-9.24,9.258,9.343,9.343,0,0,1,9.24-9.258" transform="translate(-100.268 -68.003)" fill="#fff"/>
    </g>
  </g>
</svg>
