<svg xmlns="http://www.w3.org/2000/svg" width="94.183" height="94.183" viewBox="0 0 94.183 94.183">
  <g id="Grupo_895157" data-name="Grupo 895157" transform="translate(-216.649 -215.673)">
    <g id="Grupo_895139" data-name="Grupo 895139" transform="translate(216.649 215.673)">
      <circle id="Elipse_6827" data-name="Elipse 6827" cx="33.299" cy="33.299" r="33.299" transform="translate(0 47.091) rotate(-45)" fill="#ffb500"/>
    </g>
    <g id="Grupo_895140" data-name="Grupo 895140" transform="translate(248.672 247.828)">
      <path id="Trazado_629634" data-name="Trazado 629634" d="M295.985,327.823l-4.41-4.263,31.457-32.652,4.457,4.138Z" transform="translate(-291.575 -290.908)" fill="#a3314f"/>
    </g>
    <g id="Grupo_895141" data-name="Grupo 895141" transform="translate(241.426 267.095)">
      <path id="Trazado_629635" data-name="Trazado 629635" d="M274.622,342.285l2.512-6.3,11.591,11.73-3.917,4.448Z" transform="translate(-274.622 -335.988)" fill="#a3314f"/>
    </g>
    <g id="Grupo_895142" data-name="Grupo 895142" transform="translate(272.231 233.906)">
      <path id="Trazado_629636" data-name="Trazado 629636" d="M346.7,265.332l24.646-7-4.712,25.506Z" transform="translate(-346.697 -258.334)" fill="#a3314f"/>
    </g>
    <g id="Grupo_895143" data-name="Grupo 895143" transform="translate(222.525 267.095)">
      <path id="Trazado_629637" data-name="Trazado 629637" d="M235.1,363.31l-4.7-4.25,21.414-23.072,4.281,4.365Z" transform="translate(-230.397 -335.988)" fill="#a3314f"/>
    </g>
    <g id="Grupo_895156" data-name="Grupo 895156" transform="translate(238.137 235.708)">
      <g id="Grupo_895145" data-name="Grupo 895145" transform="translate(0 14.683)">
        <g id="Grupo_895144" data-name="Grupo 895144">
          <rect id="Rectángulo_329031" data-name="Rectángulo 329031" width="5.262" height="4.583" fill="#8cb3de"/>
        </g>
      </g>
      <g id="Grupo_895147" data-name="Grupo 895147" transform="translate(5.22 11.118)">
        <g id="Grupo_895146" data-name="Grupo 895146">
          <rect id="Rectángulo_329032" data-name="Rectángulo 329032" width="5.262" height="8.148" fill="#2b79e6"/>
        </g>
      </g>
      <g id="Grupo_895150" data-name="Grupo 895150" transform="translate(10.439 7.356)">
        <g id="Grupo_895149" data-name="Grupo 895149">
          <g id="Grupo_895148" data-name="Grupo 895148">
            <rect id="Rectángulo_329033" data-name="Rectángulo 329033" width="5.262" height="11.911" fill="#61b3db"/>
          </g>
        </g>
      </g>
      <g id="Grupo_895153" data-name="Grupo 895153" transform="translate(15.659 3.692)">
        <g id="Grupo_895152" data-name="Grupo 895152">
          <g id="Grupo_895151" data-name="Grupo 895151">
            <rect id="Rectángulo_329034" data-name="Rectángulo 329034" width="5.262" height="15.574" fill="#29266b"/>
          </g>
        </g>
      </g>
      <g id="Grupo_895155" data-name="Grupo 895155" transform="translate(20.879 0)">
        <g id="Grupo_895154" data-name="Grupo 895154">
          <rect id="Rectángulo_329035" data-name="Rectángulo 329035" width="5.262" height="19.266" fill="#ff645f"/>
        </g>
      </g>
    </g>
  </g>
</svg>
