<svg xmlns="http://www.w3.org/2000/svg" width="112" height="112" viewBox="0 0 112 112">
  <g id="Grupo_891877" data-name="Grupo 891877" transform="translate(-599 -2631)">
    <g id="Layer_2" data-name="Layer 2" transform="translate(599 2631)">
      <g id="_22.Circle_Solid_Gradient_Shadow" data-name="22.Circle_Solid_Gradient_Shadow">
        <g id="_10" data-name="10">
          <path id="Trazado_628380" data-name="Trazado 628380" d="M56,0A56,56,0,1,1,0,56,56,56,0,0,1,56,0Z" fill="#9ea257"/>
          <path id="Trazado_628375" data-name="Trazado 628375" d="M130.208,203.661l-5.828-5.831h5.828Z" transform="translate(-96.519 -153.516)" fill="#5e6034"/>
          <path id="Trazado_628376" data-name="Trazado 628376" d="M272.543,213.136a38.185,38.185,0,0,1-.473-6.624,25.355,25.355,0,0,1,1.3-9.153q1.294-3.209,5.356-3.21t5.358,3.21a25.429,25.429,0,0,1,1.295,9.153,38.525,38.525,0,0,1-.47,6.624,8.472,8.472,0,0,1-1.913,4.238,6.434,6.434,0,0,1-8.537,0A8.447,8.447,0,0,1,272.543,213.136Z" transform="translate(-211.126 -150.66)" fill="#5e6034"/>
          <path id="Trazado_628377" data-name="Trazado 628377" d="M227.028,190.755a56.061,56.061,0,0,1-43.586,41.3L150.4,199.017h10.479V156.04l8.812,8.814a33.608,33.608,0,0,0-1.926,12.085q0,10.245,3.916,16.072t12.627,5.828q8.712,0,12.629-5.828t3.913-16.072q0-10.124-3.913-15.953a12.685,12.685,0,0,0-1.185-1.508Z" transform="translate(-116.71 -121.087)" fill="#5e6034"/>
          <g id="Grupo_891876" data-name="Grupo 891876" transform="translate(27.86 34.07)">
            <path id="Trazado_628378" data-name="Trazado 628378" d="M124.377,165.405v-9.36h16.307v42.976H130.206V165.405Z" transform="translate(-124.377 -155.161)" fill="#fff"/>
            <path id="Trazado_628379" data-name="Trazado 628379" d="M231.838,157.929q3.914-5.829,12.628-5.829t12.628,5.828q3.914,5.828,3.915,15.954,0,10.243-3.915,16.071t-12.628,5.828q-8.714,0-12.628-5.828t-3.915-16.071Q227.923,163.758,231.838,157.929Zm17.985,6.8q-1.3-3.208-5.357-3.209t-5.357,3.209a25.382,25.382,0,0,0-1.3,9.154,38.518,38.518,0,0,0,.47,6.623,8.475,8.475,0,0,0,1.913,4.239,6.436,6.436,0,0,0,8.536,0,8.477,8.477,0,0,0,1.913-4.239,38.412,38.412,0,0,0,.47-6.623A25.377,25.377,0,0,0,249.823,164.728Z" transform="translate(-204.729 -152.1)" fill="#fff"/>
          </g>
        </g>
      </g>
    </g>
  </g>
</svg>
