<svg xmlns="http://www.w3.org/2000/svg" width="558.867" height="64.298" viewBox="0 0 558.867 64.298">
  <g id="Grupo_895183" data-name="Grupo 895183" transform="translate(-557.445 -13657.647)">
    <g id="Grupo_895182" data-name="Grupo 895182" transform="translate(55 -10)">
      <g id="Grupo_892038" data-name="Grupo 892038" transform="translate(0 109.06)">
        <g id="Grupo_892037" data-name="Grupo 892037">
          <path id="Trazado_629700" data-name="Trazado 629700" d="M7.766,17H6.484V15.734H6.453a2.631,2.631,0,0,1-2.469,1.453q-2.859,0-2.859-3.406V9H2.4v4.578q0,2.531,1.938,2.531a1.96,1.96,0,0,0,1.543-.691,2.645,2.645,0,0,0,.605-1.809V9H7.766ZM6.563,4.922,4.516,7.484H3.523L5.266,4.922ZM11.633,17H10.352V5.156h1.281Zm6.3-.078a2.47,2.47,0,0,1-1.2.25q-2.1,0-2.1-2.344V10.094H13.266V9h1.375V7.047l1.281-.414V9h2.016v1.094H15.922V14.6A1.869,1.869,0,0,0,16.2,15.75a1.091,1.091,0,0,0,.906.344,1.347,1.347,0,0,0,.836-.266ZM20.3,6.969a.812.812,0,0,1-.586-.234.791.791,0,0,1-.242-.594A.821.821,0,0,1,20.3,5.3a.827.827,0,0,1,.6.238.835.835,0,0,1,0,1.184A.82.82,0,0,1,20.3,6.969ZM20.93,17H19.648V9H20.93Zm13.953,0H33.6V12.406a3.466,3.466,0,0,0-.41-1.922,1.555,1.555,0,0,0-1.379-.594,1.708,1.708,0,0,0-1.395.75,2.869,2.869,0,0,0-.574,1.8V17H28.563V12.25q0-2.359-1.82-2.359a1.686,1.686,0,0,0-1.391.707,2.923,2.923,0,0,0-.547,1.84V17H23.523V9H24.8v1.266h.031A2.718,2.718,0,0,1,27.32,8.813a2.311,2.311,0,0,1,2.266,1.656,2.855,2.855,0,0,1,2.656-1.656q2.641,0,2.641,3.258Zm5.766.188a3.711,3.711,0,0,1-2.832-1.121,4.153,4.153,0,0,1-1.059-2.973,4.326,4.326,0,0,1,1.1-3.148,3.96,3.96,0,0,1,2.977-1.133,3.588,3.588,0,0,1,2.793,1.1,4.368,4.368,0,0,1,1,3.055,4.3,4.3,0,0,1-1.082,3.066A3.791,3.791,0,0,1,40.648,17.188Zm.094-7.3a2.437,2.437,0,0,0-1.953.84,3.449,3.449,0,0,0-.719,2.316,3.262,3.262,0,0,0,.727,2.242,2.469,2.469,0,0,0,1.945.82,2.342,2.342,0,0,0,1.91-.8,3.492,3.492,0,0,0,.668-2.289,3.552,3.552,0,0,0-.668-2.312A2.332,2.332,0,0,0,40.742,9.891ZM57.891,17H56.609V15.641h-.031a2.958,2.958,0,0,1-2.75,1.547,2.988,2.988,0,0,1-2.41-1.074,4.407,4.407,0,0,1-.9-2.926,4.794,4.794,0,0,1,1-3.18,3.3,3.3,0,0,1,2.664-1.2,2.564,2.564,0,0,1,2.4,1.3h.031V5.156h1.281Zm-1.281-3.617V12.2a2.289,2.289,0,0,0-.641-1.641,2.149,2.149,0,0,0-1.625-.672,2.212,2.212,0,0,0-1.844.859,3.766,3.766,0,0,0-.672,2.375,3.387,3.387,0,0,0,.645,2.184,2.107,2.107,0,0,0,1.73.8,2.188,2.188,0,0,0,1.738-.773A2.882,2.882,0,0,0,56.609,13.383ZM66.211,17H64.93V15.75H64.9a2.682,2.682,0,0,1-2.461,1.438,2.63,2.63,0,0,1-1.871-.633,2.192,2.192,0,0,1-.676-1.68q0-2.242,2.641-2.609l2.4-.336q0-2.039-1.648-2.039a3.938,3.938,0,0,0-2.609.984V9.563a4.958,4.958,0,0,1,2.719-.75q2.82,0,2.82,2.984ZM64.93,12.953,63,13.219a3.133,3.133,0,0,0-1.344.441,1.273,1.273,0,0,0-.453,1.121,1.221,1.221,0,0,0,.418.957,1.615,1.615,0,0,0,1.113.371,2.056,2.056,0,0,0,1.574-.668,2.387,2.387,0,0,0,.621-1.691Zm7.406,3.969a2.47,2.47,0,0,1-1.2.25q-2.1,0-2.1-2.344V10.094H67.664V9h1.375V7.047l1.281-.414V9h2.016v1.094H70.32V14.6a1.869,1.869,0,0,0,.273,1.148,1.091,1.091,0,0,0,.906.344,1.347,1.347,0,0,0,.836-.266Zm5.055.266a3.711,3.711,0,0,1-2.832-1.121A4.153,4.153,0,0,1,73.5,13.094a4.326,4.326,0,0,1,1.1-3.148,3.96,3.96,0,0,1,2.977-1.133,3.588,3.588,0,0,1,2.793,1.1,4.368,4.368,0,0,1,1,3.055,4.3,4.3,0,0,1-1.082,3.066A3.791,3.791,0,0,1,77.391,17.188Zm.094-7.3a2.437,2.437,0,0,0-1.953.84,3.449,3.449,0,0,0-.719,2.316,3.262,3.262,0,0,0,.727,2.242,2.469,2.469,0,0,0,1.945.82,2.342,2.342,0,0,0,1.91-.8,3.492,3.492,0,0,0,.668-2.289,3.552,3.552,0,0,0-.668-2.312A2.332,2.332,0,0,0,77.484,9.891ZM94.633,17H93.352V15.641H93.32a2.958,2.958,0,0,1-2.75,1.547,2.988,2.988,0,0,1-2.41-1.074,4.407,4.407,0,0,1-.9-2.926,4.794,4.794,0,0,1,1-3.18,3.3,3.3,0,0,1,2.664-1.2,2.564,2.564,0,0,1,2.4,1.3h.031V5.156h1.281Zm-1.281-3.617V12.2a2.289,2.289,0,0,0-.641-1.641,2.149,2.149,0,0,0-1.625-.672,2.212,2.212,0,0,0-1.844.859,3.766,3.766,0,0,0-.672,2.375,3.387,3.387,0,0,0,.645,2.184,2.107,2.107,0,0,0,1.73.8,2.188,2.188,0,0,0,1.738-.773A2.882,2.882,0,0,0,93.352,13.383Zm4.531-6.414a.812.812,0,0,1-.586-.234.791.791,0,0,1-.242-.594.821.821,0,0,1,.828-.836.827.827,0,0,1,.6.238.835.835,0,0,1,0,1.184A.82.82,0,0,1,97.883,6.969ZM98.508,17H97.227V9h1.281Zm2.109-.289V15.336a3.792,3.792,0,0,0,2.3.773q1.688,0,1.688-1.125a.976.976,0,0,0-.145-.543,1.44,1.44,0,0,0-.391-.395,3.007,3.007,0,0,0-.578-.309q-.332-.137-.715-.285a9.207,9.207,0,0,1-.934-.426,2.82,2.82,0,0,1-.672-.484,1.8,1.8,0,0,1-.406-.613,2.17,2.17,0,0,1-.137-.8,1.912,1.912,0,0,1,.258-1,2.286,2.286,0,0,1,.688-.727,3.206,3.206,0,0,1,.98-.441,4.349,4.349,0,0,1,1.137-.148,4.59,4.59,0,0,1,1.859.359v1.3a3.624,3.624,0,0,0-2.031-.578,2.374,2.374,0,0,0-.648.082,1.587,1.587,0,0,0-.5.23,1.065,1.065,0,0,0-.32.355.936.936,0,0,0-.113.457,1.1,1.1,0,0,0,.113.523,1.152,1.152,0,0,0,.332.375,2.538,2.538,0,0,0,.531.3q.313.133.711.289a9.9,9.9,0,0,1,.953.418,3.269,3.269,0,0,1,.719.484,1.893,1.893,0,0,1,.457.621,2,2,0,0,1,.16.836,1.971,1.971,0,0,1-.262,1.031,2.243,2.243,0,0,1-.7.727,3.2,3.2,0,0,1-1.008.43,4.976,4.976,0,0,1-1.2.141A4.539,4.539,0,0,1,100.617,16.711Zm8.586-.867h-.031V20.68h-1.281V9h1.281v1.406h.031a3.03,3.03,0,0,1,2.766-1.594,2.93,2.93,0,0,1,2.414,1.074,4.449,4.449,0,0,1,.867,2.879,4.959,4.959,0,0,1-.977,3.215,3.251,3.251,0,0,1-2.672,1.207A2.676,2.676,0,0,1,109.2,15.844Zm-.031-3.227v1.117a2.379,2.379,0,0,0,.645,1.684,2.3,2.3,0,0,0,3.461-.2,4.086,4.086,0,0,0,.66-2.477,3.225,3.225,0,0,0-.617-2.094,2.043,2.043,0,0,0-1.672-.758,2.27,2.27,0,0,0-1.8.777A2.854,2.854,0,0,0,109.172,12.617Zm11.469,4.57a3.711,3.711,0,0,1-2.832-1.121,4.153,4.153,0,0,1-1.059-2.973,4.326,4.326,0,0,1,1.1-3.148,3.96,3.96,0,0,1,2.977-1.133,3.588,3.588,0,0,1,2.793,1.1,4.368,4.368,0,0,1,1,3.055,4.3,4.3,0,0,1-1.082,3.066A3.791,3.791,0,0,1,120.641,17.188Zm.094-7.3a2.437,2.437,0,0,0-1.953.84,3.449,3.449,0,0,0-.719,2.316,3.262,3.262,0,0,0,.727,2.242,2.469,2.469,0,0,0,1.945.82,2.342,2.342,0,0,0,1.91-.8,3.492,3.492,0,0,0,.668-2.289,3.552,3.552,0,0,0-.668-2.312A2.332,2.332,0,0,0,120.734,9.891ZM133.313,17h-1.281V12.438q0-2.547-1.859-2.547a2.017,2.017,0,0,0-1.59.723,2.679,2.679,0,0,0-.629,1.824V17h-1.281V9h1.281v1.328h.031a2.887,2.887,0,0,1,2.625-1.516,2.448,2.448,0,0,1,2.008.848,3.776,3.776,0,0,1,.7,2.449Zm3.07-10.031a.812.812,0,0,1-.586-.234.791.791,0,0,1-.242-.594.821.821,0,0,1,.828-.836.827.827,0,0,1,.6.238.835.835,0,0,1,0,1.184A.82.82,0,0,1,136.383,6.969ZM137.008,17h-1.281V9h1.281Zm3.906-1.156h-.031V17H139.6V5.156h1.281v5.25h.031a3.03,3.03,0,0,1,2.766-1.594,2.932,2.932,0,0,1,2.41,1.074,4.436,4.436,0,0,1,.871,2.879,4.958,4.958,0,0,1-.977,3.215,3.251,3.251,0,0,1-2.672,1.207A2.631,2.631,0,0,1,140.914,15.844Zm-.031-3.227v1.117a2.379,2.379,0,0,0,.645,1.684,2.3,2.3,0,0,0,3.461-.2,4.086,4.086,0,0,0,.66-2.477,3.225,3.225,0,0,0-.617-2.094,2.043,2.043,0,0,0-1.672-.758,2.27,2.27,0,0,0-1.8.777A2.854,2.854,0,0,0,140.883,12.617ZM150.289,17h-1.281V5.156h1.281Zm9.023-3.68h-5.648a2.992,2.992,0,0,0,.719,2.063,2.478,2.478,0,0,0,1.891.727,3.931,3.931,0,0,0,2.484-.891v1.2a4.643,4.643,0,0,1-2.789.766A3.381,3.381,0,0,1,153.3,16.1a4.461,4.461,0,0,1-.969-3.066,4.374,4.374,0,0,1,1.059-3.043,3.394,3.394,0,0,1,2.629-1.176,3.008,3.008,0,0,1,2.43,1.016,4.234,4.234,0,0,1,.859,2.82ZM158,12.234a2.607,2.607,0,0,0-.535-1.727A1.823,1.823,0,0,0,156,9.891a2.07,2.07,0,0,0-1.539.648,2.943,2.943,0,0,0-.781,1.7ZM12.656,67H11.375V62.406a3.466,3.466,0,0,0-.41-1.922,1.555,1.555,0,0,0-1.379-.594,1.708,1.708,0,0,0-1.395.75,2.869,2.869,0,0,0-.574,1.8V67H6.336V62.25q0-2.359-1.82-2.359a1.686,1.686,0,0,0-1.391.707,2.923,2.923,0,0,0-.547,1.84V67H1.3V59H2.578v1.266h.031a2.718,2.718,0,0,1,2.484-1.453,2.311,2.311,0,0,1,2.266,1.656,2.855,2.855,0,0,1,2.656-1.656q2.641,0,2.641,3.258Zm8.852-3.68H15.859a2.992,2.992,0,0,0,.719,2.063,2.478,2.478,0,0,0,1.891.727,3.931,3.931,0,0,0,2.484-.891v1.2a4.643,4.643,0,0,1-2.789.766A3.381,3.381,0,0,1,15.5,66.1a4.461,4.461,0,0,1-.969-3.066,4.375,4.375,0,0,1,1.059-3.043,3.394,3.394,0,0,1,2.629-1.176,3.008,3.008,0,0,1,2.43,1.016,4.234,4.234,0,0,1,.859,2.82ZM20.2,62.234a2.607,2.607,0,0,0-.535-1.727,1.823,1.823,0,0,0-1.465-.617,2.07,2.07,0,0,0-1.539.648,2.943,2.943,0,0,0-.781,1.7Zm6.961,4.688a2.47,2.47,0,0,1-1.2.25q-2.1,0-2.1-2.344V60.094H22.484V59h1.375V57.047l1.281-.414V59h2.016v1.094H25.141V64.6a1.869,1.869,0,0,0,.273,1.148,1.091,1.091,0,0,0,.906.344,1.347,1.347,0,0,0,.836-.266ZM34.594,67H33.313V65.75h-.031a2.682,2.682,0,0,1-2.461,1.438,2.63,2.63,0,0,1-1.871-.633,2.192,2.192,0,0,1-.676-1.68q0-2.242,2.641-2.609l2.4-.336q0-2.039-1.648-2.039a3.938,3.938,0,0,0-2.609.984V59.563a4.958,4.958,0,0,1,2.719-.75q2.82,0,2.82,2.984Zm-1.281-4.047-1.93.266a3.133,3.133,0,0,0-1.344.441,1.273,1.273,0,0,0-.453,1.121,1.221,1.221,0,0,0,.418.957,1.615,1.615,0,0,0,1.113.371,2.056,2.056,0,0,0,1.574-.668,2.387,2.387,0,0,0,.621-1.691ZM47.117,67H45.836V65.75H45.8a2.682,2.682,0,0,1-2.461,1.438,2.63,2.63,0,0,1-1.871-.633,2.192,2.192,0,0,1-.676-1.68q0-2.242,2.641-2.609l2.4-.336q0-2.039-1.648-2.039a3.938,3.938,0,0,0-2.609.984V59.563a4.958,4.958,0,0,1,2.719-.75q2.82,0,2.82,2.984Zm-1.281-4.047-1.93.266a3.133,3.133,0,0,0-1.344.441,1.273,1.273,0,0,0-.453,1.121,1.221,1.221,0,0,0,.418.957,1.615,1.615,0,0,0,1.113.371,2.056,2.056,0,0,0,1.574-.668,2.387,2.387,0,0,0,.621-1.691ZM56.172,67H54.891V62.438q0-2.547-1.859-2.547a2.017,2.017,0,0,0-1.59.723,2.679,2.679,0,0,0-.629,1.824V67H49.531V59h1.281v1.328h.031a2.887,2.887,0,0,1,2.625-1.516,2.448,2.448,0,0,1,2.008.848,3.776,3.776,0,0,1,.7,2.449Zm8.883,0H63.773V65.734h-.031a2.631,2.631,0,0,1-2.469,1.453q-2.859,0-2.859-3.406V59h1.273v4.578q0,2.531,1.938,2.531a1.96,1.96,0,0,0,1.543-.691,2.645,2.645,0,0,0,.605-1.809V59h1.281Zm8.313,0H72.086V65.75h-.031a2.682,2.682,0,0,1-2.461,1.438,2.63,2.63,0,0,1-1.871-.633,2.192,2.192,0,0,1-.676-1.68q0-2.242,2.641-2.609l2.4-.336q0-2.039-1.648-2.039a3.938,3.938,0,0,0-2.609.984V59.563a4.958,4.958,0,0,1,2.719-.75q2.82,0,2.82,2.984Zm-1.281-4.047-1.93.266a3.133,3.133,0,0,0-1.344.441,1.273,1.273,0,0,0-.453,1.121,1.221,1.221,0,0,0,.418.957,1.615,1.615,0,0,0,1.113.371,2.056,2.056,0,0,0,1.574-.668,2.387,2.387,0,0,0,.621-1.691ZM77.063,67H75.781V55.156h1.281Z" transform="translate(902 13553.666)" fill="#12263f"/>
          <path id="Trazado_629701" data-name="Trazado 629701" d="M12.779,19V12.092q0-.976.062-2.145l.026-.58h-.105q-.281,1.485-.431,2.057L10.477,19H6.908L4.966,11.512q-.079-.281-.413-2.145H4.447q.123,2.953.123,3.691V19H1.239V6.4H6.926l1.731,6.847a8.451,8.451,0,0,1,.163.857q.1.646.127,1H9q.1-.8.308-1.89L10.925,6.4h5.6V19ZM26.9,19l-.554-2.32H22.588L21.99,19h-4.1L22.228,6.4h4.711L31.025,19ZM24.513,9.139h-.088a6.123,6.123,0,0,1-.123.694q-.105.483-1.063,4.148h2.408l-.879-3.428A10.84,10.84,0,0,1,24.513,9.139Zm11.716,2.593a1.615,1.615,0,0,1-.567,1.288,2.3,2.3,0,0,1-1.551.488A2.155,2.155,0,0,1,32.634,13a1.617,1.617,0,0,1-.58-1.266,1.561,1.561,0,0,1,.567-1.252,2.639,2.639,0,0,1,3.032,0A1.551,1.551,0,0,1,36.229,11.731Zm0,5.7a1.634,1.634,0,0,1-.562,1.292,2.283,2.283,0,0,1-1.556.492,2.14,2.14,0,0,1-1.481-.514,1.636,1.636,0,0,1-.576-1.27,1.561,1.561,0,0,1,.567-1.252,2.639,2.639,0,0,1,3.032,0A1.551,1.551,0,0,1,36.229,17.436Z" transform="translate(856 13603.666)" fill="#6e2034"/>
          <path id="Trazado_629702" data-name="Trazado 629702" d="M12.226,13.243a6.378,6.378,0,0,1-1.384,4.5A5.6,5.6,0,0,1,6.574,19.22a5.357,5.357,0,0,1-4.083-1.472A6.239,6.239,0,0,1,1.1,13.313V6.4H4.913v7.058a3.264,3.264,0,0,0,.453,1.868,1.481,1.481,0,0,0,1.3.655,1.5,1.5,0,0,0,1.3-.615A3.1,3.1,0,0,0,8.4,13.542V6.4h3.823Zm14.221-.7a6.954,6.954,0,0,1-.8,3.388,5.542,5.542,0,0,1-2.3,2.272A7.189,7.189,0,0,1,19.9,19H14.563V6.4h5.221Q26.446,6.4,26.446,12.54Zm-4.034.035a3.627,3.627,0,0,0-.374-1.661,2.7,2.7,0,0,0-1.068-1.143,3.191,3.191,0,0,0-1.635-.4H18.36v6.662h1.063a2.736,2.736,0,0,0,2.175-.936A3.707,3.707,0,0,0,22.412,12.575Zm9.536-.844a1.615,1.615,0,0,1-.567,1.288,2.3,2.3,0,0,1-1.551.488A2.155,2.155,0,0,1,28.354,13a1.617,1.617,0,0,1-.58-1.266,1.561,1.561,0,0,1,.567-1.252,2.639,2.639,0,0,1,3.032,0A1.551,1.551,0,0,1,31.948,11.731Zm0,5.7a1.634,1.634,0,0,1-.562,1.292,2.283,2.283,0,0,1-1.556.492,2.14,2.14,0,0,1-1.481-.514,1.636,1.636,0,0,1-.576-1.27,1.561,1.561,0,0,1,.567-1.252,2.639,2.639,0,0,1,3.032,0A1.551,1.551,0,0,1,31.948,17.436Z" transform="translate(856 13553.666)" fill="#12263f"/>
        </g>
        <g id="Grupo_892036" data-name="Grupo 892036" transform="translate(17.322)">
          <path id="Trazado_629699" data-name="Trazado 629699" d="M9.141,19l-.554-2.32H4.825L4.228,19H.123L4.465,6.4H9.176L13.263,19ZM6.75,9.139H6.662a6.123,6.123,0,0,1-.123.694q-.105.483-1.063,4.148H7.884L7,10.554A10.84,10.84,0,0,1,6.75,9.139ZM20.953,19H16.506L13.5,10h3.9l1.1,4.913a11.366,11.366,0,0,1,.29,1.784h.053q.018-.176.048-.36T20.2,10h3.885Zm9.018,0V17.629h-.035a2.944,2.944,0,0,1-2.742,1.591,2.625,2.625,0,0,1-2-.756,2.808,2.808,0,0,1-.721-2.021q0-2.654,3.261-3.076l2.232-.29a.851.851,0,0,0-.4-.721,1.8,1.8,0,0,0-1.063-.281,7,7,0,0,0-3.19.861V10.5a8.535,8.535,0,0,1,1.828-.519,10.639,10.639,0,0,1,1.881-.2,4.722,4.722,0,0,1,3.327.98,4.368,4.368,0,0,1,1.033,3.274V19Zm-2.215-3.059a.83.83,0,0,0,.233.606.888.888,0,0,0,.664.237,1.18,1.18,0,0,0,.954-.439,1.7,1.7,0,0,0,.365-1.125v-.343l-1.266.176Q27.756,15.212,27.756,15.941ZM40.913,19V14.087a2.184,2.184,0,0,0-.25-1.2.915.915,0,0,0-.813-.365.88.88,0,0,0-.756.378,1.613,1.613,0,0,0-.272.967V19H35.077V10h3.744v1.406h.035a3.177,3.177,0,0,1,1.2-1.2A3.29,3.29,0,0,1,41.7,9.78q2.953,0,2.953,3.727V19Zm12.85-.255a3.529,3.529,0,0,1-1.134.343,10.719,10.719,0,0,1-1.784.132,5.488,5.488,0,0,1-2.544-.576,4.2,4.2,0,0,1-1.736-1.613,4.478,4.478,0,0,1-.615-2.329,5.1,5.1,0,0,1,.655-2.65,4.268,4.268,0,0,1,1.868-1.687,6.407,6.407,0,0,1,2.813-.584,9.839,9.839,0,0,1,1.578.114,2.411,2.411,0,0,1,.9.264v2.918a2.6,2.6,0,0,0-.809-.387,3.248,3.248,0,0,0-.976-.167,2.375,2.375,0,0,0-1.666.523,1.9,1.9,0,0,0-.567,1.472,1.868,1.868,0,0,0,.558,1.446,2.177,2.177,0,0,0,1.534.514,3.82,3.82,0,0,0,1.925-.5Zm4.72-3.182a1.265,1.265,0,0,0,.668.91,3.012,3.012,0,0,0,1.512.33,6.226,6.226,0,0,0,2.479-.5v2.373a8.908,8.908,0,0,1-3.3.545,5.214,5.214,0,0,1-3.665-1.2,4.277,4.277,0,0,1-1.31-3.313,5.467,5.467,0,0,1,.576-2.558,4.142,4.142,0,0,1,1.705-1.736,5.038,5.038,0,0,1,2.492-.628,4.9,4.9,0,0,1,2.391.545,3.63,3.63,0,0,1,1.507,1.529,4.906,4.906,0,0,1,.514,2.3v1.406Zm2.25-1.96q0-1.556-1.116-1.556a.944.944,0,0,0-.782.426,2.127,2.127,0,0,0-.369,1.129ZM5.889,44V42.629H5.854A2.944,2.944,0,0,1,3.111,44.22a2.625,2.625,0,0,1-2-.756A2.808,2.808,0,0,1,.4,41.442q0-2.654,3.261-3.076l2.232-.29a.851.851,0,0,0-.4-.721,1.8,1.8,0,0,0-1.063-.281,7,7,0,0,0-3.19.861V35.5a8.535,8.535,0,0,1,1.828-.519,10.639,10.639,0,0,1,1.881-.2,4.722,4.722,0,0,1,3.327.98,4.368,4.368,0,0,1,1.033,3.274V44ZM3.674,40.941a.83.83,0,0,0,.233.606.888.888,0,0,0,.664.237,1.18,1.18,0,0,0,.954-.439,1.7,1.7,0,0,0,.365-1.125v-.343l-1.266.176Q3.674,40.212,3.674,40.941ZM16.831,44V39.087a2.184,2.184,0,0,0-.25-1.2.915.915,0,0,0-.813-.365.88.88,0,0,0-.756.378,1.613,1.613,0,0,0-.272.967V44H11V35h3.744v1.406h.035a3.177,3.177,0,0,1,1.2-1.2,3.29,3.29,0,0,1,1.644-.426q2.953,0,2.953,3.727V44Zm11.162,0V42.611h-.035a4.926,4.926,0,0,1-.839.94,3.23,3.23,0,0,1-.844.483,2.983,2.983,0,0,1-1.094.185,2.722,2.722,0,0,1-2.25-.958,4.429,4.429,0,0,1-.773-2.83V35H25.9v5.15q0,1.327.993,1.327a.972.972,0,0,0,.822-.36,1.642,1.642,0,0,0,.277-1.02V35h3.744v9Zm10.529,0V42.629h-.035a2.944,2.944,0,0,1-2.742,1.591,2.625,2.625,0,0,1-2-.756,2.808,2.808,0,0,1-.721-2.021q0-2.654,3.261-3.076l2.232-.29a.851.851,0,0,0-.4-.721,1.8,1.8,0,0,0-1.063-.281,7,7,0,0,0-3.19.861V35.5a8.535,8.535,0,0,1,1.828-.519,10.639,10.639,0,0,1,1.881-.2,4.722,4.722,0,0,1,3.327.98,4.368,4.368,0,0,1,1.033,3.274V44Zm-2.215-3.059a.83.83,0,0,0,.233.606.888.888,0,0,0,.664.237,1.18,1.18,0,0,0,.954-.439,1.7,1.7,0,0,0,.365-1.125v-.343l-1.266.176Q36.308,40.212,36.308,40.941ZM43.629,44V30.676h3.744V44Zm9.615-7.269a1.615,1.615,0,0,1-.567,1.288,2.3,2.3,0,0,1-1.551.488A2.155,2.155,0,0,1,49.649,38a1.617,1.617,0,0,1-.58-1.266,1.561,1.561,0,0,1,.567-1.252,2.639,2.639,0,0,1,3.032,0A1.551,1.551,0,0,1,53.244,36.731Zm0,5.7a1.634,1.634,0,0,1-.562,1.292,2.283,2.283,0,0,1-1.556.492,2.14,2.14,0,0,1-1.481-.514,1.636,1.636,0,0,1-.576-1.27,1.561,1.561,0,0,1,.567-1.252,2.639,2.639,0,0,1,3.032,0A1.551,1.551,0,0,1,53.244,42.436Z" transform="translate(485 13576.235)" fill="#12263f"/>
          <path id="Trazado_629697" data-name="Trazado 629697" d="M17.234,13.243a6.378,6.378,0,0,1-1.384,4.5,5.6,5.6,0,0,1-4.267,1.472A5.357,5.357,0,0,1,7.5,17.748a6.239,6.239,0,0,1-1.393-4.434V6.4H9.922v7.058a3.264,3.264,0,0,0,.453,1.868,1.481,1.481,0,0,0,1.3.655,1.5,1.5,0,0,0,1.3-.615,3.1,3.1,0,0,0,.444-1.819V6.4h3.823Zm14.221-.7a6.954,6.954,0,0,1-.8,3.388,5.542,5.542,0,0,1-2.3,2.272,7.189,7.189,0,0,1-3.445.8H19.572V6.4h5.221Q31.455,6.4,31.455,12.54Zm-4.034.035a3.627,3.627,0,0,0-.374-1.661,2.7,2.7,0,0,0-1.068-1.143,3.191,3.191,0,0,0-1.635-.4h-.976v6.662h1.063a2.736,2.736,0,0,0,2.175-.936A3.707,3.707,0,0,0,27.421,12.575Z" transform="translate(622.909 13565.735)" fill="#12263f"/>
          <path id="Trazado_629696" data-name="Trazado 629696" d="M12.219,19l-1.564-3.454a2.412,2.412,0,0,1-.2-.637q-.048-.312-.075-.514h-.035q-.053.211-.123.554a3.814,3.814,0,0,1-.2.668L8.563,19H4.045l3.779-6.284L4.388,6.4H8.976L10.2,9.728a8.113,8.113,0,0,1,.308,1.23h.035a4.994,4.994,0,0,1,.325-1.248L12.29,6.4h4.228l-3.542,6.249L16.684,19Zm12.938,0V9.93a5.531,5.531,0,0,1-1.274.549,8.78,8.78,0,0,1-1.494.277V7.943a9.872,9.872,0,0,0,2.21-.637,11.407,11.407,0,0,0,2.1-1.191H28.9V19Zm15.451-6.407a8.305,8.305,0,0,1-1.235,4.935,4.187,4.187,0,0,1-3.608,1.692,4.292,4.292,0,0,1-3.625-1.556,7.872,7.872,0,0,1-1.2-4.816,8.077,8.077,0,0,1,1.3-4.966,4.432,4.432,0,0,1,3.749-1.7Q40.608,6.186,40.608,12.593Zm-3.691,0a10.672,10.672,0,0,0-.264-2.777q-.264-.9-.853-.9-1.151,0-1.151,3.85a10.71,10.71,0,0,0,.268,2.8q.268.91.848.91Q36.917,16.478,36.917,12.593Zm14.476,0a8.305,8.305,0,0,1-1.235,4.935,4.187,4.187,0,0,1-3.608,1.692,4.292,4.292,0,0,1-3.625-1.556,7.872,7.872,0,0,1-1.2-4.816,8.077,8.077,0,0,1,1.3-4.966,4.432,4.432,0,0,1,3.749-1.7Q51.392,6.186,51.392,12.593Zm-3.691,0a10.672,10.672,0,0,0-.264-2.777q-.264-.9-.853-.9-1.151,0-1.151,3.85a10.71,10.71,0,0,0,.268,2.8q.268.91.848.91Q47.7,16.478,47.7,12.593Z" transform="translate(675.909 13576.235)" fill="#12263f"/>
          <path id="Trazado_629698" data-name="Trazado 629698" d="M15.648,19V12.092q0-.976.062-2.145l.026-.58H15.63q-.281,1.485-.431,2.057L13.345,19H9.777L7.834,11.512q-.079-.281-.413-2.145H7.316q.123,2.953.123,3.691V19H4.108V6.4H9.794l1.731,6.847a8.451,8.451,0,0,1,.163.857q.1.646.127,1h.053q.1-.8.308-1.89L13.793,6.4h5.6V19Zm14.124,0-.554-2.32H25.457l-.6,2.32h-4.1L25.1,6.4h4.711L33.894,19ZM27.381,9.139h-.088a6.123,6.123,0,0,1-.123.694q-.105.483-1.063,4.148h2.408l-.879-3.428A10.84,10.84,0,0,1,27.381,9.139Z" transform="translate(622.909 13591.596)" fill="#a3314f"/>
          <path id="Trazado_628625" data-name="Trazado 628625" d="M-6887.242,1889.165h57.868" transform="translate(7499 11700)" fill="none" stroke="#000" stroke-linecap="round" stroke-width="2"/>
        </g>
      </g>
    </g>
  </g>
</svg>
