<svg xmlns="http://www.w3.org/2000/svg" xmlns:xlink="http://www.w3.org/1999/xlink" width="294.145" height="317.151" viewBox="0 0 294.145 317.151">
  <defs>
    <linearGradient id="linear-gradient" x1="1.048" y1="0.476" x2="0.367" y2="0.506" gradientUnits="objectBoundingBox">
      <stop offset="0" stop-color="#105b91"/>
      <stop offset="1" stop-color="#0a3c5f"/>
    </linearGradient>
    <linearGradient id="linear-gradient-2" x1="0.523" y1="0.419" x2="0.434" y2="0.731" gradientUnits="objectBoundingBox">
      <stop offset="0" stop-color="#8fba61"/>
      <stop offset="1" stop-color="#799c54"/>
    </linearGradient>
    <linearGradient id="linear-gradient-3" x1="0.651" y1="0.31" x2="0.342" y2="0.699" gradientUnits="objectBoundingBox">
      <stop offset="0" stop-color="#31adcc"/>
      <stop offset="1" stop-color="#198aa6"/>
    </linearGradient>
    <linearGradient id="linear-gradient-4" x1="0.506" y1="0.476" x2="0.493" y2="0.527" xlink:href="#linear-gradient-3"/>
    <linearGradient id="linear-gradient-5" x1="0.227" y1="0.316" x2="0.684" y2="0.625" xlink:href="#linear-gradient"/>
    <linearGradient id="linear-gradient-6" x1="0.252" y1="0.316" x2="0.664" y2="0.65" xlink:href="#linear-gradient"/>
    <linearGradient id="linear-gradient-7" x1="-0.531" y1="0.302" x2="0.861" y2="0.548" xlink:href="#linear-gradient"/>
    <linearGradient id="linear-gradient-8" x1="0.744" y1="0.224" x2="0.378" y2="0.738" gradientUnits="objectBoundingBox">
      <stop offset="0" stop-color="#632e40"/>
      <stop offset="1" stop-color="#48202d"/>
    </linearGradient>
    <linearGradient id="linear-gradient-9" x1="1" y1="0.057" x2="0.474" y2="0.59" gradientUnits="objectBoundingBox">
      <stop offset="0" stop-color="#ffd24c"/>
      <stop offset="1" stop-color="#f6a232"/>
    </linearGradient>
    <linearGradient id="linear-gradient-10" x1="0.431" y1="0.461" x2="0.514" y2="0.508" xlink:href="#linear-gradient-9"/>
    <linearGradient id="linear-gradient-11" x1="0.656" y1="0.389" x2="0.386" y2="0.581" gradientUnits="objectBoundingBox">
      <stop offset="0" stop-color="#fdd248"/>
      <stop offset="1" stop-color="#fabd23"/>
    </linearGradient>
    <linearGradient id="linear-gradient-12" x1="0.795" y1="0.444" x2="0.268" y2="0.821" xlink:href="#linear-gradient-3"/>
    <linearGradient id="linear-gradient-13" x1="0.991" y1="0.433" x2="0.735" y2="0.499" gradientUnits="objectBoundingBox">
      <stop offset="0" stop-color="#e8a476"/>
      <stop offset="1" stop-color="#f2b287"/>
    </linearGradient>
    <linearGradient id="linear-gradient-14" x1="0.842" y1="0.775" x2="-0.133" y2="0.078" xlink:href="#linear-gradient"/>
    <linearGradient id="linear-gradient-15" x1="0.695" y1="0.416" x2="-0.731" y2="0.82" gradientUnits="objectBoundingBox">
      <stop offset="0" stop-color="#072c47"/>
      <stop offset="1" stop-color="#104e7a"/>
    </linearGradient>
    <linearGradient id="linear-gradient-16" x1="0.376" y1="0.513" x2="0.574" y2="0.493" xlink:href="#linear-gradient"/>
    <linearGradient id="linear-gradient-17" x1="0.362" y1="0.337" x2="0.753" y2="0.693" xlink:href="#linear-gradient"/>
    <linearGradient id="linear-gradient-18" x1="0.414" y1="0.15" x2="0.573" y2="0.713" xlink:href="#linear-gradient-8"/>
    <linearGradient id="linear-gradient-19" x1="0.395" y1="0.597" x2="0.6" y2="0.526" xlink:href="#linear-gradient-13"/>
    <linearGradient id="linear-gradient-20" x1="0.355" y1="0.509" x2="-0.172" y2="0.091" xlink:href="#linear-gradient"/>
    <linearGradient id="linear-gradient-21" x1="0.652" y1="0.392" x2="0.376" y2="0.589" xlink:href="#linear-gradient-11"/>
  </defs>
  <g id="Grupo_891989" data-name="Grupo 891989" transform="translate(-1826.071 -1032.103)">
    <g id="Grupo_891938" data-name="Grupo 891938" transform="translate(1885.655 1032.824)">
      <path id="Trazado_628499" data-name="Trazado 628499" d="M2224.529,1704.069l-209.46-120.425c-1.623-.776-3.945-1.417-5.6-.592-1.507.751-3.988,2.3-5.085,2.9-.833.457-3.726,2.128-1.924,3.146,5.3,3,205.121,117.977,210.5,121.022a7.639,7.639,0,0,0,4.071.712,10.587,10.587,0,0,0,4.408-1.217l2.64-1.48a3.12,3.12,0,0,0,1.847-2.187C2225.991,1705.228,2225.525,1704.545,2224.529,1704.069Z" transform="translate(-2001.881 -1396.796)" fill="#c0d6ea" fill-rule="evenodd" opacity="0.8" style="mix-blend-mode: multiply;isolation: isolate"/>
      <g id="Grupo_891937" data-name="Grupo 891937" transform="translate(6.438 0)">
        <path id="Trazado_628500" data-name="Trazado 628500" d="M2233.026,1142.8c8.442,4.864,15.064,16.634,15.037,26.045l-.359,160.212c-.014,4.753-1.7,8.1-4.4,9.672l-3.857,2.32c-15.984-7.511-9.632-78.454-10.629-102.014l4.528-61.636c-3.807-6.653-18.455-12.459-15.036-26.046l-141.682-77.4-42.785-29.1h0c.183-1.1-1.154-6.5.037-7.225,1.332-.807,2.645-1.614,3.95-2.38,3.343-1.978,7.6-.755,10.733,1.05h0Z" transform="translate(-2029.14 -1034.231)" fill-rule="evenodd" fill="url(#linear-gradient)"/>
        <g id="Grupo_891936" data-name="Grupo 891936" transform="translate(0 2.359)">
          <path id="Trazado_628501" data-name="Trazado 628501" d="M2021.236,1051.885c.027-9.567,6.8-13.438,15.135-8.625l184.467,106.5c8.323,4.807,15.063,16.48,15.037,26.047l-.358,160.212c-.028,9.565-6.812,13.432-15.137,8.625l-184.465-106.5c-8.334-4.812-15.064-16.48-15.038-26.046Z" transform="translate(-2020.876 -1041.19)" fill-rule="evenodd" fill="url(#linear-gradient-2)"/>
          <path id="Trazado_628502" data-name="Trazado 628502" d="M2534.337,1317.837l25.654,14.811c8.324,4.807,15.064,16.48,15.037,26.047l-.358,160.212c-.028,9.565-6.812,13.432-15.137,8.625l-25.634-14.8Z" transform="translate(-2360.03 -1224.079)" fill="#8eb961" fill-rule="evenodd"/>
          <g id="Grupo_891935" data-name="Grupo 891935" transform="translate(0.676 0)">
            <path id="Trazado_628503" data-name="Trazado 628503" d="M2022.871,1048.57c1.429-7.084,7.528-9.522,14.819-5.311l184.467,106.5c7.282,4.206,13.353,13.668,14.739,22.376Z" transform="translate(-2022.871 -1041.19)" fill="#11639d" fill-rule="evenodd"/>
            <g id="Grupo_891934" data-name="Grupo 891934" transform="translate(7.291 4.201)">
              <path id="Trazado_628504" data-name="Trazado 628504" d="M2088.652,1080.21c-1.243-.717-2.253-.141-2.257,1.286a4.942,4.942,0,0,0,2.243,3.885c1.241.717,2.252.141,2.256-1.288A4.941,4.941,0,0,0,2088.652,1080.21Z" transform="translate(-2072.157 -1070.983)" fill="#1c87d5" fill-rule="evenodd"/>
              <path id="Trazado_628505" data-name="Trazado 628505" d="M2066.724,1065.9c-1.243-.718-2.252-.141-2.257,1.286a4.94,4.94,0,0,0,2.242,3.885c1.242.717,2.253.141,2.257-1.287A4.944,4.944,0,0,0,2066.724,1065.9Z" transform="translate(-2057.661 -1061.522)" fill="#1c87d5" fill-rule="evenodd"/>
              <path id="Trazado_628506" data-name="Trazado 628506" d="M2046.641,1053.9c-1.243-.717-2.252-.141-2.257,1.286a4.942,4.942,0,0,0,2.242,3.884c1.242.717,2.252.141,2.256-1.287A4.942,4.942,0,0,0,2046.641,1053.9Z" transform="translate(-2044.384 -1053.587)" fill="#1c87d5" fill-rule="evenodd"/>
            </g>
          </g>
        </g>
      </g>
    </g>
    <g id="Grupo_891939" data-name="Grupo 891939" transform="translate(2071.269 1159.04)">
      <path id="Trazado_628507" data-name="Trazado 628507" d="M2569.967,1440.322c-7.91-4.573-14.808-15.357-15.413-24.1s5.312-12.115,13.221-7.542,14.808,15.362,15.413,24.1-5.317,12.112-13.221,7.542Zm-.173-2.487c6.662,3.851,11.653,1.009,11.142-6.356s-6.328-16.456-12.989-20.307-11.653-1.005-11.143,6.356S2563.129,1433.981,2569.795,1437.835Z" transform="translate(-2552.833 -1406.646)" fill="#a8da74" fill-rule="evenodd"/>
      <path id="Trazado_628508" data-name="Trazado 628508" d="M2549.559,1502.518c0-1.4,1-1.956,2.222-1.229l27.646,15.621a4.971,4.971,0,0,1,2.208,3.861v2.779c0,1.4-1,1.955-2.222,1.229l-27.646-15.621a4.967,4.967,0,0,1-2.208-3.861Z" transform="translate(-2549.558 -1469.001)" fill="#a8da74" fill-rule="evenodd"/>
      <path id="Trazado_628509" data-name="Trazado 628509" d="M2550.74,1538.477c0-.635.452-.884,1-.556,8.044,4.545,21.228,11.966,29.271,16.51a2.247,2.247,0,0,1,1,1.746v1.256c0,.635-.452.884-1,.556-8.045-4.545-21.228-11.965-29.272-16.511a2.245,2.245,0,0,1-1-1.745Z" transform="translate(-2550.339 -1493.335)" fill="#a8da74" fill-rule="evenodd"/>
    </g>
    <g id="Grupo_891943" data-name="Grupo 891943" transform="translate(1864.988 1032.103)">
      <path id="Trazado_628510" data-name="Trazado 628510" d="M2022.008,1092.256l33.26,19.2.046,47.01-33.56-19.369Z" transform="translate(-1994.352 -1071.87)" fill="#b1c5da" fill-rule="evenodd" opacity="0.5" style="mix-blend-mode: multiply;isolation: isolate"/>
      <g id="Grupo_891942" data-name="Grupo 891942">
        <path id="Trazado_628511" data-name="Trazado 628511" d="M1979.889,1056.063a.662.662,0,1,1,.659-1.147l5.863,3.385a.662.662,0,0,1-.659,1.147l-5.863-3.385Zm8.82,5.11a.663.663,0,1,1,.665-1.147l3.259,1.882a.663.663,0,0,1-.665,1.147l-3.259-1.882Zm9.286,5.32,3.775,2.18-.127,44.275-59.416-34.282.128-44.271,34.367,19.842a.663.663,0,0,0,.665-1.148l-36.35-20.987q-.069,23.665-.137,47.328c21.317,12.3,40.748,23.5,62.06,35.808q.065-23.666.136-47.332l-4.436-2.562a.663.663,0,0,0-.665,1.147Z" transform="translate(-1940.901 -1032.103)" fill="#fff" fill-rule="evenodd"/>
        <path id="Trazado_628512" data-name="Trazado 628512" d="M1945.494,1048.38l56.146,32.415-.118,41.071-56.147-32.419Z" transform="translate(-1943.859 -1042.864)" fill-rule="evenodd" fill="url(#linear-gradient-3)"/>
        <g id="Grupo_891941" data-name="Grupo 891941" transform="translate(4.222 10.23)">
          <path id="Trazado_628513" data-name="Trazado 628513" d="M1954.148,1067.473l1.47-.848,1.458,2.54c.394.462.858.2.684-.42l-1.459-2.512,1.466-.849a.714.714,0,0,0-.68-1.153l-1.467.825h0l-1.458-2.512c-.33-.47-.882-.26-.684.363l1.455,2.535-1.465.825A.8.8,0,0,0,1954.148,1067.473Z" transform="translate(-1953.36 -1062.288)" fill="#fff" fill-rule="evenodd"/>
          <g id="Grupo_891940" data-name="Grupo 891940" transform="translate(17.683 20.194)">
            <path id="Trazado_628514" data-name="Trazado 628514" d="M2037.106,1142.875l.007-2.773-31.57-18.229-.008,2.777Z" transform="translate(-2005.536 -1121.874)" fill="#fff" fill-rule="evenodd"/>
            <path id="Trazado_628515" data-name="Trazado 628515" d="M2076.954,1148.542l-11.168-6.446-.008,2.772,11.165,6.445Z" transform="translate(-2045.361 -1135.243)" fill="#fff" fill-rule="evenodd"/>
            <path id="Trazado_628516" data-name="Trazado 628516" d="M2036.2,1157.263l21.162,12.219.008-2.772-21.162-12.219Z" transform="translate(-2025.808 -1143.437)" fill="#fff" fill-rule="evenodd"/>
          </g>
        </g>
      </g>
    </g>
    <g id="Grupo_891945" data-name="Grupo 891945" transform="translate(1897.54 1113.439)">
      <path id="Trazado_628517" data-name="Trazado 628517" d="M2043.122,1285.409a13.178,13.178,0,0,1-6.154-9.438c-.249-3.468,2.1-4.869,5.251-3.125a13.183,13.183,0,0,1,6.155,9.438C2048.623,1285.754,2046.27,1287.151,2043.122,1285.409Z" transform="translate(-2036.95 -1272.095)" fill="#a8da74" fill-rule="evenodd"/>
      <g id="Grupo_891944" data-name="Grupo 891944" transform="translate(14.459 5.773)">
        <path id="Trazado_628518" data-name="Trazado 628518" d="M2079.653,1300.587l-.006,2.135,19.006,10.854.006-2.137Z" transform="translate(-2079.635 -1296.704)" fill="#a8da74" fill-rule="evenodd"/>
        <path id="Trazado_628519" data-name="Trazado 628519" d="M2079.613,1313.92l8.6,4.962.006-2.134-8.6-4.962Z" transform="translate(-2079.613 -1304.107)" fill="#a8da74" fill-rule="evenodd"/>
        <path id="Trazado_628520" data-name="Trazado 628520" d="M2095.979,1298.536l-16.292-9.407-.005,2.134,16.292,9.406Z" transform="translate(-2079.659 -1289.129)" fill="#a8da74" fill-rule="evenodd"/>
      </g>
    </g>
    <g id="Grupo_891946" data-name="Grupo 891946" transform="translate(1899.441 1196.352)">
      <path id="Trazado_628521" data-name="Trazado 628521" d="M2042.749,1522.463c.015-5.119,3.64-7.191,8.1-4.616q71.039,40.745,142.034,81.536c4.455,2.573,8.061,8.82,8.047,13.939l-.192,4.924c-.014,5.119-3.645,7.188-8.1,4.616q-71.039-40.746-142.034-81.536c-4.461-2.575-8.062-8.82-8.047-13.939Z" transform="translate(-2042.557 -1516.74)" fill-rule="evenodd" fill="url(#linear-gradient-4)"/>
      <path id="Trazado_628522" data-name="Trazado 628522" d="M2054.331,1543.191c.006-1.888,1.343-2.652,2.987-1.7,17.465,10.017,125.036,72.113,142.5,82.129a6.547,6.547,0,0,1,2.968,5.141l-.07,1.816c-.006,1.888-1.344,2.651-2.987,1.7-17.465-10.017-125.035-72.113-142.5-82.129a6.54,6.54,0,0,1-2.967-5.139Z" transform="translate(-2050.294 -1532.831)" fill="#daeafa" fill-rule="evenodd" opacity="0.5"/>
      <path id="Trazado_628523" data-name="Trazado 628523" d="M2054.331,1543.191c.006-1.888,1.343-2.652,2.987-1.7,17.464,10.017,70.779,40.7,88.24,50.717a6.546,6.546,0,0,1,2.968,5.14l-.071,1.816c-.006,1.888-1.344,2.651-2.987,1.7-17.464-10.017-70.779-40.7-88.241-50.718a6.541,6.541,0,0,1-2.967-5.139Z" transform="translate(-2050.294 -1532.831)" fill="#daeafa" fill-rule="evenodd"/>
    </g>
    <g id="Grupo_891976" data-name="Grupo 891976" transform="translate(1901.793 1105.689)">
      <g id="Grupo_891970" data-name="Grupo 891970" transform="translate(0 0)">
        <path id="Trazado_628524" data-name="Trazado 628524" d="M2051.943,1756.445l25.867-14.732c2.82-1.288,6.856-2.314,9.729-.819,2.618,1.363,6.93,4.151,8.837,5.238,1.448.826,6.475,3.838,3.344,5.541-9.211,5.009-18.328,10.642-27.681,15.73a13.118,13.118,0,0,1-7.074,1.085,18.739,18.739,0,0,1-7.661-2.281l-4.587-2.67c-2.029-1.181-3.1-2.578-3.212-3.87C2049.4,1758.405,2050.213,1757.236,2051.943,1756.445Z" transform="translate(-2049.497 -1573.774)" fill="#cddeee" fill-rule="evenodd"/>
        <path id="Trazado_628525" data-name="Trazado 628525" d="M2414.619,1898.967l-26.609-15.042c-2.9-1.316-7.051-2.363-10.007-.836-2.693,1.391-7.129,4.238-9.09,5.348-1.49.844-6.662,3.919-3.441,5.657,9.477,5.115,18.854,10.867,28.476,16.062a13.59,13.59,0,0,0,7.277,1.107,19.367,19.367,0,0,0,7.88-2.329q2.4-1.385,4.719-2.726c2.087-1.206,3.194-2.632,3.3-3.951C2417.234,1900.968,2416.4,1899.774,2414.619,1898.967Z" transform="translate(-2257.698 -1667.766)" fill="#cddeee" fill-rule="evenodd"/>
        <g id="Grupo_891948" data-name="Grupo 891948" transform="translate(24.683 81.937)">
          <g id="Grupo_891947" data-name="Grupo 891947" transform="translate(25.43)">
            <path id="Trazado_628526" data-name="Trazado 628526" d="M2200.954,1494.96a1.484,1.484,0,0,1,.877-1.566,7.943,7.943,0,0,1,2.509,0c.258-.029,1.553-1.262,2.119-.124a13,13,0,0,1-1.747,1.253C2204,1494.689,2201.346,1495.51,2200.954,1494.96Z" transform="translate(-2199.732 -1492.177)" fill="#e7a376" fill-rule="evenodd"/>
            <path id="Trazado_628527" data-name="Trazado 628527" d="M2202.383,1493.295c-1.48-.086-2.542-1.364-3.652-.484a15.566,15.566,0,0,0-1.368,1.307,5.123,5.123,0,0,0,1.03,2.507,1.664,1.664,0,0,1,.5-.21,6.426,6.426,0,0,1,2.882.308c1.57.369,1.836.323,3.975-1.721,1.566-1.5,2.418-2.332,2.021-3.261C2206.839,1489.567,2204.456,1492.75,2202.383,1493.295Z" transform="translate(-2197.363 -1490.991)" fill="#e7a376" fill-rule="evenodd"/>
            <path id="Trazado_628528" data-name="Trazado 628528" d="M2199.811,1497.717c-.28.221-.532.438-.769.655a3.948,3.948,0,0,0,.46.685,1.661,1.661,0,0,1,.5-.21,6.42,6.42,0,0,1,2.882.308c1.571.368,1.836.323,3.975-1.721a8.426,8.426,0,0,0,2.027-2.349c.12-.312-.363-.6-.7-.277-1.5,1.423-2.347,2.643-3.9,3.243C2203.631,1498.306,2200.92,1496.837,2199.811,1497.717Z" transform="translate(-2198.473 -1493.421)" fill="#da9569" fill-rule="evenodd"/>
            <path id="Trazado_628529" data-name="Trazado 628529" d="M2204.86,1497.9c-.166.378.177.776-.163.638-1.8-.737-2.561-.678-3.617.349a5.029,5.029,0,0,1,3.917.136l.633.837C2205.351,1499.063,2205.122,1498.633,2204.86,1497.9Z" transform="translate(-2199.82 -1495.557)" fill="#da9569" fill-rule="evenodd"/>
          </g>
          <path id="Trazado_628530" data-name="Trazado 628530" d="M2125.159,1505.019c1.16-.245,2.877.422,4.325.5a70.916,70.916,0,0,1,7.651.422c.934-1.163,8.768-5.943,10.364-6.742a6.108,6.108,0,0,1,1.837,2.929c-2.654,2.168-5.389,5.59-7.977,7.286a11.911,11.911,0,0,1-1.667,1.362,16.427,16.427,0,0,1-3.888.852,60.131,60.131,0,0,1-9.759.709c-2.372-.163-3.012-1.022-3.4-2.092C2121.738,1507.754,2122.85,1505.508,2125.159,1505.019Z" transform="translate(-2122.329 -1496.417)" fill="#bcd4ef" fill-rule="evenodd"/>
        </g>
        <g id="Grupo_891955" data-name="Grupo 891955" transform="translate(10.699 75.138)">
          <g id="Grupo_891950" data-name="Grupo 891950" transform="translate(0 86.065)">
            <path id="Trazado_628531" data-name="Trazado 628531" d="M2093.205,1724.878a12.7,12.7,0,0,1-1.05,4.343c-.291.316-.652.507-.822.867-.908,1.931-1.107,3.791-.475,13.7l2.327.049.3-3.5c.288-1.419,1.085-3.5,1.407-4.782.7-2.8.769-4.206,1.2-6.268Z" transform="translate(-2087.297 -1724.878)" fill="#e7a376" fill-rule="evenodd"/>
            <g id="Grupo_891949" data-name="Grupo 891949" transform="translate(0 4.081)">
              <path id="Trazado_628532" data-name="Trazado 628532" d="M2082.093,1758.042a3.759,3.759,0,0,1-.787-.115c-.121-.134-.346-.791-.182-.915C2081.417,1756.818,2082.014,1757.852,2082.093,1758.042Z" transform="translate(-2081.066 -1750.187)" fill="#1f202b" fill-rule="evenodd"/>
              <path id="Trazado_628533" data-name="Trazado 628533" d="M2084.668,1748.405a4.523,4.523,0,0,1-.4,2.66c-.973,3.213-1.544,3.394-1.132,4.847a6.508,6.508,0,0,0,1.422,2.552,8.23,8.23,0,0,0,1.63,1.793c1.219.842,2.3,1.236,2.039-.454a8.117,8.117,0,0,0-.4-1.568c-.864-2.005-1.869-2.885-1.324-5.388.4-1.859,1.047-3.083.212-4.335Z" transform="translate(-2082.349 -1744.513)" fill="#1f202b" fill-rule="evenodd"/>
              <path id="Trazado_628534" data-name="Trazado 628534" d="M2083.691,1738.81a10.479,10.479,0,0,1-2.455,4.936c.194-.051.689.455.963,1.016,2.011-2.312,2.989-3.436,3.608-2.44a31.884,31.884,0,0,1-.622,3.526,3.521,3.521,0,0,0,.067,1.833c.79,1.9,2.239,4.664,1.685,5.569a3.28,3.28,0,0,0,.411-1.81c0-1.309-.226-3.081-.255-4.17-.037-1.471.519-2.748.608-4.753a15.778,15.778,0,0,0,0-1.679c-.084-1.417-.24-3.3-1.236-3.829a2.563,2.563,0,0,0-1.755.19A2.089,2.089,0,0,0,2083.691,1738.81Z" transform="translate(-2081.178 -1736.921)" fill="#0d4d7a" fill-rule="evenodd"/>
            </g>
          </g>
          <path id="Trazado_628535" data-name="Trazado 628535" d="M2107,1612.512l7.094-20.561.231-5.646a5.3,5.3,0,0,0-.737-2.3c-3.74,1.1-5.832,2.289-9.85,2.148-1.205,1.792-2.856,5.146-2.918,7.681-.119,4.937.269,8.231-1.24,16.484-4.483,15.092-2.157,14.568-3.873,24.6-.144,1.069,3.15,1.92,4.271,1.254Z" transform="translate(-2090.745 -1545.685)" fill-rule="evenodd" fill="url(#linear-gradient-5)"/>
          <path id="Trazado_628536" data-name="Trazado 628536" d="M2115.345,1612.512l7.094-20.561.231-5.646a5.3,5.3,0,0,0-.736-2.3c-3.74,1.1-1.2,5.346-5.222,5.2-1.4,1.47-2.505,5.978-2.278,11.167.063,1.436-2.583.269-2.977-.233.983,1.277,2.252,2.354,2.471,3.014.753,2.271.268,5.917-.543,8.95-1.352,2.644-5.039,11.315-5.062,24.059Z" transform="translate(-2099.085 -1545.685)" fill-rule="evenodd" opacity="0.5" fill="url(#linear-gradient-6)" style="mix-blend-mode: multiply;isolation: isolate"/>
          <g id="Grupo_891952" data-name="Grupo 891952" transform="translate(16.364 94.327)">
            <path id="Trazado_628537" data-name="Trazado 628537" d="M2133.719,1749.255c-.056,1.577-1.555,3.1-1.73,4.127-.4,2.351,1.3,1.129,3.229,4.151.771-.006,2.472,2.776,4.772,2.922a1.237,1.237,0,0,0,.428-2.155c-.465-.271-.88-.07-1.263-.4-.8-.705-1.738-6.5-1.552-8.167Z" transform="translate(-2131.055 -1749.255)" fill="#f0b186" fill-rule="evenodd"/>
            <g id="Grupo_891951" data-name="Grupo 891951" transform="translate(0 2.324)">
              <path id="Trazado_628538" data-name="Trazado 628538" d="M2131.135,1756.113c1.868.229,3.613,4.791,5.058,6.774.7.963,2.189-.03,1.585-.288a15.6,15.6,0,0,1,2.273.022c1.172.188.761,1.363-.036,1.913-1.774,1.225-3.348,1.915-4.956,1.1a7.593,7.593,0,0,1-.986-.656,4.908,4.908,0,0,1-.656-.531,17.979,17.979,0,0,1-1.2-2.483c-.157-.282-.286-.344-.388-.267a31.806,31.806,0,0,0,.1,5.2c-.053.235-.853.421-1.013.242l-1.484-7.285a2.6,2.6,0,0,1,.195-1.866A16.118,16.118,0,0,1,2131.135,1756.113Z" transform="translate(-2129.35 -1756.113)" fill="#0d4d7a" fill-rule="evenodd"/>
              <path id="Trazado_628539" data-name="Trazado 628539" d="M2141.087,1776.658a3.342,3.342,0,0,1-.951-.317,7.622,7.622,0,0,1-.986-.656,4.887,4.887,0,0,1-.656-.531c-.563-.676-.839-1.93-1.465-2.79.208-.129.754-.115,1.3.785a8.665,8.665,0,0,0,2.471,3.357A1.687,1.687,0,0,0,2141.087,1776.658Z" transform="translate(-2134.426 -1766.817)" fill="#1f202b" fill-rule="evenodd"/>
            </g>
          </g>
          <path id="Trazado_628540" data-name="Trazado 628540" d="M2140.522,1615.2a69.331,69.331,0,0,0,.9-12.652,15.36,15.36,0,0,0-1.972-7.887c-3.568,1.1-6.229,2.183-10.269,2.042a12.57,12.57,0,0,0-1.392,6.725c.419,4.936,2.349,8.624,2.9,17.44-1.388,9.866-.369,16.522-.167,26.083.023,1.069,3.45,1.92,4.467,1.253C2137.108,1637,2138.417,1626.151,2140.522,1615.2Z" transform="translate(-2111.925 -1552.728)" fill-rule="evenodd" fill="url(#linear-gradient-7)"/>
          <path id="Trazado_628541" data-name="Trazado 628541" d="M2114.7,1519.968c-4.177-.472-4.187,6.413-2.734,9.656,3.78,8.434,1.335,9.738,1.682,13.583l-.078,1.547c3.591,5.348,14,4.93,15.263,1.066-3.525-8.641,1.036-16.082.229-18.441a19.07,19.07,0,0,0-5.422-4.254A28.169,28.169,0,0,0,2114.7,1519.968Z" transform="translate(-2100.914 -1503.334)" fill="#daeafa" fill-rule="evenodd"/>
          <g id="Grupo_891954" data-name="Grupo 891954" transform="translate(0.297)">
            <g id="Grupo_891953" data-name="Grupo 891953" transform="translate(12.664 1.279)">
              <path id="Trazado_628542" data-name="Trazado 628542" d="M2122.377,1507.722c-.323,1.372,4.685,2.854,6.4,2.108l.036-.332c.443-2.047.877-3.786,1.184-5.223.8.34,2.757.439,2.929.166-5.28-4.217-11.454-7.335-12.248-5.206.523,1.542,1.875,2.638,2.551,3.643a3.156,3.156,0,0,1,.354,1.38h0A14.87,14.87,0,0,1,2122.377,1507.722Z" transform="translate(-2120.215 -1490.467)" fill="#da9569" fill-rule="evenodd"/>
              <path id="Trazado_628543" data-name="Trazado 628543" d="M2131.993,1488.7c-.455.3-3.687-.778-3.948-.765-2.515.125-5.221-.08-5.72-.822-.676-1-2.028-2.1-2.551-3.643-.836-2.465-.673-5.245,1.581-7.181,3.919-3.365,10.066-.9,10.947,2.912.361,1.564-.086,1.693-.013,2.74a16.187,16.187,0,0,1,.177,4.254C2132.4,1487.363,2132.295,1488.505,2131.993,1488.7Z" transform="translate(-2119.31 -1474.705)" fill="#e7a376" fill-rule="evenodd"/>
              <path id="Trazado_628544" data-name="Trazado 628544" d="M2125.9,1520.193c.138,1.249,3.651,2.128,5.783,1.632.228-.053.37-.1.452-.241a4.577,4.577,0,0,1,1.263,2.018c-1.842,1.776-7.662.734-8.369-1.345A1.565,1.565,0,0,1,2125.9,1520.193Z" transform="translate(-2123.014 -1504.777)" fill="#daeafa" fill-rule="evenodd"/>
            </g>
            <path id="Trazado_628545" data-name="Trazado 628545" d="M2086.84,1483.489c-3.562,2.8-5.832,7.848-4.525,10.709,1.185,2.594,3.826,4.12,2.667,5.762-.96,1.357-2.469,2.719-.236,4.91,1.15,1.128,3.938,4.155,10.216,2.587,6.12-1.528,12.437-6.427,8.184-12.385-3.822-5.356-1.394-7.549,2.015-12.241,1.8-2.481,3.617-7.385,2.372-9.209-2.135-3.128-4.143-.613-6.343-1.718-4.193-2.108-7.878-.6-10.175,2.7C2088.958,1477.551,2089.672,1481.261,2086.84,1483.489Z" transform="translate(-2081.942 -1470.931)" fill-rule="evenodd" fill="url(#linear-gradient-8)"/>
          </g>
        </g>
        <g id="Grupo_891958" data-name="Grupo 891958" transform="translate(34.452 87.077)">
          <path id="Trazado_628546" data-name="Trazado 628546" d="M2154.713,1534.651c1.165.222,3.141,1.645,3.986,1.939a61.054,61.054,0,0,1,7.188,2.653c2.815,1.04,3.431,4.66,1.022,5.373a16.455,16.455,0,0,1-3.967-.329,60.042,60.042,0,0,1-9.536-2.193c-2.219-.853-2.2-4.018-2.253-5.155C2151.9,1534.564,2152.917,1534.307,2154.713,1534.651Z" transform="translate(-2151.153 -1524.912)" fill="#daeafa" fill-rule="evenodd"/>
          <g id="Grupo_891957" data-name="Grupo 891957" transform="translate(13.115)">
            <g id="Grupo_891956" data-name="Grupo 891956" transform="translate(9.291)">
              <path id="Trazado_628547" data-name="Trazado 628547" d="M2221.6,1510.035c-1.4.478-2.869-.306-3.566.926a15.593,15.593,0,0,0-.774,1.727,5.117,5.117,0,0,0,1.9,1.935,1.661,1.661,0,0,1,.383-.382,6.418,6.418,0,0,1,2.785-.8c1.594-.25,1.823-.393,3.035-3.09.887-1.976,1.362-3.071.644-3.782C2224.328,1504.9,2223.32,1508.749,2221.6,1510.035Z" transform="translate(-2217.264 -1506.157)" fill="#e7a376" fill-rule="evenodd"/>
              <path id="Trazado_628548" data-name="Trazado 628548" d="M2224.922,1514.1c-1.4.477-2.916-.172-3.612,1.06-.175.311-.328.606-.466.9a3.976,3.976,0,0,0,.684.461,1.665,1.665,0,0,1,.383-.382,6.42,6.42,0,0,1,2.786-.8c1.594-.25,1.823-.393,3.035-3.091a8.4,8.4,0,0,0,.993-2.94c-.007-.334-.561-.416-.751.006C2226.992,1511.48,2226.638,1512.816,2224.922,1514.1Z" transform="translate(-2219.631 -1508.054)" fill="#da9569" fill-rule="evenodd"/>
              <path id="Trazado_628549" data-name="Trazado 628549" d="M2226.838,1508.106a9.318,9.318,0,0,1-2.186,3.013c-.371.354-.482.712-.98.858-.208.06-.45-.272-.767-.628-.011.413.141.773-.227.772-2.4,0-2.768.5-3.5,2.758l0,0c1.206-1.546,2.078-1.342,3.543-1.746l.94-.524A11.348,11.348,0,0,0,2226.838,1508.106Z" transform="translate(-2218.532 -1507.446)" fill="#da9569" fill-rule="evenodd"/>
            </g>
            <path id="Trazado_628550" data-name="Trazado 628550" d="M2190.55,1533.412c.617-1.357,7.021-7.93,8.37-9.1a6.121,6.121,0,0,1,2.505,2.382c-2.035,2.759-3.835,6.751-5.923,9.036-1.176,1.288-3.212,3.094-4.952,1.619C2189.647,1536.582,2189.587,1535.368,2190.55,1533.412Z" transform="translate(-2189.85 -1518.159)" fill="#daeafa" fill-rule="evenodd"/>
          </g>
        </g>
        <g id="Grupo_891961" data-name="Grupo 891961" transform="translate(35.13)">
          <g id="Grupo_891959" data-name="Grupo 891959">
            <path id="Trazado_628551" data-name="Trazado 628551" d="M2220.436,1254.078a39.578,39.578,0,0,0-15.2-4.762c-6.171-.437-9.847.7-15.177,3.8,13.1-7.582,40.482,11.493,49.407,22.289l3.441-2.344C2236.667,1265.512,2229.131,1258.658,2220.436,1254.078Z" transform="translate(-2177.553 -1249.226)" fill="#ffda63" fill-rule="evenodd"/>
            <path id="Trazado_628552" data-name="Trazado 628552" d="M2281.593,1407.734l-1.719,1,33.284-.524,4.29-1.638,1.719-1Z" transform="translate(-2236.926 -1352.585)" fill="#ffda63" fill-rule="evenodd"/>
            <path id="Trazado_628553" data-name="Trazado 628553" d="M2378.374,1405.572l-1.719,1c-1.5,13.558,7.362,45.953-7.22,54.484,7.109-3.992,10.876-9.309,12.869-17.065a42.253,42.253,0,0,0,1.069-5.993C2384.513,1427.111,2382.185,1415.687,2378.374,1405.572Z" transform="translate(-2296.133 -1352.585)" fill-rule="evenodd" fill="url(#linear-gradient-9)"/>
            <path id="Trazado_628554" data-name="Trazado 628554" d="M2299.5,1321.18l-19.63,30.685,1.719-1,20.692-31.316Z" transform="translate(-2236.926 -1295.716)" fill-rule="evenodd" fill="url(#linear-gradient-10)"/>
            <path id="Trazado_628555" data-name="Trazado 628555" d="M2233.673,1305.156l-37.573,2.161L2216.791,1276a77.779,77.779,0,0,0-20.594-17.948c-23.7-13.681-42.969-2.711-43.045,24.517s19.069,60.4,42.765,74.086,42.979,2.691,43.056-24.537A77.2,77.2,0,0,0,2233.673,1305.156Z" transform="translate(-2153.152 -1251.168)" fill-rule="evenodd" fill="url(#linear-gradient-11)"/>
          </g>
          <g id="Grupo_891960" data-name="Grupo 891960" transform="translate(48.746 21.279)">
            <path id="Trazado_628556" data-name="Trazado 628556" d="M2376.329,1340.122l1.719-1a.3.3,0,0,0-.013-.032,104.027,104.027,0,0,0-15.647-27.079l-1.719,1C2361.534,1319.9,2359.269,1327.784,2376.329,1340.122Z" transform="translate(-2339.085 -1312.012)" fill="#38bcdd" fill-rule="evenodd"/>
            <path id="Trazado_628557" data-name="Trazado 628557" d="M2318.567,1314.959l-21.583,30.3,37.244-3.189A103.991,103.991,0,0,0,2318.567,1314.959Z" transform="translate(-2296.984 -1313.96)" fill-rule="evenodd" fill="url(#linear-gradient-12)"/>
          </g>
        </g>
        <path id="Trazado_628558" data-name="Trazado 628558" d="M2221.527,1519.841a1.484,1.484,0,0,1,.383-1.754,7.93,7.93,0,0,1,2.4-.734c.239-.1,1.119-1.659,1.992-.736a13.026,13.026,0,0,1-1.306,1.708C2224.363,1518.694,2222.061,1520.253,2221.527,1519.841Z" transform="translate(-2163.137 -1425.803)" fill="#e7a376" fill-rule="evenodd"/>
        <g id="Grupo_891969" data-name="Grupo 891969" transform="translate(94 87.302)">
          <g id="Grupo_891962" data-name="Grupo 891962" transform="translate(19.548)">
            <path id="Trazado_628559" data-name="Trazado 628559" d="M2385.643,1519.045c.5.469,1.243,1.384,1.555,1.675a12.47,12.47,0,0,0,1.8,1.24,4.819,4.819,0,0,0,1.244.544,12.383,12.383,0,0,1,1.058,3.252l3.057-1.171c-.04-1.315-.236-2.445-.275-3.58a17.6,17.6,0,0,0,.009-3.475c-.168-.649-.544-2.127-.761-2.905a12.516,12.516,0,0,0-.978-3.3c-.624-.663.313-4.751-.911-4.492-1.009.214-1.135,4.763-1.786,7.7a26.979,26.979,0,0,1-1.164,3.854.918.918,0,0,1-.924.39,11.223,11.223,0,0,1-1.042-.99c-.962-.592-1.654-.692-1.921-.146a.6.6,0,0,0,.151.761C2384.954,1518.588,2385.274,1518.766,2385.643,1519.045Z" transform="translate(-2384.534 -1506.822)" fill-rule="evenodd" fill="url(#linear-gradient-13)"/>
            <path id="Trazado_628560" data-name="Trazado 628560" d="M2425.535,1578.8c-2.908-3.889-8.928-8.742-12.037-12.509l-5.482-9.717c-.659-1.464-.765-2.313-2.021-3.312l-.715-1.442c-1.058-.818-4.081.437-4.269,1.176l.327,1.18c-.343,1.693.306,2.725.837,4.393l4.653,10.624c2.512,3.6,10.234,16.746,14.385,17.8C2425.628,1588.119,2428.152,1582.3,2425.535,1578.8Z" transform="translate(-2395.426 -1536.394)" fill-rule="evenodd" fill="url(#linear-gradient-14)"/>
          </g>
          <g id="Grupo_891967" data-name="Grupo 891967" transform="translate(25.225 25.416)">
            <path id="Trazado_628561" data-name="Trazado 628561" d="M2411.045,1679.276c-4.426,1.97-7.856,6.443-5.605,13.334l1.979,2.606,2.878-4.456c-.5-3.395-.015-6.042,1.913-9.7C2411.808,1680.463,2411.426,1679.88,2411.045,1679.276Z" transform="translate(-2403.562 -1646.245)" fill="#31accb" fill-rule="evenodd"/>
            <path id="Trazado_628562" data-name="Trazado 628562" d="M2415.031,1901.638c-.56-.218-1.809-2.687-3.944-2.446-2.564.289-5.323-1.459-7.583-1.719-.4-.046-.9-.2-1.165-.04a1.647,1.647,0,0,0-.567,2.719,16.362,16.362,0,0,0,2.722,2.823,19.277,19.277,0,0,0,3.171,2.3c.971.534,1.661.545,2.545.973l-.026.823a4.353,4.353,0,0,0,1.951,1.289,5.252,5.252,0,0,0,4.1-1.516c.265-1.336.876-2.631.4-4.684Z" transform="translate(-2401.286 -1790.419)" fill="#04304f" fill-rule="evenodd"/>
            <path id="Trazado_628563" data-name="Trazado 628563" d="M2430.448,1735.286c-.491,5.458-3.462,25.33-2.694,30.116,1.153,7.2-.32,17.493-.332,25.13a4.428,4.428,0,0,0,1.6,3.013c1.633,1.337,4.158,1.97,4.954.715,1.039-6.825,3.044-15.287,3.645-19.08.674-4.247.558-8.559-.528-11.349a178.969,178.969,0,0,1,4.4-19.656c.632-1.967,4.636-8.428,1.789-13.685Z" transform="translate(-2418.564 -1680.103)" fill-rule="evenodd" fill="url(#linear-gradient-15)"/>
            <g id="Grupo_891963" data-name="Grupo 891963" transform="translate(3.414 52.742)">
              <path id="Trazado_628564" data-name="Trazado 628564" d="M2457.631,1924.988c-.6-.013-2.63-1.905-4.55-.95-2.307,1.147-5.5.448-7.716.975-.394.094-.915.118-1.107.36a1.646,1.646,0,0,0,.409,2.746,16.392,16.392,0,0,0,3.534,1.721,19.284,19.284,0,0,0,3.774,1.075c1.1.171,1.749-.055,2.727.045l.26.781a4.379,4.379,0,0,0,2.278.545,5.218,5.218,0,0,0,3.324-2.823c-.214-1.346-.088-2.77-1.245-4.536Z" transform="translate(-2432.736 -1860.618)" fill="#04304f" fill-rule="evenodd"/>
              <path id="Trazado_628565" data-name="Trazado 628565" d="M2421.68,1776.455c3.337,7.5,5.974,18.536,8.655,26.167,1.015,2.13,7.01,2.877,8.519.127-1.313-6.765-3.057-16.893-4.309-20.475-1.041-2.982-1.574-4.726-3.414-7.121-.638-2.918-4.341-16.785-5.3-22.356.678-3.647,2.2-10.01-2.586-15.361-2.3,1.622-8.651,2.636-11.871.83a60.314,60.314,0,0,0,2.569,17.2A168.607,168.607,0,0,0,2421.68,1776.455Z" transform="translate(-2411.359 -1737.435)" fill-rule="evenodd" fill="url(#linear-gradient-16)"/>
            </g>
            <path id="Trazado_628566" data-name="Trazado 628566" d="M2427.766,1648.69c-.22,4.7.112,7.229-1.015,14.2-.882,5.133-11.967,11.148-21.035,5.9.631-4.12,1.577-6.216,1.014-10.376-.842-6.235-4.829-14.268-2.9-19.173a5.232,5.232,0,0,1,1.956-2.217c2.126-1.695,13.118-7.251,16.451-7.643C2431.908,1628.141,2427.984,1644.024,2427.766,1648.69Z" transform="translate(-2402.622 -1613.218)" fill="#cee0f3" fill-rule="evenodd"/>
            <path id="Trazado_628567" data-name="Trazado 628567" d="M2404.542,1651.2c-1.019-3.329-2.469-9.585-1.074-12.15a6.921,6.921,0,0,1,2.03-2.057c1.972-1.573,13.029-7.233,16.122-7.6,6.136-.788,7.089,3.631,7.374,9.162.6,11.663-.4,24.65,11.63,30.127.924,2.115.021,4.254-1.854,6.079a14.078,14.078,0,0,1-8.357-3.45c2.888,2.748,4.563,3.879,6.873,4.688a20.627,20.627,0,0,1-6.631,3.073C2417.516,1682.583,2407.693,1661.5,2404.542,1651.2Z" transform="translate(-2402.347 -1613.209)" fill-rule="evenodd" fill="url(#linear-gradient-17)"/>
            <g id="Grupo_891966" data-name="Grupo 891966" transform="translate(6.618)">
              <path id="Trazado_628568" data-name="Trazado 628568" d="M2428.477,1618.856a22.081,22.081,0,0,1-.145,6.139c3.151-.1,7.529-.92,8.007-3.248a6.979,6.979,0,0,1,.2-3.287C2431.937,1618.584,2432.261,1616.263,2428.477,1618.856Z" transform="translate(-2425.783 -1605.487)" fill="#e7a376" fill-rule="evenodd"/>
              <g id="Grupo_891965" data-name="Grupo 891965">
                <path id="Trazado_628569" data-name="Trazado 628569" d="M2420.813,1594.608c.014.707,1.651,1.7,2.378,2.093.22.118,1.616.269,1.878.392,2.245,1.053,5.267,2.452,5.573,1.853a2.884,2.884,0,0,1,.8-1.072c1.13-.746,3-1.3,4.2-2.663,1.92-2.179,2.941-5.107,1.433-8.053-2.751-5.381-9.406-5.472-13.113-1.122-.723.85-.194,1.73-.606,2.55-.08.161-.377.232-.72.513A12.176,12.176,0,0,0,2420.813,1594.608Z" transform="translate(-2420.812 -1582.554)" fill="#e7a376" fill-rule="evenodd"/>
                <g id="Grupo_891964" data-name="Grupo 891964" transform="translate(3.326 9.933)">
                  <path id="Trazado_628570" data-name="Trazado 628570" d="M2431.642,1611.893c.062-.744.365-.887.616-.689a1.984,1.984,0,0,1,.437,1.627c-.122,1.234-1.276,2.341-2.07,1.342.869.458,1.279-.648,1.316-1.429C2431.966,1612.214,2431.83,1611.77,2431.642,1611.893Z" transform="translate(-2430.625 -1611.124)" fill="#f0b186" fill-rule="evenodd"/>
                  <path id="Trazado_628571" data-name="Trazado 628571" d="M2433.14,1614.8c-.463.348-.676.583-.669.778,0,.136.119.34.525.2A1.744,1.744,0,0,0,2433.14,1614.8Z" transform="translate(-2431.845 -1613.553)" fill="#da9569" fill-rule="evenodd"/>
                </g>
                <path id="Trazado_628572" data-name="Trazado 628572" d="M2438.935,1597.651c1.152-1.221,3.05-1.91,4.3-3.331a7.484,7.484,0,0,0,2.055-4.964c.828-1.127-.443-3.9-1.145-4.566a2.055,2.055,0,0,1,.062.447c-1.895-2.461-2.718-2.518-5.608-3.424.271.185.522.372.785.571-1.511-.708-6.179-.681-7.285,2.163,1.092-1,1.651-.552,2.036.029a4.33,4.33,0,0,0-1.007,3.317c.318,1.718.249,1.911-.715,3.868l.326.652c.933-1.456,1.572-1.017,2.009-.19.528,1-.585,2.331-.557,3.641C2434.246,1598.309,2438.293,1598.33,2438.935,1597.651Z" transform="translate(-2428.274 -1581.814)" fill-rule="evenodd" fill="url(#linear-gradient-18)"/>
              </g>
              <path id="Trazado_628573" data-name="Trazado 628573" d="M2431.45,1629.544c.933.286,1.8,1.237,1.634,1.848-.929,3.764-7.88,4.605-12.2,3.7-.051-.011,1.618-2.2,2.446-2.47C2426.046,1632.885,2430.611,1631.767,2431.45,1629.544Z" transform="translate(-2420.856 -1613.368)" fill="#daeafa" fill-rule="evenodd"/>
            </g>
          </g>
          <g id="Grupo_891968" data-name="Grupo 891968" transform="translate(0 16.091)">
            <path id="Trazado_628574" data-name="Trazado 628574" d="M2335.71,1570.033a10.462,10.462,0,0,1-.691-3.353c-.175-2.436.328-4.618.17-5.153a26.292,26.292,0,0,0-1.76-4.395c-.386-.524-.677-.97-1.922-2.56-.6-.77-1.1.317-1.082.473.1.753,1.182,1.531,1.625,2.572a10.971,10.971,0,0,1,.616,2.3,14.879,14.879,0,0,0-1.124-2.175,11.573,11.573,0,0,0-1.922-1.8c-.634-.482-1.182.076-1.009.388a26.593,26.593,0,0,0,1.891,2.3c.2.985.434,1.476.646,2.579l-1.183-2.077-1.8-1.8c-.664-.6-1.175.007-.874.555a16.982,16.982,0,0,0,1.6,1.961c.2.619.661,1.535,1.043,2.432l-1.167-1.33a10.478,10.478,0,0,0-1.262-1.569c-.351-.3-.894-.075-.524.682.283.58.817,1.448.972,1.717a9.726,9.726,0,0,1,1.166,3.04c.421,1.12,1.808,2.473,2.069,3.634l.5,2.241Z" transform="translate(-2326.855 -1554.3)" fill-rule="evenodd" fill="url(#linear-gradient-19)"/>
            <path id="Trazado_628575" data-name="Trazado 628575" d="M2348.475,1607.41l-2.794-9.711c-.519-1.442-.558-2.256-1.68-3.3l-.573-1.423c-.946-.856-3.915.115-4.148.805l.225,1.146c-.45,1.586-.076,2.606.307,4.231l1.656,8.339c.511,2.1.459,3.988,2.416,5.138q.193.113.392.206c4.309,2.688,14.611,8.862,18.355,8.3,4.3-.647,4.361-6.7.763-8.805C2359.5,1610.052,2352.64,1609.442,2348.475,1607.41Z" transform="translate(-2335.069 -1579.646)" fill-rule="evenodd" fill="url(#linear-gradient-20)"/>
          </g>
        </g>
      </g>
      <g id="Grupo_891972" data-name="Grupo 891972" transform="translate(106.313 17.385)">
        <path id="Trazado_628576" data-name="Trazado 628576" d="M2440.823,1302.309l1.328-1.787,3.478,2.009-.04,14.1-2.274-1.314.032-11.554-2.525-1.455Zm14.239,16.668c.422-.506.6-1.724.6-3.524a11.915,11.915,0,0,0-.525-4.177,3.58,3.58,0,0,0-1.373-1.847,1.394,1.394,0,0,0-1.092-.213,1.927,1.927,0,0,0-.672,1.128,12.538,12.538,0,0,0-.238,2.989,10.674,10.674,0,0,0,.524,3.974,3.518,3.518,0,0,0,1.45,1.872.9.9,0,0,0,1.323-.2Zm.928-10.069a9.729,9.729,0,0,1,1.5,3.222,16.993,16.993,0,0,1,.522,4.614,11.241,11.241,0,0,1-.547,4.107,2.162,2.162,0,0,1-1.459,1.444,3.328,3.328,0,0,1-2.277-.61,7.256,7.256,0,0,1-2.348-2.061,9.956,9.956,0,0,1-1.5-3.155,18.264,18.264,0,0,1-.466-4.56c.007-2.548.318-4.261,1.028-5.015.788-.866,1.88-.85,3.275-.045A7.789,7.789,0,0,1,2455.99,1308.909Z" transform="translate(-2414.511 -1300.522)" fill="#fff" fill-rule="evenodd"/>
        <g id="Grupo_891971" data-name="Grupo 891971" transform="translate(0 13.467)">
          <path id="Trazado_628577" data-name="Trazado 628577" d="M2366.579,1356.88a7.472,7.472,0,0,1-3.383-5.289c-.133-1.917,1.166-2.659,2.9-1.655a7.475,7.475,0,0,1,3.383,5.289C2369.614,1357.143,2368.315,1357.883,2366.579,1356.88Z" transform="translate(-2363.187 -1346.36)" fill="#fff" fill-rule="evenodd"/>
          <path id="Trazado_628578" data-name="Trazado 628578" d="M2371.327,1346.76l20.389-6.5,20.522,11.909-.51.88-20.135-11.685-19.96,6.365Z" transform="translate(-2368.568 -1340.259)" fill="#fff" fill-rule="evenodd"/>
        </g>
      </g>
      <g id="Grupo_891975" data-name="Grupo 891975" transform="translate(4.426 45.963)">
        <g id="Grupo_891973" data-name="Grupo 891973" transform="translate(0 10.425)">
          <path id="Trazado_628579" data-name="Trazado 628579" d="M2101.954,1421.149l-13.161,9.036-26.237-13.679.469-.9,25.694,13.4,12.661-8.693Z" transform="translate(-2062.556 -1415.606)" fill="#fff" fill-rule="evenodd"/>
          <path id="Trazado_628580" data-name="Trazado 628580" d="M2174.116,1423.545a7.475,7.475,0,0,1-3.384-5.29c-.133-1.917,1.166-2.659,2.9-1.656a7.477,7.477,0,0,1,3.384,5.29C2177.151,1423.807,2175.851,1424.547,2174.116,1423.545Z" transform="translate(-2134.064 -1415.967)" fill="#fff" fill-rule="evenodd"/>
        </g>
        <g id="Grupo_891974" data-name="Grupo 891974" transform="translate(6.749)">
          <path id="Trazado_628581" data-name="Trazado 628581" d="M2110.294,1411.184a5.59,5.59,0,0,0,.521-3.043,10.318,10.318,0,0,0-.453-3.607,3.1,3.1,0,0,0-1.186-1.595,1.2,1.2,0,0,0-.943-.184,1.66,1.66,0,0,0-.58.974,10.773,10.773,0,0,0-.206,2.581,9.23,9.23,0,0,0,.452,3.432,3.047,3.047,0,0,0,1.253,1.616.778.778,0,0,0,1.143-.175Zm.8-8.7a8.384,8.384,0,0,1,1.3,2.782,14.691,14.691,0,0,1,.452,3.985,9.745,9.745,0,0,1-.473,3.547,1.867,1.867,0,0,1-1.261,1.247,2.874,2.874,0,0,1-1.966-.527,6.283,6.283,0,0,1-2.029-1.78,8.612,8.612,0,0,1-1.3-2.725,15.741,15.741,0,0,1-.4-3.938c.006-2.2.275-3.68.888-4.331.681-.748,1.624-.734,2.829-.039A6.712,6.712,0,0,1,2111.095,1402.488Z" transform="translate(-2097.64 -1394.988)" fill="#fff" fill-rule="evenodd"/>
          <path id="Trazado_628582" data-name="Trazado 628582" d="M2087.033,1391.276a1.107,1.107,0,0,0,.406-1,2.84,2.84,0,0,0-.427-1.513,2.694,2.694,0,0,0-.983-1.087,1,1,0,0,0-1.02-.093,1.074,1.074,0,0,0-.434,1.016,2.964,2.964,0,0,0,.407,1.493,2.928,2.928,0,0,0,1.057,1.107.927.927,0,0,0,.993.076Zm-1.023-5.916a6.919,6.919,0,0,1,2.538,2.685,7.011,7.011,0,0,1,1,3.371,4.722,4.722,0,0,1-.154,1.13,9.482,9.482,0,0,1-.737,1.431l-2.923,4.857-1.829-2.126,1.994-3.262a6.779,6.779,0,0,1-2.45-2.579,6.994,6.994,0,0,1-.983-3.508,2.386,2.386,0,0,1,1.04-2.279A2.415,2.415,0,0,1,2086.01,1385.36Z" transform="translate(-2082.471 -1384.845)" fill="#fff" fill-rule="evenodd"/>
        </g>
      </g>
    </g>
    <g id="Grupo_891980" data-name="Grupo 891980" transform="translate(2018.249 1037.561)">
      <g id="Grupo_891978" data-name="Grupo 891978" transform="translate(14.987 0.401)">
        <path id="Trazado_628583" data-name="Trazado 628583" d="M2624.107,1105.988l-.09,66.161,14.04,8.076.091-66.161Z" transform="translate(-2560.75 -1086.806)" fill="#c2d6eb" fill-rule="evenodd"/>
        <g id="Grupo_891977" data-name="Grupo 891977">
          <path id="Trazado_628584" data-name="Trazado 628584" d="M2437.428,1078.592l-.09,40.8,14.041,8.076.09-40.8Z" transform="translate(-2437.338 -1068.696)" fill="#31accb" fill-rule="evenodd"/>
          <path id="Trazado_628585" data-name="Trazado 628585" d="M2561.73,1163.856l-.106,36.129,14.04,8.076.106-36.13Z" transform="translate(-2519.502 -1125.062)" fill="#f8c527" fill-rule="evenodd"/>
          <path id="Trazado_628586" data-name="Trazado 628586" d="M2499.61,1049.39l-.14,62.807,14.041,8.076.14-62.807Z" transform="translate(-2478.412 -1049.39)" fill="#8eb961" fill-rule="evenodd"/>
        </g>
      </g>
      <g id="Grupo_891979" data-name="Grupo 891979">
        <path id="Trazado_628587" data-name="Trazado 628587" d="M2409.505,1083.368l4.008.15-1.637,2.11-2.891,1.248Z" transform="translate(-2403.608 -1071.451)" fill="#08304d" fill-rule="evenodd"/>
        <path id="Trazado_628588" data-name="Trazado 628588" d="M2396.008,1048.207l10.108,8.077-4.109,2.786-8.89-9.615Z" transform="translate(-2393.117 -1048.207)" fill="#0d4d7a" fill-rule="evenodd"/>
        <path id="Trazado_628589" data-name="Trazado 628589" d="M2417.28,1073.286l2.89-1.248-1.729,2.222-4.066,2.072Z" transform="translate(-2407.171 -1063.961)" fill="#08304d" fill-rule="evenodd"/>
        <path id="Trazado_628590" data-name="Trazado 628590" d="M2436.564,1108.631l2.643-3.923-18.473-26.114-2.891,1.248Z" transform="translate(-2409.464 -1068.295)" fill="#0d4d7a" fill-rule="evenodd"/>
        <path id="Trazado_628591" data-name="Trazado 628591" d="M2479.351,1155.659l2.891-1.248-5.221,4.966-2.89,1.248Z" transform="translate(-2446.674 -1118.417)" fill="#08304d" fill-rule="evenodd"/>
        <path id="Trazado_628592" data-name="Trazado 628592" d="M2490.509,1141.122c8.757,12.308,14.3,20.64,23.1,33.04l-2.742,3.866-23.254-35.658Z" transform="translate(-2455.59 -1109.632)" fill="#0d4d7a" fill-rule="evenodd"/>
        <path id="Trazado_628593" data-name="Trazado 628593" d="M2562.749,1238.8l2.891-1.248-5.178,4.907-2.89,1.248Z" transform="translate(-2501.836 -1173.378)" fill="#08304d" fill-rule="evenodd"/>
        <path id="Trazado_628594" data-name="Trazado 628594" d="M2573.824,1224.247l26.366,37.584-3.781,2.422-25.476-38.758Z" transform="translate(-2510.669 -1164.585)" fill="#0d4d7a" fill-rule="evenodd"/>
        <path id="Trazado_628595" data-name="Trazado 628595" d="M2646.291,1336.391l2.891-1.248-1.25,1.927-2.891,1.249Z" transform="translate(-2559.661 -1237.897)" fill="#08304d" fill-rule="evenodd"/>
        <path id="Trazado_628596" data-name="Trazado 628596" d="M2403.226,1059.966l-1.729,2.222,18.473,26.114,5.175-4.923c8.756,12.308,14.3,20.64,23.106,33.041l5.131-4.868,26.366,37.584-1.25,1.927-24.467-35-5.177,4.907c-8.761-12.341-14.263-21-23.059-33.083l-5.221,4.967-20.441-28.894-1.637,2.111-5.378-14.177Z" transform="translate(-2393.117 -1050.641)" fill="#1466a0" fill-rule="evenodd"/>
      </g>
    </g>
    <g id="Grupo_891982" data-name="Grupo 891982" transform="translate(1826.071 1147.909)">
      <path id="Trazado_628597" data-name="Trazado 628597" d="M1860.89,1400c-6.612-3.816-12.595-4.183-16.936-1.708-2.956,1.65-5.143,4.636-6.246,8.735l23.127,20.424,11.537-17.459A43.681,43.681,0,0,0,1860.89,1400Z" transform="translate(-1833.765 -1388.954)" fill="#f8c527" fill-rule="evenodd"/>
      <path id="Trazado_628598" data-name="Trazado 628598" d="M1922.393,1435.042l-12.042,16.91,20.773-1.788A57.892,57.892,0,0,0,1922.393,1435.042Z" transform="translate(-1881.788 -1414.288)" fill="#10598c" fill-rule="evenodd"/>
      <path id="Trazado_628599" data-name="Trazado 628599" d="M1926.753,1483.931l-21.038,1.176,23.155,20.515C1930.459,1499.756,1929.711,1491.777,1926.753,1483.931Z" transform="translate(-1878.723 -1446.608)" fill="#daeafa" fill-rule="evenodd"/>
      <path id="Trazado_628600" data-name="Trazado 628600" d="M1836.052,1429.645a25.732,25.732,0,0,0-.844,6.665c-.042,15.189,10.647,33.674,23.871,41.308,11.067,6.39,20.41,3.14,23.18-7.027Z" transform="translate(-1832.111 -1410.72)" fill="#31accb" fill-rule="evenodd"/>
      <g id="Grupo_891981" data-name="Grupo 891981" transform="translate(0 0)">
        <path id="Trazado_628601" data-name="Trazado 628601" d="M1857.257,1380.757a3.7,3.7,0,0,1,1.674,2.9c0,1.063-.76,1.494-1.684.96a3.7,3.7,0,0,1-1.673-2.9C1855.576,1380.654,1856.333,1380.223,1857.257,1380.757Z" transform="translate(-1845.575 -1378.249)" fill="#f8c527" fill-rule="evenodd"/>
        <path id="Trazado_628602" data-name="Trazado 628602" d="M1869.554,1373.866a1.012,1.012,0,0,1,.458.793c0,.291-.208.409-.461.263a1.011,1.011,0,0,1-.458-.793C1869.093,1373.838,1869.3,1373.72,1869.554,1373.866Z" transform="translate(-1854.512 -1373.804)" fill="#f8c527" fill-rule="evenodd"/>
        <path id="Trazado_628603" data-name="Trazado 628603" d="M1841.556,1374.251a2.115,2.115,0,0,1,.958,1.659c0,.608-.435.854-.964.549a2.114,2.114,0,0,1-.957-1.658C1840.594,1374.192,1841.027,1373.946,1841.556,1374.251Z" transform="translate(-1835.671 -1374.013)" fill="#f8c527" fill-rule="evenodd"/>
        <path id="Trazado_628604" data-name="Trazado 628604" d="M1826.784,1497.555a1.564,1.564,0,0,1,.707,1.226c0,.45-.321.632-.712.407a1.566,1.566,0,0,1-.708-1.226C1826.073,1497.512,1826.392,1497.33,1826.784,1497.555Z" transform="translate(-1826.071 -1455.551)" fill="#0a3c5f" fill-rule="evenodd"/>
        <path id="Trazado_628605" data-name="Trazado 628605" d="M1952.986,1593.888a1.562,1.562,0,0,1,.708,1.226c0,.45-.321.632-.712.406a1.564,1.564,0,0,1-.708-1.226C1952.275,1593.844,1952.6,1593.661,1952.986,1593.888Z" transform="translate(-1909.502 -1519.234)" fill="#31accb" fill-rule="evenodd"/>
        <path id="Trazado_628606" data-name="Trazado 628606" d="M1981.676,1492.266a1.242,1.242,0,0,1,.562.973c0,.357-.255.5-.566.323a1.241,1.241,0,0,1-.562-.974C1981.111,1492.231,1981.365,1492.087,1981.676,1492.266Z" transform="translate(-1928.566 -1452.067)" fill="#31accb" fill-rule="evenodd"/>
      </g>
    </g>
    <g id="Grupo_891985" data-name="Grupo 891985" transform="translate(2067.846 1213.49)">
      <g id="Grupo_891984" data-name="Grupo 891984" transform="translate(0 7.742)">
        <path id="Trazado_628607" data-name="Trazado 628607" d="M2539.907,1591.374l42.572,23.967-.133,46.571-3.917,3.556-38.969-22.247.021-5.675Z" transform="translate(-2539.46 -1590.961)" fill="#b8cee7" fill-rule="evenodd" opacity="0.5" style="mix-blend-mode: multiply;isolation: isolate"/>
        <g id="Grupo_891983" data-name="Grupo 891983" transform="translate(3.6)">
          <path id="Trazado_628608" data-name="Trazado 628608" d="M2550.222,1590.154l42.251,24.5-.138,47.971-42.252-24.506Z" transform="translate(-2550.083 -1590.154)" fill-rule="evenodd" fill="url(#linear-gradient-21)"/>
          <path id="Trazado_628609" data-name="Trazado 628609" d="M2578.044,1663.614c-4.577-2.533-8.578-8.67-8.941-13.711s3.052-7.074,7.629-4.541,8.579,8.673,8.941,13.712-3.055,7.072-7.629,4.54Zm16.984-1.976-2.976-1.647a31.709,31.709,0,0,0-3.105-8.371l1.94-1.151a46.642,46.642,0,0,0-3.773-5.785l-1.939,1.154a33.334,33.334,0,0,0-6.493-6.351l-.236-3.281a28.861,28.861,0,0,0-2.484-1.552,23.263,23.263,0,0,0-2.459-1.183l.235,3.281a10.26,10.26,0,0,0-6.08-.608l-2.273-3.487a7.556,7.556,0,0,0-3.219,1.916l2.273,3.484a9.178,9.178,0,0,0-2.109,5.486l-2.975-1.647a20.34,20.34,0,0,0,.025,2.627,25.9,25.9,0,0,0,.366,2.818l2.976,1.647a31.621,31.621,0,0,0,3.1,8.369l-1.94,1.154a46.733,46.733,0,0,0,3.772,5.785l1.94-1.155a33.3,33.3,0,0,0,6.492,6.351l.236,3.278a28.166,28.166,0,0,0,2.486,1.557,22.771,22.771,0,0,0,2.456,1.179l-.235-3.278a10.273,10.273,0,0,0,6.081.608l2.274,3.486a7.559,7.559,0,0,0,3.219-1.916l-2.274-3.487a9.166,9.166,0,0,0,2.109-5.482l2.976,1.647a20.532,20.532,0,0,0-.026-2.63A25.636,25.636,0,0,0,2595.028,1661.638Z" transform="translate(-2556.192 -1618.252)" fill="#fff" fill-rule="evenodd"/>
        </g>
      </g>
      <path id="Trazado_628610" data-name="Trazado 628610" d="M2557.821,1575.891a.752.752,0,1,1,.753-1.3l3.791,2.2a.752.752,0,0,1-.754,1.3l-3.79-2.2Zm7.312,4.308a.752.752,0,0,1,.754-1.3l6.134,3.557a.752.752,0,0,1-.754,1.3l-6.134-3.558Zm9.975,5.788a.75.75,0,1,1,.748-1.3l10.854,6.258a.751.751,0,0,1-.748,1.3l-10.854-6.258Zm14.813,8.52,4.633,2.687-.154,53.375-47.04-27.284.155-53.37,3.111,1.8a.752.752,0,1,0,.754-1.3l-5.359-3.108-.165,56.842,50.039,29.023q.079-28.424.164-56.847l-5.384-3.123a.752.752,0,0,0-.754,1.3Z" transform="translate(-2543.688 -1567.309)" fill="#fff" fill-rule="evenodd"/>
    </g>
  </g>
</svg>
