<svg xmlns="http://www.w3.org/2000/svg" xmlns:xlink="http://www.w3.org/1999/xlink" width="610" height="438.996" viewBox="0 0 610 438.996">
  <defs>
    <linearGradient id="linear-gradient" x1="-0.433" y1="-0.445" x2="1.996" y2="1.345" gradientUnits="objectBoundingBox">
      <stop offset="0" stop-color="#2aebeb"/>
      <stop offset="0.45" stop-color="#6174ff"/>
      <stop offset="0.75" stop-color="#b63cfb"/>
      <stop offset="1" stop-color="#ff47e3"/>
    </linearGradient>
    <linearGradient id="linear-gradient-2" x1="-0.235" y1="0.081" x2="1.036" y2="0.805" xlink:href="#linear-gradient"/>
    <linearGradient id="linear-gradient-3" x1="-4.214" y1="0.023" x2="13.536" y2="1.82" xlink:href="#linear-gradient"/>
    <linearGradient id="linear-gradient-4" x1="-5.96" y1="0.202" x2="11.79" y2="1.021" xlink:href="#linear-gradient"/>
    <linearGradient id="linear-gradient-5" x1="-8.185" y1="0.186" x2="9.565" y2="0.828" xlink:href="#linear-gradient"/>
    <linearGradient id="linear-gradient-6" x1="-11.611" y1="-0.138" x2="6.139" y2="0.797" xlink:href="#linear-gradient"/>
    <linearGradient id="linear-gradient-7" x1="-8.799" y1="0.453" x2="65.204" y2="0.826" xlink:href="#linear-gradient"/>
    <linearGradient id="linear-gradient-8" x1="-10.999" y1="0.427" x2="63.003" y2="0.898" xlink:href="#linear-gradient"/>
    <linearGradient id="linear-gradient-9" x1="-15.221" y1="0.353" x2="58.779" y2="1.044" xlink:href="#linear-gradient"/>
    <linearGradient id="linear-gradient-10" x1="-17.426" y1="0.222" x2="56.572" y2="1.37" xlink:href="#linear-gradient"/>
    <linearGradient id="linear-gradient-11" x1="-46.588" y1="-0.18" x2="27.413" y2="0.889" xlink:href="#linear-gradient"/>
    <linearGradient id="linear-gradient-12" x1="-48.101" y1="0.19" x2="25.899" y2="0.662" xlink:href="#linear-gradient"/>
    <linearGradient id="linear-gradient-13" x1="-52.322" y1="0.007" x2="21.677" y2="0.698" xlink:href="#linear-gradient"/>
    <linearGradient id="linear-gradient-14" x1="-54.759" y1="-2.133" x2="19.241" y2="1.393" xlink:href="#linear-gradient"/>
    <linearGradient id="linear-gradient-15" x1="-39.611" y1="0.267" x2="34.391" y2="0.697" xlink:href="#linear-gradient"/>
    <linearGradient id="linear-gradient-16" x1="-41.402" y1="0.298" x2="32.6" y2="0.655" xlink:href="#linear-gradient"/>
    <linearGradient id="linear-gradient-17" x1="-21.555" y1="-0.185" x2="52.445" y2="2.113" xlink:href="#linear-gradient"/>
    <linearGradient id="linear-gradient-18" x1="-22.855" y1="0.354" x2="51.147" y2="0.816" xlink:href="#linear-gradient"/>
    <linearGradient id="linear-gradient-19" x1="-27.816" y1="0.06" x2="46.186" y2="1.209" xlink:href="#linear-gradient"/>
    <linearGradient id="linear-gradient-20" x1="-29.119" y1="0.345" x2="44.881" y2="0.732" xlink:href="#linear-gradient"/>
    <linearGradient id="linear-gradient-21" x1="-33.572" y1="0.265" x2="40.429" y2="0.776" xlink:href="#linear-gradient"/>
    <linearGradient id="linear-gradient-22" x1="-35.752" y1="0.161" x2="38.25" y2="0.853" xlink:href="#linear-gradient"/>
    <linearGradient id="linear-gradient-23" x1="-59.14" y1="-1.222" x2="14.862" y2="0.915" xlink:href="#linear-gradient"/>
    <linearGradient id="linear-gradient-24" x1="-60.321" y1="0.171" x2="13.682" y2="0.571" xlink:href="#linear-gradient"/>
    <linearGradient id="linear-gradient-25" x1="-64.195" y1="0.177" x2="9.805" y2="0.546" xlink:href="#linear-gradient"/>
    <linearGradient id="linear-gradient-26" x1="-65.92" y1="0.232" x2="8.078" y2="0.531" xlink:href="#linear-gradient"/>
    <linearGradient id="linear-gradient-27" x1="0" y1="0.5" x2="1" y2="0.5" xlink:href="#linear-gradient"/>
    <linearGradient id="linear-gradient-28" x1="-7.511" y1="0" x2="0.567" y2="0.51" xlink:href="#linear-gradient"/>
    <linearGradient id="linear-gradient-29" x1="-5.992" y1="0.058" x2="2.086" y2="0.615" xlink:href="#linear-gradient"/>
    <linearGradient id="linear-gradient-30" x1="-4.483" y1="0.123" x2="3.597" y2="0.745" xlink:href="#linear-gradient"/>
    <linearGradient id="linear-gradient-31" x1="-2.966" y1="0.209" x2="5.114" y2="0.904" xlink:href="#linear-gradient"/>
    <linearGradient id="linear-gradient-32" x1="-1.443" y1="0.321" x2="6.636" y2="1.1" xlink:href="#linear-gradient"/>
    <linearGradient id="linear-gradient-33" x1="-0.854" y1="-2.19" x2="3.105" y2="5.674" xlink:href="#linear-gradient"/>
    <linearGradient id="linear-gradient-34" x1="-1.605" y1="-3.68" x2="2.355" y2="4.184" xlink:href="#linear-gradient"/>
    <linearGradient id="linear-gradient-35" x1="-0.514" y1="1.396" x2="1.078" y2="-0.011" xlink:href="#linear-gradient"/>
    <linearGradient id="linear-gradient-36" x1="-0.191" y1="1.141" x2="1.078" y2="-0.036" xlink:href="#linear-gradient"/>
  </defs>
  <g id="Grupo_891930" data-name="Grupo 891930" transform="translate(-27.249 -26.587)">
    <g id="Grupo_891895" data-name="Grupo 891895" transform="translate(27.249 44.748)">
      <path id="Trazado_628434" data-name="Trazado 628434" d="M624.205,308.319c0,24.406-127.621,25.406-293.372,25.406s-285.965-.976-285.965-21.862,121-23.812,286.75-23.812S624.205,287.433,624.205,308.319Z" transform="translate(-18.363 87.109)" fill="#eef0c2"/>
      <path id="Trazado_628435" data-name="Trazado 628435" d="M625.705,299.415C646.52,225.5,640.45,154.222,597.123,119.157c-32.343-26.176-65.872-37.483-104.488-31.078-27.609,4.579-44.332,23.115-79.743,1.622-47.829-29.03-96.47-43.939-148.438-49.593-60.943-6.628-119.069,9.6-166.726,46.4-35.065,27.073-56.711,70.684-65.516,114.051-7.6,37.43-7.261,78.705,6.56,114.622C47.9,338.9,69.112,378.47,95.982,383.809c36.531,7.257,73.815,10.745,110.949,13.06,86.043,5.364,172.741,3.992,258.715-2.01,39.786-2.778,38.534,5.361,81.91-6.142C581.678,379.669,612.466,346.431,625.705,299.415Z" transform="translate(-27.249 -38.66)" fill="#f5f6e2"/>
    </g>
    <g id="Grupo_891929" data-name="Grupo 891929" transform="translate(70.132 26.587)">
      <g id="Grupo_891899" data-name="Grupo 891899" transform="translate(425.342 137.88)">
        <g id="Grupo_891896" data-name="Grupo 891896" transform="translate(18.204)">
          <path id="Trazado_628436" data-name="Trazado 628436" d="M350.606,118.244a77.113,77.113,0,0,1,18.808,10.58c18.45,14.144,25.116,32.792,27.822,40.362,14.24,39.837-4.978,78.733-8.621,85.816a159.448,159.448,0,0,1-14.908-44.484c-3.191-18.125-1.36-26.584-4.332-43.317C367.241,155.181,362.489,138.095,350.606,118.244Z" transform="translate(-350.606 -118.244)" fill="#aebbff"/>
          <path id="Trazado_628437" data-name="Trazado 628437" d="M377.529,361.891a.561.561,0,0,1-.56-.542c-1.05-43.259-.26-82.529,2.347-116.713l.114-1.477c1.091-14.186,2.92-37.921-2.458-68.529a238.909,238.909,0,0,0-8.993-35.183.552.552,0,0,1,.347-.7.546.546,0,0,1,.7.346,239.926,239.926,0,0,1,9.033,35.348c5.4,30.744,3.568,54.567,2.472,68.8l-.113,1.474c-2.6,34.151-3.394,73.382-2.344,116.607A.561.561,0,0,1,377.529,361.891Z" transform="translate(-341.859 -107.921)" fill="#7283f7"/>
        </g>
        <g id="Grupo_891897" data-name="Grupo 891897" transform="translate(54.706 61.398)">
          <path id="Trazado_628438" data-name="Trazado 628438" d="M382.817,258.552a157.566,157.566,0,0,1,1.033-20.96c.727-6.25,3.534-23.613,9.415-38.152,2.7-6.675,12-25.7,44.592-40.382a238.143,238.143,0,0,1-55.041,99.493Z" transform="translate(-370.876 -159.059)" fill="#aebbff"/>
          <path id="Trazado_628439" data-name="Trazado 628439" d="M424.157,176.142a.559.559,0,0,0-.767.15c-4.794,7.139-9.393,14.586-13.668,22.13-8.325,14.687-18.687,32.964-25.826,58.385a232.843,232.843,0,0,0-7.222,39.049,285.49,285.49,0,0,0-1.679,40.389.554.554,0,0,0,1.107-.036c-.217-7.3-.12-14.65.232-21.984a21.072,21.072,0,0,1,4.748-6.4.554.554,0,0,0-.749-.817,22.591,22.591,0,0,0-3.012,3.392c-.3.412-.567.847-.836,1.28.3-5.252.7-10.494,1.289-15.7a231.836,231.836,0,0,1,7.189-38.877c7.1-25.29,17.427-43.5,25.722-58.139,4.262-7.519,8.847-14.939,13.625-22.056A.554.554,0,0,0,424.157,176.142Z" transform="translate(-374.871 -150.49)" fill="#7283f7"/>
        </g>
        <g id="Grupo_891898" data-name="Grupo 891898" transform="translate(0 101.587)">
          <path id="Trazado_628440" data-name="Trazado 628440" d="M385.136,269.147a71.589,71.589,0,0,1-9.8-12.933c-13.2-22.319-6.569-39.526-19.2-56.034-2.9-3.794-8.123-9.251-17.633-13.715,9.977-1.724,16.869.1,21.161,1.959C380.611,197.5,391.852,230.086,385.136,269.147Z" transform="translate(-338.505 -185.775)" fill="#aebbff"/>
          <path id="Trazado_628441" data-name="Trazado 628441" d="M380.936,287.457q-1.02-11.176-2.378-21.611a49.078,49.078,0,0,0-1-5.656c-.764-3.528-2.354-10.869-6.514-32.143-1.364-6.984-2.912-14.9-8.28-23.908a61.2,61.2,0,0,0-9.181-11.8.552.552,0,1,0-.784.778,60.249,60.249,0,0,1,9.014,11.591c5.27,8.844,6.8,16.657,8.162,23.648,4.143,21.191,7.142,35.035,7.485,37.635q1.088,8.243,1.942,16.9a28.869,28.869,0,0,0-6.107-9.116.555.555,0,0,0-.79.779,28.338,28.338,0,0,1,7.332,13.039c1.518,16.657,2.429,34.336,2.69,52.855a.554.554,0,0,0,1.107-.017C383.373,321.871,382.458,304.154,380.936,287.457Z" transform="translate(-331.378 -182.548)" fill="#7283f7"/>
        </g>
        <path id="Trazado_628442" data-name="Trazado 628442" d="M387.326,283.708V295.1c0,6.69-1.363,12.629-3.383,16.012H371.725c-2.043-3.383-3.406-9.322-3.406-16.012,0,0,.114-19.732.159-23.905h18.688C387.212,275.365,387.281,279.536,387.326,283.708Z" transform="translate(-323.47 -41.111)" fill="#cac3e3"/>
      </g>
      <g id="Grupo_891918" data-name="Grupo 891918" transform="translate(11.239 97.974)">
        <g id="Grupo_891917" data-name="Grupo 891917">
          <rect id="Rectángulo_328791" data-name="Rectángulo 328791" width="425.094" height="304.5" rx="15.191" fill="#cac3e3"/>
          <g id="Grupo_891900" data-name="Grupo 891900" transform="translate(18.089 13.847)">
            <rect id="Rectángulo_328792" data-name="Rectángulo 328792" width="387.911" height="16.302" rx="4.111" fill="#fbfbfd"/>
            <path id="Trazado_628443" data-name="Trazado 628443" d="M331.2,107.8a4.366,4.366,0,1,1-4.365-4.365A4.366,4.366,0,0,1,331.2,107.8Z" transform="translate(49.423 -99.652)" fill="#cac3e3"/>
            <path id="Trazado_628444" data-name="Trazado 628444" d="M321.391,107.8a4.365,4.365,0,1,1-4.365-4.365A4.367,4.367,0,0,1,321.391,107.8Z" transform="translate(44.475 -99.652)" fill="#cac3e3"/>
            <path id="Trazado_628445" data-name="Trazado 628445" d="M311.578,107.8a4.365,4.365,0,1,1-4.366-4.365A4.366,4.366,0,0,1,311.578,107.8Z" transform="translate(39.527 -99.652)" fill="#cac3e3"/>
          </g>
          <g id="Grupo_891905" data-name="Grupo 891905" transform="translate(209.532 47.735)">
            <rect id="Rectángulo_328793" data-name="Rectángulo 328793" width="197.975" height="124.614" fill="#fff"/>
            <g id="Grupo_891901" data-name="Grupo 891901" transform="translate(13.713 12.812)">
              <path id="Trazado_628446" data-name="Trazado 628446" d="M232.627,147.187h-21a21.936,21.936,0,0,0,21,21Z" transform="translate(-211.631 -124.29)" fill="url(#linear-gradient)"/>
              <path id="Trazado_628447" data-name="Trazado 628447" d="M233.17,153.008,248.4,137.776a21.922,21.922,0,0,0-36.77,15.233Z" transform="translate(-211.631 -131.966)" fill="#e1e1fb"/>
              <path id="Trazado_628448" data-name="Trazado 628448" d="M226.821,151.933v21.539A21.922,21.922,0,0,0,242.052,136.7Z" transform="translate(-203.971 -129.579)" fill="#e1e1fb"/>
            </g>
            <g id="Grupo_891902" data-name="Grupo 891902" transform="translate(11.979 66.298)">
              <path id="Trazado_628449" data-name="Trazado 628449" d="M233.18,167.521a19.3,19.3,0,0,0-3.132.223,22.755,22.755,0,0,0-19.348,19.4,18.622,18.622,0,0,0-.221,3.076h8.26A14.447,14.447,0,0,1,230.1,176.059a14.079,14.079,0,0,1,3.076-.332Z" transform="translate(-210.478 -167.521)" fill="#e1e1fb"/>
              <path id="Trazado_628450" data-name="Trazado 628450" d="M255.938,190.2a22.445,22.445,0,0,1-1.053,6.984,22.747,22.747,0,0,1-44.407-6.957h8.26a14.485,14.485,0,0,0,14.468,14.5,14.273,14.273,0,0,0,12.641-7.54,13.54,13.54,0,0,0,1.831-6.984,14.622,14.622,0,0,0-14.5-14.47v-8.206a22.293,22.293,0,0,1,12.059,3.437A22.639,22.639,0,0,1,255.938,190.2Z" transform="translate(-210.478 -167.521)" fill="url(#linear-gradient-2)"/>
            </g>
            <rect id="Rectángulo_328794" data-name="Rectángulo 328794" width="35.024" height="1.61" transform="translate(67.844 77.485)" fill="#e1e1fb"/>
            <rect id="Rectángulo_328795" data-name="Rectángulo 328795" width="52.407" height="1.61" transform="translate(67.844 82.854)" fill="#e1e1fb"/>
            <rect id="Rectángulo_328796" data-name="Rectángulo 328796" width="52.407" height="1.61" transform="translate(67.844 88.224)" fill="#e1e1fb"/>
            <rect id="Rectángulo_328797" data-name="Rectángulo 328797" width="52.407" height="1.61" transform="translate(67.844 93.593)" fill="#e1e1fb"/>
            <rect id="Rectángulo_328798" data-name="Rectángulo 328798" width="52.407" height="1.61" transform="translate(67.844 98.963)" fill="#e1e1fb"/>
            <g id="Grupo_891903" data-name="Grupo 891903" transform="translate(67.844 23.215)">
              <rect id="Rectángulo_328799" data-name="Rectángulo 328799" width="35.024" height="1.61" fill="#e1e1fb"/>
              <rect id="Rectángulo_328800" data-name="Rectángulo 328800" width="52.407" height="1.61" transform="translate(0 5.37)" fill="#e1e1fb"/>
              <rect id="Rectángulo_328801" data-name="Rectángulo 328801" width="52.407" height="1.61" transform="translate(0 10.739)" fill="#e1e1fb"/>
              <rect id="Rectángulo_328802" data-name="Rectángulo 328802" width="52.407" height="1.61" transform="translate(0 16.109)" fill="#e1e1fb"/>
              <rect id="Rectángulo_328803" data-name="Rectángulo 328803" width="52.407" height="1.61" transform="translate(0 21.479)" fill="#e1e1fb"/>
            </g>
            <g id="Grupo_891904" data-name="Grupo 891904" transform="translate(132.111 23.215)">
              <rect id="Rectángulo_328804" data-name="Rectángulo 328804" width="5.369" height="77.358" fill="#e1e1fb"/>
              <rect id="Rectángulo_328805" data-name="Rectángulo 328805" width="5.37" height="77.358" transform="translate(17.451)" fill="#e1e1fb"/>
              <rect id="Rectángulo_328806" data-name="Rectángulo 328806" width="5.369" height="77.358" transform="translate(34.902)" fill="#e1e1fb"/>
              <rect id="Rectángulo_328807" data-name="Rectángulo 328807" width="5.369" height="77.358" transform="translate(52.354)" fill="#e1e1fb"/>
              <rect id="Rectángulo_328808" data-name="Rectángulo 328808" width="5.369" height="23.522" transform="translate(0 53.836)" fill="url(#linear-gradient-3)"/>
              <rect id="Rectángulo_328809" data-name="Rectángulo 328809" width="5.37" height="51.62" transform="translate(17.451 25.738)" fill="url(#linear-gradient-4)"/>
              <rect id="Rectángulo_328810" data-name="Rectángulo 328810" width="5.369" height="65.814" transform="translate(34.902 11.544)" fill="url(#linear-gradient-5)"/>
              <rect id="Rectángulo_328811" data-name="Rectángulo 328811" width="5.369" height="45.243" transform="translate(52.354 32.115)" fill="url(#linear-gradient-6)"/>
            </g>
          </g>
          <g id="Grupo_891909" data-name="Grupo 891909" transform="translate(209.532 184.409)">
            <rect id="Rectángulo_328812" data-name="Rectángulo 328812" width="197.975" height="99.49" fill="#fff"/>
            <g id="Grupo_891908" data-name="Grupo 891908" transform="translate(7.571 8.723)">
              <g id="Grupo_891906" data-name="Grupo 891906">
                <path id="Trazado_628451" data-name="Trazado 628451" d="M390.382,302.147H207.548V220.1H390.382ZM208.691,301H389.238V221.245H208.691Z" transform="translate(-207.548 -220.102)" fill="#e1e1fb"/>
                <rect id="Rectángulo_328813" data-name="Rectángulo 328813" width="1.143" height="80.901" transform="translate(36.501 0.571)" fill="#e1e1fb"/>
                <rect id="Rectángulo_328814" data-name="Rectángulo 328814" width="1.144" height="80.901" transform="translate(54.752 0.571)" fill="#e1e1fb"/>
                <rect id="Rectángulo_328815" data-name="Rectángulo 328815" width="1.144" height="80.901" transform="translate(73.004 0.571)" fill="#e1e1fb"/>
                <rect id="Rectángulo_328816" data-name="Rectángulo 328816" width="1.144" height="80.901" transform="translate(91.255 0.571)" fill="#e1e1fb"/>
                <rect id="Rectángulo_328817" data-name="Rectángulo 328817" width="1.144" height="80.901" transform="translate(109.506 0.571)" fill="#e1e1fb"/>
                <rect id="Rectángulo_328818" data-name="Rectángulo 328818" width="1.144" height="80.901" transform="translate(127.756 0.571)" fill="#e1e1fb"/>
                <rect id="Rectángulo_328819" data-name="Rectángulo 328819" width="181.691" height="1.144" transform="translate(0.531 13.549)" fill="#e1e1fb"/>
                <rect id="Rectángulo_328820" data-name="Rectángulo 328820" width="181.691" height="1.144" transform="translate(0.531 27.1)" fill="#e1e1fb"/>
                <rect id="Rectángulo_328821" data-name="Rectángulo 328821" width="181.691" height="1.144" transform="translate(0.531 40.65)" fill="#e1e1fb"/>
                <rect id="Rectángulo_328822" data-name="Rectángulo 328822" width="1.144" height="80.901" transform="translate(146.008 0.571)" fill="#e1e1fb"/>
                <rect id="Rectángulo_328823" data-name="Rectángulo 328823" width="1.144" height="80.901" transform="translate(164.259 0.571)" fill="#e1e1fb"/>
                <rect id="Rectángulo_328824" data-name="Rectángulo 328824" width="1.144" height="80.901" transform="translate(18.25 0.571)" fill="#e1e1fb"/>
                <rect id="Rectángulo_328825" data-name="Rectángulo 328825" width="181.691" height="1.144" transform="translate(0.531 54.2)" fill="#e1e1fb"/>
                <rect id="Rectángulo_328826" data-name="Rectángulo 328826" width="181.691" height="1.144" transform="translate(0.531 67.75)" fill="#e1e1fb"/>
              </g>
              <g id="Grupo_891907" data-name="Grupo 891907" transform="translate(5.607 6.145)">
                <rect id="Rectángulo_328827" data-name="Rectángulo 328827" width="2.908" height="59.881" transform="translate(0 14.783)" fill="url(#linear-gradient-7)"/>
                <rect id="Rectángulo_328828" data-name="Rectángulo 328828" width="2.908" height="47.279" transform="translate(5.816 27.385)" fill="url(#linear-gradient-8)"/>
                <rect id="Rectángulo_328829" data-name="Rectángulo 328829" width="2.908" height="32.253" transform="translate(17.449 42.41)" fill="url(#linear-gradient-9)"/>
                <rect id="Rectángulo_328830" data-name="Rectángulo 328830" width="2.908" height="19.409" transform="translate(23.265 55.255)" fill="url(#linear-gradient-10)"/>
                <rect id="Rectángulo_328831" data-name="Rectángulo 328831" width="2.908" height="20.863" transform="translate(109.055 53.801)" fill="url(#linear-gradient-11)"/>
                <rect id="Rectángulo_328832" data-name="Rectángulo 328832" width="2.908" height="47.279" transform="translate(114.872 27.385)" fill="url(#linear-gradient-12)"/>
                <rect id="Rectángulo_328833" data-name="Rectángulo 328833" width="2.908" height="32.253" transform="translate(126.504 42.41)" fill="url(#linear-gradient-13)"/>
                <rect id="Rectángulo_328834" data-name="Rectángulo 328834" width="2.908" height="6.322" transform="translate(132.321 68.341)" fill="url(#linear-gradient-14)"/>
                <rect id="Rectángulo_328835" data-name="Rectángulo 328835" width="2.908" height="51.883" transform="translate(90.152 22.78)" fill="url(#linear-gradient-15)"/>
                <rect id="Rectángulo_328836" data-name="Rectángulo 328836" width="2.908" height="62.546" transform="translate(95.969 12.117)" fill="url(#linear-gradient-16)"/>
                <rect id="Rectángulo_328837" data-name="Rectángulo 328837" width="2.908" height="9.704" transform="translate(34.898 64.959)" fill="url(#linear-gradient-17)"/>
                <rect id="Rectángulo_328838" data-name="Rectángulo 328838" width="2.908" height="48.248" transform="translate(40.714 26.416)" fill="url(#linear-gradient-18)"/>
                <rect id="Rectángulo_328839" data-name="Rectángulo 328839" width="2.908" height="19.409" transform="translate(53.801 55.255)" fill="url(#linear-gradient-19)"/>
                <rect id="Rectángulo_328840" data-name="Rectángulo 328840" width="2.908" height="57.7" transform="translate(59.617 16.964)" fill="url(#linear-gradient-20)"/>
                <rect id="Rectángulo_328841" data-name="Rectángulo 328841" width="2.908" height="43.643" transform="translate(71.977 31.02)" fill="url(#linear-gradient-21)"/>
                <rect id="Rectángulo_328842" data-name="Rectángulo 328842" width="2.908" height="32.253" transform="translate(77.793 42.41)" fill="url(#linear-gradient-22)"/>
                <rect id="Rectángulo_328843" data-name="Rectángulo 328843" width="2.908" height="10.431" transform="translate(145.407 64.232)" fill="url(#linear-gradient-23)"/>
                <rect id="Rectángulo_328844" data-name="Rectángulo 328844" width="2.908" height="55.761" transform="translate(151.223 18.903)" fill="url(#linear-gradient-24)"/>
                <rect id="Rectángulo_328845" data-name="Rectángulo 328845" width="2.908" height="60.365" transform="translate(162.856 14.298)" fill="url(#linear-gradient-25)"/>
                <rect id="Rectángulo_328846" data-name="Rectángulo 328846" width="2.908" height="74.663" transform="translate(168.672)" fill="url(#linear-gradient-26)"/>
              </g>
            </g>
          </g>
          <g id="Grupo_891911" data-name="Grupo 891911" transform="translate(17.084 184.409)">
            <rect id="Rectángulo_328847" data-name="Rectángulo 328847" width="177.374" height="99.49" fill="#fff"/>
            <g id="Grupo_891910" data-name="Grupo 891910" transform="translate(9.054 14.191)">
              <path id="Trazado_628452" data-name="Trazado 628452" d="M221.218,299.235v-75.5h-1.144v75.5H201.293v-75.5H200.15v75.5H181.369v-75.5h-1.144v75.5H161.445v-75.5H160.3v75.5H141.519v-75.5h-1.143v75.5H121.6v-75.5h-1.144v75.5H101.671v-75.5h-1.144v75.5H81.747v-75.5H80.6v76.642H239.3v-1.144Z" transform="translate(-80.603 -223.737)" fill="#e1e1fb"/>
              <path id="Trazado_628453" data-name="Trazado 628453" d="M110.937,273.472a20.537,20.537,0,0,1-3.872-.394,17.312,17.312,0,0,1-7.037-3.066,13.751,13.751,0,0,0-6.037-2.6,16.321,16.321,0,0,0-10.019,1.709l-.495-1.03a17.407,17.407,0,0,1,10.687-1.81,14.9,14.9,0,0,1,6.494,2.775,16.359,16.359,0,0,0,6.611,2.894,16.843,16.843,0,0,0,7.06-.014c4.623-1.128,7.085-4.519,9.694-8.108,2.735-3.764,5.561-7.654,11.079-9.632a19.425,19.425,0,0,1,6.882-1.113c7.318.026,11.44,3.863,15.075,7.249,2.863,2.664,5.336,4.967,8.832,4.967,5.047-.027,8.693-4.889,12.552-10.038,4.683-6.247,9.99-13.328,18.966-13.591a17.158,17.158,0,0,1,3.828.32c6.783,1.375,10.279,7.064,13.659,12.567,3.126,5.085,6.356,10.342,12.188,12.238a16.72,16.72,0,0,0,8.311.367l.214,1.124a17.846,17.846,0,0,1-8.877-.4c-6.234-2.026-9.576-7.466-12.809-12.726-3.4-5.537-6.617-10.768-12.914-12.045a15.721,15.721,0,0,0-3.565-.3c-8.426.247-13.337,6.8-18.085,13.134-4.035,5.382-7.845,10.465-13.418,10.5-4,0-6.748-2.562-9.661-5.274-3.482-3.243-7.43-6.918-14.3-6.941a18.5,18.5,0,0,0-6.493,1.046c-5.185,1.859-7.907,5.605-10.539,9.227-2.735,3.764-5.318,7.319-10.347,8.546A15.4,15.4,0,0,1,110.937,273.472Z" transform="translate(-79.153 -214.694)" fill="url(#linear-gradient-27)"/>
            </g>
          </g>
          <g id="Grupo_891916" data-name="Grupo 891916" transform="translate(17.084 47.735)">
            <rect id="Rectángulo_328848" data-name="Rectángulo 328848" width="177.374" height="124.614" fill="#fff"/>
            <path id="Trazado_628454" data-name="Trazado 628454" d="M190.693,170.8q-2.794-5.111-5.589-10.222L179.517,170.8h3.726V221.13h3.723V170.8Z" transform="translate(-21.665 -104.722)" fill="url(#linear-gradient-28)"/>
            <path id="Trazado_628455" data-name="Trazado 628455" d="M177.51,174.2l-5.589-10.222L166.334,174.2h3.726v45.214h3.723V174.2Z" transform="translate(-28.314 -103.008)" fill="url(#linear-gradient-29)"/>
            <path id="Trazado_628456" data-name="Trazado 628456" d="M164.325,178.02,158.738,167.8l-5.587,10.222h3.726v39.472H160.6V178.02Z" transform="translate(-34.962 -101.083)" fill="url(#linear-gradient-30)"/>
            <path id="Trazado_628457" data-name="Trazado 628457" d="M151.142,181.514l-5.587-10.222-5.587,10.222h3.726v34.215h3.723V181.514Z" transform="translate(-41.61 -99.321)" fill="url(#linear-gradient-31)"/>
            <path id="Trazado_628458" data-name="Trazado 628458" d="M137.959,184.721,132.372,174.5l-5.587,10.222h3.726v29.391h3.722V184.721Z" transform="translate(-48.258 -97.704)" fill="url(#linear-gradient-32)"/>
            <rect id="Rectángulo_328849" data-name="Rectángulo 328849" width="6.187" height="6.187" transform="translate(8.097 79.929)" fill="url(#linear-gradient-33)"/>
            <rect id="Rectángulo_328850" data-name="Rectángulo 328850" width="6.187" height="6.187" transform="translate(8.097 91.486)" fill="url(#linear-gradient-34)"/>
            <rect id="Rectángulo_328851" data-name="Rectángulo 328851" width="49.612" height="1.144" transform="translate(17.987 82.451)" fill="#e1e1fb"/>
            <rect id="Rectángulo_328852" data-name="Rectángulo 328852" width="49.612" height="1.144" transform="translate(17.987 94.008)" fill="#e1e1fb"/>
            <g id="Grupo_891912" data-name="Grupo 891912" transform="translate(7.901 9.683)">
              <rect id="Rectángulo_328853" data-name="Rectángulo 328853" width="62.976" height="1.144" fill="#e1e1fb"/>
              <rect id="Rectángulo_328854" data-name="Rectángulo 328854" width="62.976" height="1.143" transform="translate(0 5.369)" fill="#e1e1fb"/>
              <rect id="Rectángulo_328855" data-name="Rectángulo 328855" width="62.976" height="1.144" transform="translate(0 10.739)" fill="#e1e1fb"/>
              <rect id="Rectángulo_328856" data-name="Rectángulo 328856" width="62.976" height="1.144" transform="translate(0 16.108)" fill="#e1e1fb"/>
              <rect id="Rectángulo_328857" data-name="Rectángulo 328857" width="62.976" height="1.144" transform="translate(0 21.478)" fill="#e1e1fb"/>
            </g>
            <g id="Grupo_891913" data-name="Grupo 891913" transform="translate(7.901 44.586)">
              <rect id="Rectángulo_328858" data-name="Rectángulo 328858" width="62.976" height="1.144" fill="#e1e1fb"/>
              <rect id="Rectángulo_328859" data-name="Rectángulo 328859" width="62.976" height="1.144" transform="translate(0 5.37)" fill="#e1e1fb"/>
              <rect id="Rectángulo_328860" data-name="Rectángulo 328860" width="62.976" height="1.144" transform="translate(0 10.74)" fill="#e1e1fb"/>
              <rect id="Rectángulo_328861" data-name="Rectángulo 328861" width="62.976" height="1.143" transform="translate(0 16.108)" fill="#e1e1fb"/>
              <rect id="Rectángulo_328862" data-name="Rectángulo 328862" width="62.976" height="1.144" transform="translate(0 21.478)" fill="#e1e1fb"/>
            </g>
            <g id="Grupo_891914" data-name="Grupo 891914" transform="translate(130.194 7.878)">
              <path id="Trazado_628459" data-name="Trazado 628459" d="M175.185,148.077h19.391a20.256,20.256,0,0,0-19.391-19.391Z" transform="translate(-154.043 -128.686)" fill="url(#linear-gradient-35)"/>
              <path id="Trazado_628460" data-name="Trazado 628460" d="M179.067,142.99l-13.683,13.683a19.693,19.693,0,0,0,33.03-13.683Z" transform="translate(-158.986 -121.472)" fill="#e1e1fb"/>
              <path id="Trazado_628461" data-name="Trazado 628461" d="M180.034,148.693V129.345a19.693,19.693,0,0,0-13.683,33.032Z" transform="translate(-161.131 -128.354)" fill="#e1e1fb"/>
            </g>
            <g id="Grupo_891915" data-name="Grupo 891915" transform="translate(81.868 7.878)">
              <path id="Trazado_628462" data-name="Trazado 628462" d="M146.941,142.99l-13.682,13.683a19.693,19.693,0,0,0,33.03-13.683Z" transform="translate(-126.861 -121.472)" fill="#e1e1fb"/>
              <path id="Trazado_628463" data-name="Trazado 628463" d="M147.908,148.693V129.345a19.693,19.693,0,0,0-13.682,33.032Z" transform="translate(-129.006 -128.354)" fill="#e1e1fb"/>
              <path id="Trazado_628464" data-name="Trazado 628464" d="M143.06,148.077h19.391a20.257,20.257,0,0,0-19.391-19.391Z" transform="translate(-121.918 -128.686)" fill="url(#linear-gradient-36)"/>
            </g>
            <rect id="Rectángulo_328863" data-name="Rectángulo 328863" width="21.768" height="1.144" transform="translate(7.901 107.16)" fill="#e1e1fb"/>
            <rect id="Rectángulo_328864" data-name="Rectángulo 328864" width="35.842" height="1.144" transform="translate(7.901 111.187)" fill="#e1e1fb"/>
          </g>
        </g>
      </g>
      <g id="Grupo_891921" data-name="Grupo 891921" transform="translate(0 208.325)">
        <path id="Trazado_628465" data-name="Trazado 628465" d="M75.732,239.681c-.206,5.763-.71,19.922-.71,21.226a9.02,9.02,0,0,1-3.133-3.478c-1.921-3.979,1.121-6.563.686-11.413-.274-2.95-3.819-7.2-10.909-15.6-4.8-5.7-5.7-6.381-5.879-8.394-.457-5.077,4.323-9.858,7.318-12.854a34.88,34.88,0,0,1,3.088-2.721c2.288,2.562,4.575,5.146,6.885,7.708a37.209,37.209,0,0,1-2.86,2.858c-2.63,2.38-3.683,2.7-4.185,4-.915,2.333,1.074,4.987,2.95,7.708A127.935,127.935,0,0,1,75.732,239.681Z" transform="translate(-55.756 -144.208)" fill="#f7b690"/>
        <path id="Trazado_628466" data-name="Trazado 628466" d="M108.714,333.446h-8.143Q94.26,299.412,87.923,265.4q-6.072,33.93-12.191,67.862H67.773c.388-29.779,1.212-91.925,1.235-93.23h38.906Q108.291,286.728,108.714,333.446Z" transform="translate(-49.695 -127.27)" fill="#4b4aa8"/>
        <path id="Trazado_628467" data-name="Trazado 628467" d="M119.311,183.418c-.961,2.378-.457,2.813-1.076,8.394-.731,6.312-1.327,11.458-4.071,16.674a30.74,30.74,0,0,1-5.81,7.616,39.624,39.624,0,0,1-6.2,5.079c-1.531-3.409-3.064-6.861-4.552-10.27,5.787-3.27,7.549-4.758,9.012-6.359a20.33,20.33,0,0,0,2.86-3.774c1.28-2.241,1.784-4.14,2.676-8.394,1.006-4.8,1.509-7.2,1.9-9.972.5-3.615.572-5.261,1.349-10.292.366-2.356,1.076-6.863,2.356-7.046a.8.8,0,0,1,.206.023c.731.367-.114,3.568-1.006,6.36a8.375,8.375,0,0,1,3.819.572c1.19.457,2.676,1.052,3.133,2.217C124.755,176.51,121.232,178.66,119.311,183.418Z" transform="translate(-34.651 -165.073)" fill="#f7b690"/>
        <path id="Trazado_628468" data-name="Trazado 628468" d="M110.568,219.79q.275,21.685.023,42.909H71.684c.229-5.763,1.372-35.109,1.715-44.007L70.1,220.339c-.137-.159-.274-.3-.411-.457-2.311-2.562-7.114-7.959-7.228-8.074a69.7,69.7,0,0,1,6.885-5.65c4.9-3.546,9.378-6.771,15.988-8.508a34.409,34.409,0,0,1,13.632-1.121,37.441,37.441,0,0,0,6.542.778,23.728,23.728,0,0,0,9.492-2.219c.09.229.206.457.319.686,1.488,3.409,3.021,6.861,4.552,10.27.023.045.023.069.047.114-3.158,2.288-6.314,4.552-9.47,6.839C110.5,215.238,110.545,217.526,110.568,219.79Z" transform="translate(-52.372 -149.936)" fill="#ff457c"/>
        <path id="Trazado_628469" data-name="Trazado 628469" d="M92.613,198.936a5.54,5.54,0,0,1-2.813.937c0,1.372-.023,2.744-.023,4.117a8.341,8.341,0,0,1-4.94,1.509,8.222,8.222,0,0,1-4.14-1.235c.114-1.258.206-2.493.3-3.75,2.768,1.28,6.405,1.531,8.371-.618,1.259-1.349.939-3.34.435-7.022-.092-.709-.3-1.944-.937-2.127-.594-.137-.984.8-1.99.8a1.944,1.944,0,0,1-1.784-1.121,1.9,1.9,0,0,1,.229-1.737c.686-.916,1.99-.412,2.584-1.3a2.2,2.2,0,0,0,.206-1.625c-.343-2.195-2.562-3.064-2.287-3.911.137-.48.915-.617,1.9-.754,2.356-.39,3.934-.618,4.985-.8C96.8,185.9,96.8,196.03,92.613,198.936Z" transform="translate(-43.178 -157.397)" fill="#f7b690"/>
        <path id="Trazado_628470" data-name="Trazado 628470" d="M96.817,181.452c-.319.48-.823.686-2.241.937-1.051.184-2.63.412-4.985.8-.984.137-1.762.274-1.9.754-.275.847,1.944,1.716,2.287,3.911a2.2,2.2,0,0,1-.206,1.625c-.594.892-1.9.388-2.584,1.3a1.9,1.9,0,0,0-.229,1.737,1.944,1.944,0,0,0,1.784,1.121c1.006,0,1.4-.937,1.99-.8.641.184.845,1.419.937,2.127.5,3.683.824,5.673-.435,7.022-1.966,2.15-5.6,1.9-8.371.618a8.93,8.93,0,0,1-1.578-.892c-2.882-2.1-3.407-5.376-4-8.99-.937-5.787.412-11.55,3-13.563a11.882,11.882,0,0,1,1.143-.8,13.753,13.753,0,0,1,5.009-1.715c3.615-.527,8.349-1.235,10.065,1.282A3.458,3.458,0,0,1,96.817,181.452Z" transform="translate(-45.049 -159.493)" fill="#1a1b75"/>
        <g id="Grupo_891919" data-name="Grupo 891919" transform="translate(18.946 205.993)">
          <path id="Trazado_628471" data-name="Trazado 628471" d="M84.956,311.867a.538.538,0,0,1-.527.435H68.923a.563.563,0,0,1-.573-.549v-9.745h5.993c0,.229-.023.435-.023.618-.114,2.264-.184,2.882.229,3.613.594,1.1,1.692,1.488,3.293,2.1.069.023.161.069.253.092,1.6.594,3.842,1.486,6.563,2.813A.54.54,0,0,1,84.956,311.867Z" transform="translate(-68.35 -302.008)" fill="#f7b690"/>
          <path id="Trazado_628472" data-name="Trazado 628472" d="M84.956,309.743a.538.538,0,0,1-.527.435H68.923a.563.563,0,0,1-.573-.549V306.22h9.492c.069.023.161.069.253.092,1.6.594,3.842,1.486,6.563,2.813A.54.54,0,0,1,84.956,309.743Z" transform="translate(-68.35 -299.884)" fill="#1a1b75"/>
        </g>
        <g id="Grupo_891920" data-name="Grupo 891920" transform="translate(51.929 206.176)">
          <path id="Trazado_628473" data-name="Trazado 628473" d="M106.881,311.806a.582.582,0,0,1-.548.435H90.825a.557.557,0,0,1-.549-.549V302.13h5.969c0,.161-.023.3-.023.435-.114,2.264-.159,2.882.229,3.613.618,1.1,1.715,1.488,3.294,2.1.068.023.159.069.251.092,1.6.594,3.842,1.486,6.587,2.813A.566.566,0,0,1,106.881,311.806Z" transform="translate(-90.276 -302.13)" fill="#f7b690"/>
          <path id="Trazado_628474" data-name="Trazado 628474" d="M106.881,309.743a.582.582,0,0,1-.548.435H90.825a.557.557,0,0,1-.549-.549V306.22h9.47c.068.023.159.069.251.092,1.6.594,3.842,1.486,6.587,2.813A.566.566,0,0,1,106.881,309.743Z" transform="translate(-90.276 -300.067)" fill="#1a1b75"/>
        </g>
      </g>
      <g id="Grupo_891925" data-name="Grupo 891925" transform="translate(382.688 227.637)">
        <g id="Grupo_891922" data-name="Grupo 891922" transform="translate(1.158 32.631)">
          <path id="Rectángulo_328865" data-name="Rectángulo 328865" d="M1.307,0H21.423A1.307,1.307,0,0,1,22.73,1.307V31.144a1.307,1.307,0,0,1-1.307,1.307H1.308A1.308,1.308,0,0,1,0,31.144V1.307A1.307,1.307,0,0,1,1.307,0Z" transform="translate(0 8.189) rotate(-21.116)" fill="#cac3e3"/>
          <path id="Trazado_628475" data-name="Trazado 628475" d="M323.784,235.371a1.4,1.4,0,0,1-1.313-.9l-9.9-25.629a1.409,1.409,0,0,1,.806-1.822l15.488-5.983a1.414,1.414,0,0,1,1.822.806l9.9,25.632a1.4,1.4,0,0,1-.026,1.077,1.427,1.427,0,0,1-.784.745l-15.487,5.983A1.441,1.441,0,0,1,323.784,235.371Z" transform="translate(-310.134 -198.926)" fill="#fff"/>
          <rect id="Rectángulo_328866" data-name="Rectángulo 328866" width="10.007" height="3.134" transform="translate(5.471 4.697) rotate(-21.118)" fill="#91a1e1"/>
        </g>
        <path id="Trazado_628476" data-name="Trazado 628476" d="M317.882,219.971c.023.184.045.366.09.594-1.211.481-2.378,1.006-3.568,1.488-.182-.367-.366-.755-.594-1.143-.388-.663-.663-1.076-.87-1.419a16.729,16.729,0,0,1-2.79-8.394,6.847,6.847,0,0,1,.549-2.723,4.523,4.523,0,0,1,1.006-1.509,3.015,3.015,0,0,1,.435-.39c.161.412.412,1.053.709,1.831.894,2.333,1.076,2.881,1.465,3.774.3.731.754,1.829,1.3,3.179a4.56,4.56,0,0,0,.847-1.349c.412-1.006.343-1.807.8-1.968a.729.729,0,0,1,.594.114c.641.343.755,1.327.755,2.288C318.636,217.2,317.721,218.073,317.882,219.971Z" transform="translate(-310.15 -163.505)" fill="#f7b690"/>
        <path id="Trazado_628477" data-name="Trazado 628477" d="M352.149,283.957q-.1,25.32-.71,49.748h-8.6q-3.739-22.815-7.022-46.843-3.224-23.948-5.718-46.844c7.273,0,14.571,0,21.8.023Q352.239,261.655,352.149,283.957Z" transform="translate(-300.09 -146.589)" fill="#3a3b8e"/>
        <path id="Trazado_628478" data-name="Trazado 628478" d="M344.268,240.033q-6.966,46.934-13.93,93.87H321.83c-.755-15.005-1.212-30.7-1.3-46.958s.206-31.93.778-46.957C325.878,239.988,344.268,240.033,344.268,240.033Z" transform="translate(-304.926 -146.605)" fill="#4b4aa8"/>
        <path id="Trazado_628479" data-name="Trazado 628479" d="M363.589,242.6a4.224,4.224,0,0,1-3.248.114c-.114,3.407-.137,7.022-.023,10.795.069,2.517.206,4.919.366,7.251l-35.43-.068c.526-6.222,1.167-12.077,1.9-17.521a3.358,3.358,0,0,1-1.029.251c-4.621.366-9.79-6.426-13.45-17.361.161-.068.3-.137.457-.2,1.19-.481,2.357-1.006,3.568-1.488.092-.045.161-.068.253-.114a24.419,24.419,0,0,0,3.225,4.575c1.852,2.059,2.858,3.019,3.819,3.019,2.791,0,4.323-6.906,9.217-18.321a30.59,30.59,0,0,1,3.98-8.645c1.258-1.625,3.911-5.079,8.235-5.81a11.53,11.53,0,0,1,6.792,1.1c3.5,1.715,5.993,5.1,8.853,13.906C362.468,218.376,369.353,239.487,363.589,242.6Z" transform="translate(-308.877 -167.307)" fill="#7283f7"/>
        <path id="Trazado_628480" data-name="Trazado 628480" d="M323.378,238.088a.289.289,0,0,1-.209-.09.284.284,0,0,1,.015-.4,45.4,45.4,0,0,0,7.726-9.464,46.546,46.546,0,0,0,6.568-20.186.306.306,0,0,1,.31-.26.29.29,0,0,1,.262.31A47.132,47.132,0,0,1,331.4,228.43a45.917,45.917,0,0,1-7.825,9.579A.269.269,0,0,1,323.378,238.088Z" transform="translate(-303.623 -162.896)" fill="#556fb7"/>
        <g id="Grupo_891923" data-name="Grupo 891923" transform="translate(33.613 187.115)">
          <path id="Trazado_628481" data-name="Trazado 628481" d="M349.11,302.3v9.31a.557.557,0,0,1-.549.549H333.055a.586.586,0,0,1-.551-.435.569.569,0,0,1,.3-.618c2.745-1.327,4.987-2.219,6.587-2.813.092-.023.184-.069.251-.092,1.6-.617,2.7-1.006,3.294-2.1.388-.731.343-1.349.229-3.613V302.3Z" transform="translate(-332.495 -302.297)" fill="#f7b690"/>
          <path id="Trazado_628482" data-name="Trazado 628482" d="M349.11,306.22v3.409a.557.557,0,0,1-.549.549H333.055a.586.586,0,0,1-.551-.435.569.569,0,0,1,.3-.618c2.745-1.327,4.987-2.219,6.587-2.813.092-.023.184-.069.251-.092Z" transform="translate(-332.495 -300.319)" fill="#1a1b75"/>
        </g>
        <g id="Grupo_891924" data-name="Grupo 891924" transform="translate(7.691 187.299)">
          <path id="Trazado_628483" data-name="Trazado 628483" d="M331.886,302.419v9.127a.562.562,0,0,1-.572.549H315.806a.56.56,0,0,1-.527-.435.541.541,0,0,1,.3-.618c2.721-1.327,4.964-2.219,6.565-2.813.092-.023.182-.069.251-.092,1.6-.617,2.7-1.006,3.317-2.1.388-.731.32-1.349.206-3.613Z" transform="translate(-315.262 -302.419)" fill="#f7b690"/>
          <path id="Trazado_628484" data-name="Trazado 628484" d="M331.886,306.22v3.409a.562.562,0,0,1-.572.549H315.806a.56.56,0,0,1-.527-.435.541.541,0,0,1,.3-.618c2.721-1.327,4.964-2.219,6.565-2.813.092-.023.182-.069.251-.092Z" transform="translate(-315.262 -300.502)" fill="#1a1b75"/>
        </g>
        <path id="Trazado_628485" data-name="Trazado 628485" d="M344.423,193.989a2.253,2.253,0,0,1-1.394.845c-.961.138-1.282-.572-2.013-.5-1.143.114-1.1,1.921-2.631,2.9a3.782,3.782,0,0,1-3.591.343c-1.4-.8-1.19-2.607-3.019-3.591a3.849,3.849,0,0,0-.961-.344,2.077,2.077,0,0,1-.09.3c.3-1.852.754-4.483,1.509-7.594.48-1.944.847-3.27,1.143-4.185,3.317,2.172,9.264-.961,10.5,1.1,1.167,1.921-2.264,6.655-1.464,7.159.229.137.618-.206,1.349,0a2.024,2.024,0,0,1,1.006.663A2.505,2.505,0,0,1,344.423,193.989Z" transform="translate(-299.775 -175.766)" fill="#f7b690"/>
        <path id="Trazado_628486" data-name="Trazado 628486" d="M341.95,197.2c-.32,1.555-.549,2.86-.71,3.844a7.1,7.1,0,0,1-3.865.3,6.92,6.92,0,0,1-2.927-1.395,3.432,3.432,0,0,0,.114-.457A11.632,11.632,0,0,0,341.95,197.2Z" transform="translate(-297.896 -168.182)" fill="#f7b690"/>
        <path id="Trazado_628487" data-name="Trazado 628487" d="M349.943,191.056a31.316,31.316,0,0,1-1.715,8.6c-1.351,3.774-2.082,5.742-3.98,7.273a11.632,11.632,0,0,1-7.388,2.288c-2.929-.069-5.581-1.076-6.542-2.813-.663-1.212-.457-2.86-.023-6.153a31.239,31.239,0,0,1,.847-4.14c.045-.138.068-.229.09-.322a3.849,3.849,0,0,1,.961.344c1.829.984,1.623,2.79,3.019,3.591a3.782,3.782,0,0,0,3.591-.343c1.533-.984,1.488-2.79,2.631-2.9.731-.069,1.052.641,2.013.5a2.253,2.253,0,0,0,1.394-.845,2.505,2.505,0,0,0,.343-2.9,2.024,2.024,0,0,0-1.006-.663c-.731-.206-1.121.137-1.349,0-.8-.5,2.631-5.238,1.464-7.159-1.235-2.059-7.182,1.074-10.5-1.1a3.79,3.79,0,0,1-.572-.457c-1.349-1.3-1.829-3.615-1.029-4.8,1.692-2.584,9.057,0,10.019.344,2.766.96,5.6,1.944,7.09,4.665C350.241,185.818,350.149,187.557,349.943,191.056Z" transform="translate(-300.194 -177.911)" fill="#1a1b75"/>
      </g>
      <g id="Grupo_891928" data-name="Grupo 891928" transform="translate(278.377)">
        <path id="Trazado_628488" data-name="Trazado 628488" d="M248.708,145.527h7.479q7.343-15.062,14.684-30.169c-1.441-7.433-2.676-14.661-3.728-21.638a3.588,3.588,0,0,1-.069-.5c-.023-.137-.045-.251-.068-.39-.161-1.235-.32-2.47-.435-3.636Q257.616,117.359,248.708,145.527Z" transform="translate(-236.826 4.985)" fill="#3a3b8e"/>
        <path id="Trazado_628489" data-name="Trazado 628489" d="M286.749,45.783a4.388,4.388,0,0,0,2.241-.137,3.807,3.807,0,0,0,1.829-1.578c.618,1.441,1.235,2.881,1.829,4.3a6.25,6.25,0,0,0,2.472-.411,7.3,7.3,0,0,0,1.029-.5,5.743,5.743,0,0,0,1.3-1.006c-2.217-2.035-2.858-2.631-3.477-3.683a10.38,10.38,0,0,1-1.372-5.169,1.972,1.972,0,0,0,1.784-.5,1.73,1.73,0,0,0,.481-1.372,1.662,1.662,0,0,0-1.328-1.486c-.686-.047-1.235.549-1.555.823-2.309,2.013-8.484.778-11.779-2.745C279.5,38.12,284.14,45.234,286.749,45.783Z" transform="translate(-220.977 -23.701)" fill="#f7b690"/>
        <path id="Trazado_628490" data-name="Trazado 628490" d="M284.409,97.12h28c-.549-4.117-2.586-18.3-2.654-18.756-3.088-19.807-5.215-27.242-11.048-33.554a32.878,32.878,0,0,0-3.362-3.133,5.939,5.939,0,0,1-1.349,1.052,7.293,7.293,0,0,1-1.029.5,6.25,6.25,0,0,1-2.472.411c-.937,3.317-1.807,6.016-2.423,7.846-1.625,4.94-2.47,6.769-2.425,9.721a16.554,16.554,0,0,0,1.121,5.649C288.092,70.611,288.5,78.593,284.409,97.12Z" transform="translate(-218.821 -18.978)" fill="#ff457c"/>
        <path id="Trazado_628491" data-name="Trazado 628491" d="M303.847,45.116c-2.435,1.373-1.978,6.435.074,21.648.576,4.275,1.086,7.928,1.485,10.735-3.729,1.634-6.932,2.9-9.375,3.819-5.727,2.16-11.127,4.2-15.7,4.856-.442.063-1.513.248-3.648.671-2.876.567-3.878.86-4.987,1.473a6.413,6.413,0,0,0-1.853,1.414,8.191,8.191,0,0,0-1.283,2.721c-.809,2.278-.505,2.621-.394,2.712a.514.514,0,0,0,.3.108c1.133.026,1.679-4.176,2.783-4.189.563-.008.53,1.089,1.5,1.539,1.595.739,4.1-1.088,4.376-1.289a6.455,6.455,0,0,1,2.171-1.425,4.164,4.164,0,0,1,1.772-.1,173.729,173.729,0,0,0,19.87-3.182c9.092-2.007,11.015-3.215,12.248-4.984,1.9-2.729.854-4.921-.913-16.88-1.9-12.878-1.882-18.395-5.408-19.7A3.808,3.808,0,0,0,303.847,45.116Z" transform="translate(-227.088 -17.422)" fill="#f7b690"/>
        <path id="Trazado_628492" data-name="Trazado 628492" d="M279.429,33.412c.092.641.48,1.053,1.143,1.762,3.294,3.546,9.47,4.781,11.779,2.768.32-.274.87-.869,1.555-.823a1.662,1.662,0,0,1,1.328,1.486,1.73,1.73,0,0,1-.481,1.372,1.972,1.972,0,0,1-1.784.5,10.381,10.381,0,0,0,1.372,5.169c.618,1.076,1.282,1.67,3.592,3.8.548.527,3.544,3.362,4.024,3.8,5.285,6.153,7.367,13.769,10.317,32.731a7.052,7.052,0,0,0,4.62-.869,7.125,7.125,0,0,0,2.723-3.956c2.721-8.349-4.346-20.723-6.748-24.68-3.454-5.7-3.2-4-6.632-9.447-7.228-11.458-7.3-18.3-13.015-20.013a10.836,10.836,0,0,0-5.146-.206C283.8,27.328,279.063,30.736,279.429,33.412Z" transform="translate(-221.343 -26.587)" fill="#1a1b75"/>
        <path id="Trazado_628493" data-name="Trazado 628493" d="M260.617,93.949c.024.206.047.412.069.618.114,1.166.274,2.4.457,3.636a2.279,2.279,0,0,0,.045.39c.024.182.024.343.047.5,1.074,6.977,2.309,14.205,3.75,21.638.549,2.768,1.121,5.581,1.739,8.417q2.4,11.219,5.124,21.546h6.724q-.411-25.764-.823-51.554l32.57-.047c3.913-.343,7.892-.823,10.935-3.865,5.283-5.285,3.75-14.273,3.27-16.7H293.6c-.481,0-4.346.114-12.123.32-12.832.388-15.919.527-18.252,2.745C259.794,84.892,260.274,90.564,260.617,93.949Z" transform="translate(-230.94 -0.391)" fill="#4b4aa8"/>
        <path id="Trazado_628494" data-name="Trazado 628494" d="M262.788,89.9c.083,0,27.183-1.954,27.183-1.954a1.145,1.145,0,0,0-.165-2.284l-25.963,1.871L261.9,61.849a1.144,1.144,0,1,0-2.281.173l2.025,26.817A1.145,1.145,0,0,0,262.788,89.9Z" transform="translate(-231.323 -9.339)" fill="#a49dce"/>
        <g id="Grupo_891926" data-name="Grupo 891926" transform="translate(30.884 150.305)">
          <path id="Trazado_628495" data-name="Trazado 628495" d="M261.345,135.128a.448.448,0,0,0,.435.32h15.142a.415.415,0,0,0,.411-.435V126.5h-5.467a6.95,6.95,0,0,1-.343,3.2c-.525,1.006-1.395,1.4-3.5,2.241-.526.206-1.143.457-1.829.733-1.121.435-2.7,1.1-4.621,1.944-.023.023-.068.047-.114.092A.52.52,0,0,0,261.345,135.128Z" transform="translate(-261.339 -126.504)" fill="#f7b690"/>
          <path id="Trazado_628496" data-name="Trazado 628496" d="M261.345,133.3a.448.448,0,0,0,.435.32h15.142a.415.415,0,0,0,.411-.435v-3.066h-9.309c-.526.206-1.143.457-1.829.733-1.121.435-2.7,1.1-4.621,1.944-.023.023-.068.047-.114.092A.52.52,0,0,0,261.345,133.3Z" transform="translate(-261.339 -124.679)" fill="#1a1b75"/>
        </g>
        <g id="Grupo_891927" data-name="Grupo 891927" transform="translate(0 150.512)">
          <path id="Trazado_628497" data-name="Trazado 628497" d="M240.821,135.173a.414.414,0,0,0,.411.343h15.142a.417.417,0,0,0,.412-.343c.32-1.1,2.013-6.771,2.538-8.532h-5.808a8.985,8.985,0,0,1-1.808,3.294c-.984,1.052-1.876,1.3-3.773,1.944-1.076.367-2.449.847-4.323,1.647-1.121.48-1.99.892-2.539,1.166A.4.4,0,0,0,240.821,135.173Z" transform="translate(-240.809 -126.641)" fill="#f7b690"/>
          <path id="Trazado_628498" data-name="Trazado 628498" d="M240.821,133.417a.414.414,0,0,0,.411.343h15.142a.417.417,0,0,0,.412-.343c.32-1.1.663-2.2.982-3.294h-9.834c-1.076.367-2.449.847-4.323,1.647-1.121.48-1.99.892-2.539,1.166A.4.4,0,0,0,240.821,133.417Z" transform="translate(-240.809 -124.885)" fill="#1a1b75"/>
        </g>
      </g>
    </g>
  </g>
</svg>
