<svg xmlns="http://www.w3.org/2000/svg" width="87" height="87" viewBox="0 0 87 87">
  <g id="Grupo_895189" data-name="Grupo 895189" transform="translate(-303 -5335.244)">
    <path id="Trazado_628421" data-name="Trazado 628421" d="M87,43.5A43.5,43.5,0,1,1,43.5,0,43.5,43.5,0,0,1,87,43.5Zm0,0" transform="translate(303 5335.244)" fill="#ffda00"/>
    <path id="Trazado_628422" data-name="Trazado 628422" d="M155.729,135.156l-36.764-32.935-2.021,14.144-7.362-5.219,2.648,22.057L87.142,157.28l22.441,21.12c.877.053,1.759.083,2.648.083A43.5,43.5,0,0,0,155.729,135.156Zm0,0" transform="translate(234.269 5243.76)" fill="#ffb600"/>
    <g id="hacker" transform="translate(314 5342.245)">
      <path id="Trazado_629696" data-name="Trazado 629696" d="M50.57,57.266h5.1a4.9,4.9,0,0,0,4.79-5.946L55.625,29.213a4.926,4.926,0,0,0-4.1-3.812l-4.89-.7H18.95l-4.9.7a4.926,4.926,0,0,0-4.1,3.812L5.111,51.32A4.9,4.9,0,0,0,9.9,57.266H15v1.111H50.57Z" transform="translate(0 2.642)" fill="#0a2c5e"/>
      <path id="Trazado_629697" data-name="Trazado 629697" d="M41.274,33.232A19.284,19.284,0,0,0,47.131,19.85C47.1,10.948,37.495.989,31.515,1S15.988,11.037,16.01,19.939a19.255,19.255,0,0,0,5.846,13.293Z" transform="translate(1.227)" fill="#153a77"/>
      <path id="Trazado_629698" data-name="Trazado 629698" d="M31.115,31.783C25.987,31.783,20,27.519,20,18.99c0-6.654,22.229-6.654,22.229,0C42.229,27.519,36.242,31.783,31.115,31.783Z" transform="translate(1.672 1.449)" fill="#0a2c5e"/>
      <path id="Trazado_629699" data-name="Trazado 629699" d="M39.649,15.779c-1.067,5.58-3.49,11.559-8.769,11.559s-7.7-5.98-8.769-11.559C26.378,13.4,35.381,13.4,39.649,15.779Z" transform="translate(1.907 1.448)" fill="#fff"/>
      <path id="Trazado_629700" data-name="Trazado 629700" d="M50.768,33.746,47.9,56.675l-.445,1.111H16.335l-.445-1.111L13.022,33.746A3.34,3.34,0,0,1,16.335,30H47.456a3.34,3.34,0,0,1,3.312,3.746Z" transform="translate(0.892 3.232)" fill="#d0e6f4"/>
      <g id="Grupo_895184" data-name="Grupo 895184" transform="translate(12.78 42.124)">
        <rect id="Rectángulo_329041" data-name="Rectángulo 329041" width="40.013" height="5.557" rx="2" transform="translate(0 17.783)" fill="#aec7d3"/>
        <circle id="Elipse_6828" data-name="Elipse 6828" cx="4.446" cy="4.446" r="4.446" transform="translate(15.56)" fill="#aec7d3"/>
      </g>
    </g>
    <g id="Grupo_895188" data-name="Grupo 895188" transform="translate(3 4)">
      <g id="Grupo_895187" data-name="Grupo 895187" transform="translate(336.186 5351.672)">
        <path id="Trazado_629705" data-name="Trazado 629705" d="M361.718,111.033c-.106,1.435.471,8.925,2.518,10.569,2.736,2.2,3.582,4.076,4.936,4.08,2.082,0,2.929-2.028,5.446-4.11,2.195-1.815,2.222-9.695,2.222-9.695s-5.7-1.879-7.669-1.8C367.262,110.149,361.718,111.033,361.718,111.033Z" transform="translate(-361.706 -110.072)" fill="#fff"/>
        <path id="Trazado_629706" data-name="Trazado 629706" d="M369.863,115.453a2.23,2.23,0,0,0-1.977-1.948c-1.411-.207-4.022,1.575-4.022,1.741s-.207.581.5.208,2.578-1.336,3.407-1.052,1.046,1.43,1.243,1.43S369.81,115.8,369.863,115.453Z" transform="translate(-363.186 -112.446)" fill="#121111"/>
        <path id="Trazado_629707" data-name="Trazado 629707" d="M391.233,115.453a2.23,2.23,0,0,1,1.977-1.948c1.412-.207,4.023,1.575,4.023,1.741s.207.581-.5.208-2.487-1.192-3.316-.907-1.014,1.322-1.212,1.322S391.286,115.8,391.233,115.453Z" transform="translate(-382.223 -112.446)" fill="#121111"/>
        <path id="Trazado_629709" data-name="Trazado 629709" d="M366.494,132.376s.749,3.682,3.136,3.519c2.006-.136,2.093-1.284,2.267-1.036s1.443.264.872.566c-.2.107-.394.826-.944,1.091a4.379,4.379,0,0,1-3.221.3C366.531,136.088,366.054,132.459,366.494,132.376Z" transform="translate(-364.929 -125.573)" fill="#040506"/>
        <path id="Trazado_629710" data-name="Trazado 629710" d="M393.828,132.376s-.748,3.682-3.136,3.519c-2.006-.136-2.092-1.284-2.267-1.036s-1.442.264-.871.566c.2.107.395.826.944,1.091a4.377,4.377,0,0,0,3.22.3C393.791,136.088,394.268,132.459,393.828,132.376Z" transform="translate(-379.568 -125.573)" fill="#040506"/>
        <g id="Grupo_895185" data-name="Grupo 895185" transform="translate(2.201 3.895)">
          <path id="Trazado_629711" data-name="Trazado 629711" d="M368.951,122.928a1.459,1.459,0,0,0,.846-.025,2.863,2.863,0,0,1,2.041.36c.728.407.518.6.518.6a5.935,5.935,0,0,1-1.592.119C370,123.914,368.718,122.888,368.951,122.928Z" transform="translate(-368.923 -122.844)" fill="#040506"/>
          <path id="Trazado_629712" data-name="Trazado 629712" d="M398.849,123.159a1.461,1.461,0,0,1-.846-.025,2.864,2.864,0,0,0-2.041.36c-.728.407-.518.6-.518.6a5.932,5.932,0,0,0,1.592.12C397.8,124.145,399.083,123.118,398.849,123.159Z" transform="translate(-387.336 -123.004)" fill="#040506"/>
        </g>
        <path id="Trazado_629713" data-name="Trazado 629713" d="M384.629,136.562s.133.738-.378.817a1.924,1.924,0,0,0-.958.468.658.658,0,0,1-.336.106h-.318a.661.661,0,0,1-.336-.106,1.923,1.923,0,0,0-.958-.468c-.51-.078-.378-.817-.378-.817-.364.332-.216.835.5,1.08s.5.6,1,.678a3.732,3.732,0,0,0,.661,0c.507-.083.289-.432,1-.678S384.993,136.894,384.629,136.562Z" transform="translate(-374.959 -128.482)" fill="#040506"/>
        <path id="Trazado_629714" data-name="Trazado 629714" d="M385.629,149.714h-1.985a1.194,1.194,0,0,1,.474.662c.054.373-.412.591-.288,1.243s.311,1.488.806,1.488c.4,0,.681-.835.806-1.488s-.342-.87-.288-1.243A1.194,1.194,0,0,1,385.629,149.714Z" transform="translate(-376.953 -137.623)" fill="#121111"/>
        <g id="Grupo_895186" data-name="Grupo 895186" transform="translate(2.488 6.209)">
          <path id="Trazado_629715" data-name="Trazado 629715" d="M369.865,132.01c.023-.616.358-1.486,1.187-1.569s1.579.257,1.618,1.268a1.4,1.4,0,0,1-1.618,1.468C370.264,133.052,369.84,132.653,369.865,132.01Z" transform="translate(-369.864 -130.429)" fill="#ec8085"/>
          <path id="Trazado_629716" data-name="Trazado 629716" d="M399.021,132.01c-.023-.616-.358-1.486-1.186-1.569s-1.579.257-1.618,1.268a1.4,1.4,0,0,0,1.618,1.468C398.622,133.052,399.045,132.653,399.021,132.01Z" transform="translate(-388.177 -130.429)" fill="#ec8085"/>
        </g>
        <path id="Trazado_629717" data-name="Trazado 629717" d="M378.061,144.8a10.09,10.09,0,0,0,2.851.663,22.168,22.168,0,0,0,3.286-.332,12.024,12.024,0,0,1-3.455.787A4.617,4.617,0,0,1,378.061,144.8Z" transform="translate(-373.073 -134.208)" fill="#040506"/>
      </g>
    </g>
    <path id="Trazado_629719" data-name="Trazado 629719" d="M-4172.509-6337.725a30.184,30.184,0,0,1,7.8-1.253,43.038,43.038,0,0,1,8.75.979l1.315-3.854s-10.612-2.812-15.283-.771-3.129,1.451-3.129,1.451Z" transform="translate(4511 11700)" fill="#12263f" opacity="0.33"/>
    <path id="Trazado_629718" data-name="Trazado 629718" d="M-4174.561-6339.3s7.845-7.074,20.543,0-6.712-11.927-6.712-11.927-10.521,1.859-10.884,2.449-2.721,3.22-3.446,5.079a27.421,27.421,0,0,0-1.27,3.447C-4176.6-6339.167-4174.561-6339.3-4174.561-6339.3Z" transform="translate(4511 11700)" fill="#153a77"/>
  </g>
</svg>
