<svg xmlns="http://www.w3.org/2000/svg" width="66" height="66" viewBox="0 0 66 66">
  <g id="lista" transform="translate(-0.976 -1.233)">
    <path id="Trazado_628406" data-name="Trazado 628406" d="M68.1,29.026v36.13A3.1,3.1,0,0,1,65,68.25H33.879a3.1,3.1,0,0,1-3.095-3.095V29.026a3.1,3.1,0,0,1,3.095-3.095H65A3.1,3.1,0,0,1,68.1,29.026Z" transform="translate(-14.374 -11.931)" fill="#be8700"/>
    <path id="Trazado_628408" data-name="Trazado 628408" d="M66.187,27.114v36.13a3.1,3.1,0,0,1-3.095,3.095H31.971a3.085,3.085,0,0,1-3.048-2.589,2.747,2.747,0,0,0,.505.046H53.607A10.038,10.038,0,0,0,63.645,53.758V24.571a2.718,2.718,0,0,0-.046-.505A3.086,3.086,0,0,1,66.187,27.114Z" transform="translate(-13.472 -11.028)" fill="#dddce0"/>
    <g id="Grupo_895182" data-name="Grupo 895182">
      <g id="Grupo_891883" data-name="Grupo 891883" transform="translate(0.976 1.272)">
        <g id="Grupo_891882" data-name="Grupo 891882" transform="translate(0 0)">
          <g id="Grupo_891881" data-name="Grupo 891881" transform="translate(0 0)">
            <circle id="Elipse_6785" data-name="Elipse 6785" cx="33" cy="33" r="33" transform="translate(0 -0.039)" fill="#ffb500"/>
          </g>
        </g>
      </g>
      <path id="Trazado_628407" data-name="Trazado 628407" d="M66.141,27.07V63.2a3.1,3.1,0,0,1-3.095,3.095H31.923A3.1,3.1,0,0,1,28.829,63.2V27.07a3.1,3.1,0,0,1,3.095-3.095H63.046A3.1,3.1,0,0,1,66.141,27.07Z" transform="translate(-13.427 -10.983)" fill="#ededed"/>
      <g id="Grupo_891885" data-name="Grupo 891885" transform="translate(21.2 19.671)">
        <path id="Trazado_628409" data-name="Trazado 628409" d="M43.838,69.3a2.2,2.2,0,1,1-1.559-.649A2.2,2.2,0,0,1,43.838,69.3Z" transform="translate(-40.069 -52.289)" fill="#dddce0"/>
        <path id="Trazado_628410" data-name="Trazado 628410" d="M71.643,70.861a2.215,2.215,0,0,1-2.207,2.207H54.371a2.207,2.207,0,0,1,0-4.414H69.436A2.215,2.215,0,0,1,71.643,70.861Z" transform="translate(-45.925 -52.289)" fill="#dddce0"/>
        <path id="Trazado_628411" data-name="Trazado 628411" d="M52.163,39.132a2.214,2.214,0,0,1,2.207-2.207H69.436a2.209,2.209,0,0,1,0,4.418H54.371A2.215,2.215,0,0,1,52.163,39.132Z" transform="translate(-45.925 -36.925)" fill="#dddce0"/>
        <path id="Trazado_628412" data-name="Trazado 628412" d="M43.838,37.574a2.2,2.2,0,1,1-1.559-.649A2.2,2.2,0,0,1,43.838,37.574Z" transform="translate(-40.069 -36.925)" fill="#dddce0"/>
        <path id="Trazado_628413" data-name="Trazado 628413" d="M71.643,86.723a2.215,2.215,0,0,1-2.207,2.207H54.371a2.207,2.207,0,0,1,0-4.414H69.436a2.215,2.215,0,0,1,2.207,2.207Z" transform="translate(-45.925 -59.97)" fill="#dddce0"/>
        <path id="Trazado_628414" data-name="Trazado 628414" d="M43.838,85.165a2.2,2.2,0,1,1-1.559-.649A2.2,2.2,0,0,1,43.838,85.165Z" transform="translate(-40.069 -59.97)" fill="#dddce0"/>
        <path id="Trazado_628415" data-name="Trazado 628415" d="M71.643,55a2.214,2.214,0,0,1-2.207,2.207H54.371a2.207,2.207,0,0,1,0-4.414H69.436A2.215,2.215,0,0,1,71.643,55Z" transform="translate(-45.925 -44.608)" fill="#dddce0"/>
        <path id="Trazado_628416" data-name="Trazado 628416" d="M43.838,53.439a2.2,2.2,0,1,1-1.559-.649A2.2,2.2,0,0,1,43.838,53.439Z" transform="translate(-40.069 -44.608)" fill="#dddce0"/>
      </g>
    </g>
    <g id="Grupo_891886" data-name="Grupo 891886" transform="translate(16.916 14.194)">
      <path id="Trazado_628417" data-name="Trazado 628417" d="M58.278,26.95a.649.649,0,0,1-.645.65H50.9a.647.647,0,0,1,0-1.295h6.736A.645.645,0,0,1,58.278,26.95Z" transform="translate(-40.716 -26.306)" fill="#fff"/>
      <path id="Trazado_628418" data-name="Trazado 628418" d="M43.2,26.95a.649.649,0,0,1-.645.65H39.043a.647.647,0,1,1,0-1.295h3.512A.645.645,0,0,1,43.2,26.95Z" transform="translate(-34.973 -26.306)" fill="#fff"/>
      <path id="Trazado_628419" data-name="Trazado 628419" d="M32.413,52.6a.649.649,0,0,1-.65-.645V45.224a.647.647,0,0,1,1.295,0V51.96A.645.645,0,0,1,32.413,52.6Z" transform="translate(-31.763 -35.154)" fill="#fff"/>
      <path id="Trazado_628420" data-name="Trazado 628420" d="M32.413,37.526a.649.649,0,0,1-.65-.645V33.369a.647.647,0,1,1,1.295,0v3.512A.645.645,0,0,1,32.413,37.526Z" transform="translate(-31.763 -29.411)" fill="#fff"/>
    </g>
  </g>
</svg>
