<svg id="Grupo_895170" data-name="Grupo 895170" xmlns="http://www.w3.org/2000/svg" width="149.119" height="149.119" viewBox="0 0 149.119 149.119">
  <g id="Grupo_895171" data-name="Grupo 895171">
    <path id="Trazado_629672" data-name="Trazado 629672" d="M192.01,33.216Q198.058,39.2,204.1,45.19c1.752,1.739,3.487,3.495,5.343,5.356L251.536,8.788H231.593V0h34.95V34.95H257.82V14.99L209.542,62.934a5.376,5.376,0,0,1-.673-.492q-8.238-8.225-16.462-16.463a5.248,5.248,0,0,1-.435-.567q.019-6.1.036-12.2" transform="translate(-117.424)" fill="#9ea257"/>
    <path id="Trazado_629673" data-name="Trazado 629673" d="M35.241,361.375H70.191l4.372.1q0,4.345,0,8.689H0v-8.737l8.737-.049h26.5" transform="translate(0 -221.042)" fill="#2d5177"/>
    <path id="Trazado_629674" data-name="Trazado 629674" d="M192,370.161q0-4.344,0-8.689l4.365-.1h61.455l8.737.048v8.737Z" transform="translate(-117.44 -221.042)" fill="#32405d"/>
    <path id="Trazado_629675" data-name="Trazado 629675" d="M307.1,222.983H294V135.122h13.115q-.005,43.931-.01,87.861" transform="translate(-179.83 -82.65)" fill="#a3314f"/>
    <path id="Trazado_629676" data-name="Trazado 629676" d="M327.746,222.983q.005-43.93.01-87.861h13.1v87.861H327.746" transform="translate(-200.472 -82.65)" fill="#6e2034"/>
    <path id="Trazado_629677" data-name="Trazado 629677" d="M126.356,250.509H113.25V180.123h13.114q0,35.193-.009,70.386" transform="translate(-69.271 -110.176)" fill="#a3314f"/>
    <path id="Trazado_629678" data-name="Trazado 629678" d="M147,250.509q0-35.193.009-70.386h13.1v70.386H147" transform="translate(-89.915 -110.176)" fill="#6e2034"/>
    <path id="Trazado_629679" data-name="Trazado 629679" d="M77.516,57.867q-.018,6.1-.037,12.2-8-7.951-15.988-15.906c-.443-.442-.821-.951-1.358-1.581l-49.613,49.3-5.73-5.748L59.724,40.3,77.516,57.867" transform="translate(-2.931 -24.651)" fill="#ced371"/>
    <path id="Trazado_629680" data-name="Trazado 629680" d="M250.393,278.034h-13.4q.006-26.456.011-52.911h13.39Z" transform="translate(-144.961 -137.701)" fill="#f9bd2c"/>
    <path id="Trazado_629681" data-name="Trazado 629681" d="M216.363,225.123l-.01,52.911h-13.1V225.123Z" transform="translate(-124.32 -137.701)" fill="#fdd743"/>
    <path id="Trazado_629682" data-name="Trazado 629682" d="M35.894,291.8H22.5V247.623H35.9q0,22.087-.01,44.173" transform="translate(-13.762 -151.463)" fill="#fdd743"/>
    <path id="Trazado_629683" data-name="Trazado 629683" d="M56.994,291.8q0-22.087.01-44.173H70.1V291.8H56.994" transform="translate(-34.861 -151.463)" fill="#f9bd2c"/>
  </g>
</svg>
