<svg xmlns="http://www.w3.org/2000/svg" width="116.355" height="150.012" viewBox="0 0 116.355 150.012">
  <g id="Grupo_895173" data-name="Grupo 895173" transform="translate(-35.564 -0.612)">
    <g id="Grupo_895174" data-name="Grupo 895174" transform="translate(35.564 0.612)">
      <path id="Trazado_629684" data-name="Trazado 629684" d="M141.933,173.4H45.611a3.183,3.183,0,0,0-.649-.281,11.262,11.262,0,0,1-9.4-11.306c.17-21.423.063-42.847.063-64.272,0-13.811-.038-27.622.026-41.433a11.568,11.568,0,0,1,4.319-8.9c2.692-2.358,5.9-2.933,9.247-2.991,5.574-.1,11.15-.013,16.725-.005V57.864H121.4V44.172q9.526.142,19.053.281a11.908,11.908,0,0,1,11.459,11.759q.025,53.166,0,106.331a9.968,9.968,0,0,1-5.634,9.228,32.131,32.131,0,0,1-4.343,1.63M111.621,89.6q10.563,0,21.126-.006c2.41-.005,4.074-1.491,4.151-3.627.078-2.16-1.612-3.764-4.077-3.866-.244-.01-.489,0-.733,0q-20.54,0-41.079,0A9.749,9.749,0,0,0,89.4,82.2a3.631,3.631,0,0,0-3.046,4.264c.313,1.943,1.842,3.121,4.137,3.124q10.563.016,21.127,0m-.1,22.466q-7.407,0-14.813,0c-2.3,0-4.6-.05-6.892.048a3.566,3.566,0,0,0-3.485,4.029c.193,2.1,1.742,3.362,4.2,3.364q21.047.01,42.093,0a8.068,8.068,0,0,0,1.025-.034,3.755,3.755,0,0,0,3.222-3.313,3.705,3.705,0,0,0-2.5-3.874,7.822,7.822,0,0,0-2.174-.214q-10.34-.022-20.68-.009m.01,37.365q10.267,0,20.533,0c3.064,0,4.786-1.308,4.832-3.66.046-2.387-1.737-3.771-4.872-3.771q-20.459,0-40.919,0c-.489,0-.98-.009-1.465.038a3.706,3.706,0,0,0,.625,7.384c7.089.024,14.178.009,21.266.01M62.345,85.034c-1.86-1.741-3.636-3.405-5.415-5.065a3.659,3.659,0,0,0-3.939-.828,3.054,3.054,0,0,0-2.22,3.122,6.166,6.166,0,0,0,1.4,3.353c2.157,2.452,4.536,4.71,6.826,7.045,2.088,2.128,3.887,2.188,6.085.145q6.866-6.383,13.7-12.8a6.958,6.958,0,0,0,.8-.849,3.892,3.892,0,0,0-.382-5.19,3.7,3.7,0,0,0-5.166-.035c-.333.286-.64.6-.959.9l-10.739,10.2m.07,29.868c-1.784-1.618-3.379-3.13-5.053-4.55a6.406,6.406,0,0,0-2.329-1.391,3.3,3.3,0,0,0-3.852,1.688,3.818,3.818,0,0,0,.73,4.7c2.329,2.433,4.7,4.826,7.06,7.228,2.137,2.174,3.935,2.2,6.2.085q3.91-3.644,7.815-7.295c2.068-1.933,4.146-3.856,6.193-5.812a3.75,3.75,0,0,0,1.038-4.025,3.659,3.659,0,0,0-2.891-2.618,3.931,3.931,0,0,0-3.686,1.319c-3.806,3.637-7.629,7.256-11.226,10.672m.019,29.917c-1.79-1.611-3.387-3.126-5.075-4.532a6.61,6.61,0,0,0-2.473-1.421,3.265,3.265,0,0,0-3.709,1.72,3.757,3.757,0,0,0,.655,4.591c2.39,2.516,4.83,4.986,7.265,7.458,1.951,1.979,3.853,2.014,5.893.122q3.548-3.291,7.077-6.6t7.063-6.619a3.775,3.775,0,0,0,1.062-4.154,3.625,3.625,0,0,0-3.1-2.573,3.961,3.961,0,0,0-3.418,1.319c-3.812,3.645-7.641,7.271-11.24,10.692" transform="translate(-35.564 -23.391)" fill="#d3e0f3"/>
      <path id="Trazado_629686" data-name="Trazado 629686" d="M99.251,21.431V11.793h8.6c1.517,0,3.3.488,4.472-.149,1.058-.577,1.4-2.407,2.13-3.643,3.1-5.257,7.742-7.764,13.811-7.343a13.692,13.692,0,0,1,12.1,9.825,1.539,1.539,0,0,0,1.8,1.333c4.1-.056,8.2-.022,12.534-.022V35.085H99.251Z" transform="translate(-68.87 -0.612)" fill="#01cdb4"/>
      <path id="Trazado_629687" data-name="Trazado 629687" d="M167.247,131.168q-10.563,0-21.126,0c-2.3,0-3.824-1.181-4.137-3.124a3.63,3.63,0,0,1,3.045-4.264,9.76,9.76,0,0,1,1.606-.106q20.539-.008,41.079,0c.245,0,.489-.007.734,0,2.465.1,4.155,1.706,4.077,3.866-.077,2.137-1.742,3.622-4.151,3.627q-10.563.023-21.126.006" transform="translate(-91.19 -64.963)" fill="#0c3b65"/>
      <path id="Trazado_629688" data-name="Trazado 629688" d="M167.157,186.477q10.34,0,20.68.009a7.859,7.859,0,0,1,2.174.214,3.7,3.7,0,0,1,2.5,3.874,3.755,3.755,0,0,1-3.222,3.313,8.065,8.065,0,0,1-1.025.034q-21.047,0-42.093,0c-2.459,0-4.008-1.262-4.2-3.364a3.566,3.566,0,0,1,3.486-4.029c2.294-.1,4.594-.045,6.891-.047q7.407-.006,14.813,0" transform="translate(-91.199 -97.807)" fill="#083863"/>
      <path id="Trazado_629689" data-name="Trazado 629689" d="M167.166,256.667c-7.089,0-14.178.015-21.266-.009a3.706,3.706,0,0,1-.625-7.384c.485-.046.976-.038,1.465-.038q20.459,0,40.919,0c3.135,0,4.918,1.385,4.872,3.771-.046,2.352-1.768,3.659-4.832,3.66q-10.266,0-20.533,0" transform="translate(-91.198 -130.633)" fill="#083863"/>
      <path id="Trazado_629690" data-name="Trazado 629690" d="M79.005,116.53l10.739-10.2c.319-.3.626-.619.959-.9a3.7,3.7,0,0,1,5.166.034,3.893,3.893,0,0,1,.382,5.191,6.959,6.959,0,0,1-.8.849q-6.846,6.4-13.7,12.8c-2.2,2.043-4,1.983-6.085-.145-2.291-2.335-4.669-4.594-6.826-7.046a6.158,6.158,0,0,1-1.4-3.352,3.053,3.053,0,0,1,2.22-3.122,3.659,3.659,0,0,1,3.939.828c1.779,1.66,3.554,3.324,5.415,5.065" transform="translate(-52.224 -54.887)" fill="#02bb65"/>
      <path id="Trazado_629691" data-name="Trazado 629691" d="M78.983,179.206c3.6-3.416,7.419-7.035,11.226-10.672a3.929,3.929,0,0,1,3.686-1.319,3.658,3.658,0,0,1,2.891,2.618,3.752,3.752,0,0,1-1.038,4.025c-2.047,1.955-4.125,3.878-6.193,5.812q-3.906,3.65-7.815,7.295c-2.264,2.111-4.062,2.089-6.2-.085-2.361-2.4-4.731-4.8-7.061-7.228a3.819,3.819,0,0,1-.729-4.7,3.3,3.3,0,0,1,3.852-1.688,6.406,6.406,0,0,1,2.329,1.391c1.674,1.42,3.269,2.932,5.053,4.55" transform="translate(-52.132 -87.695)" fill="#02bb65"/>
      <path id="Trazado_629692" data-name="Trazado 629692" d="M79,241.949c3.6-3.421,7.428-7.047,11.24-10.692a3.961,3.961,0,0,1,3.418-1.319,3.625,3.625,0,0,1,3.1,2.573,3.775,3.775,0,0,1-1.062,4.154q-3.518,3.324-7.063,6.619t-7.077,6.6c-2.04,1.892-3.942,1.858-5.893-.122-2.436-2.472-4.875-4.942-7.265-7.458a3.757,3.757,0,0,1-.655-4.591A3.265,3.265,0,0,1,71.449,236a6.61,6.61,0,0,1,2.473,1.421c1.687,1.407,3.285,2.921,5.075,4.532" transform="translate(-52.127 -120.52)" fill="#02bb65"/>
    </g>
  </g>
</svg>
